<svg width="76" height="76" viewBox="0 0 76 76" fill="none" xmlns="http://www.w3.org/2000/svg">
<g clip-path="url(#clip0_1_374)">
<path d="M37.5039 36.7334C38.1511 36.7334 38.6758 36.2087 38.6758 35.5615C38.6758 34.9143 38.1511 34.3896 37.5039 34.3896C36.8567 34.3896 36.332 34.9143 36.332 35.5615C36.332 36.2087 36.8567 36.7334 37.5039 36.7334Z" fill="#599D2E"/>
<path d="M37.5039 41.4209C40.7348 41.4209 43.3633 38.7924 43.3633 35.5615C43.3633 34.3697 43.0012 33.2611 42.3871 32.3354L45.9965 28.726C46.9234 29.34 48.0309 29.7021 49.2227 29.7021C52.4535 29.7021 55.082 27.0736 55.082 23.8428C55.082 20.6119 52.4535 17.9834 49.2227 17.9834C45.9918 17.9834 43.3633 20.6119 43.3633 23.8428C43.3633 25.0346 43.7254 26.142 44.3395 27.0689L40.7301 30.6783C39.8031 30.0643 38.6957 29.7021 37.5039 29.7021C34.675 29.7021 32.3078 31.7189 31.7629 34.3896H29.0852C28.6 33.0291 27.3109 32.0459 25.7852 32.0459C23.8469 32.0459 22.2695 33.6232 22.2695 35.5615C22.2695 37.4998 23.8469 39.0771 25.7852 39.0771C27.3109 39.0771 28.6 38.0939 29.0852 36.7334H31.7629C32.3078 39.4041 34.675 41.4209 37.5039 41.4209ZM49.2227 20.3271C51.1609 20.3271 52.7383 21.9045 52.7383 23.8428C52.7383 25.7811 51.1609 27.3584 49.2227 27.3584C47.2844 27.3584 45.707 25.7811 45.707 23.8428C45.707 21.9045 47.2844 20.3271 49.2227 20.3271ZM37.5039 32.0459C39.4422 32.0459 41.0195 33.6232 41.0195 35.5615C41.0195 37.4998 39.4422 39.0771 37.5039 39.0771C35.5656 39.0771 33.9883 37.4998 33.9883 35.5615C33.9883 33.6232 35.5656 32.0459 37.5039 32.0459ZM25.7852 36.7334C25.1383 36.7334 24.6133 36.2072 24.6133 35.5615C24.6133 34.9158 25.1383 34.3896 25.7852 34.3896C26.432 34.3896 26.957 34.9158 26.957 35.5615C26.957 36.2072 26.432 36.7334 25.7852 36.7334Z" fill="#599D2E"/>
<path d="M49.2227 0.538086H51.5664V2.88184H49.2227V0.538086Z" fill="#599D2E"/>
<path d="M51.5664 2.88184H53.9102V5.22559H51.5664V2.88184Z" fill="#599D2E"/>
<path d="M46.8789 2.88184H49.2227V5.22559H46.8789V2.88184Z" fill="#599D2E"/>
<path d="M49.2227 5.22559H51.5664V7.56934H49.2227V5.22559Z" fill="#599D2E"/>
<path d="M49.2227 25.0146C49.8699 25.0146 50.3945 24.49 50.3945 23.8428C50.3945 23.1956 49.8699 22.6709 49.2227 22.6709C48.5754 22.6709 48.0508 23.1956 48.0508 23.8428C48.0508 24.49 48.5754 25.0146 49.2227 25.0146Z" fill="#599D2E"/>
<path d="M2.57617 55.4838H5.86328V64.8588H8.20703V53.14H6.80664L10.5508 47.1482L14.2949 53.14H12.8945V74.2338H15.2383V55.4838H18.5254L10.5508 42.7256L2.57617 55.4838Z" fill="#599D2E"/>
<path d="M5.86328 67.2021H8.20703V74.2334H5.86328V67.2021Z" fill="#599D2E"/>
<path d="M59.7695 15.64H62.1133V10.9525H60.7129L64.457 4.96074L68.2012 10.9525H66.8008V32.0463H69.1445V13.2963H72.4316L64.457 0.538086L56.4824 13.2963H59.7695V15.64Z" fill="#599D2E"/>
<path d="M72.6777 49.6111C71.5316 49.4201 70.5813 48.6643 70.1359 47.5896C69.6918 46.5162 69.8301 45.3104 70.5051 44.3647L71.1848 43.4131L64.8098 37.0369L63.857 37.7178C63.0484 38.2943 62.0535 38.4525 61.1125 38.217C61.7113 36.2459 62.0453 34.1752 62.0945 32.0459H62.1133V17.9834H59.7695V21.4803C56.043 13.8725 48.2418 8.6084 39.2137 8.6084H35.7941C34.4242 8.6084 33.0883 8.75137 31.784 8.98223L25.8695 3.06777L24.1598 4.77637C23.8504 5.08574 23.3887 5.17246 22.9469 4.99199C22.5355 4.82441 22.2695 4.43301 22.2695 3.99473V1.57715H12.8945V3.99473C12.8945 4.43301 12.6285 4.82441 12.1879 5.00488C11.7766 5.1748 11.3125 5.08457 11.0055 4.77637L9.2957 3.06777L2.66641 9.6959L4.375 11.4068C4.68438 11.7162 4.77344 12.1791 4.5918 12.6197C4.42305 13.0299 4.03164 13.2959 3.59336 13.2959H1.17578V22.6709H3.59336C4.03047 22.6709 4.42188 22.9369 4.60352 23.3787C4.77344 23.7877 4.6832 24.2518 4.37383 24.5611L2.66641 26.2709L9.29453 32.899L11.0043 31.1904C11.3137 30.8822 11.7754 30.7932 12.2172 30.9748C12.6285 31.1424 12.8945 31.5338 12.8945 31.9721H12.9109C13.0809 40.5139 17.8844 48.1557 25.5531 51.99L26.957 52.692V55.4834C26.957 56.776 28.0082 57.8271 29.3008 57.8271H33.9883V58.8209L35.1473 59.0131C35.9488 59.1467 36.6426 59.5686 37.1453 60.1709H29.3008C28.0082 60.1709 26.957 61.2221 26.957 62.5146V63.6865C26.957 69.5014 31.6879 74.2334 37.5039 74.2334C40.818 74.2334 43.777 72.6936 45.7117 70.2947C46.218 70.2643 46.7242 70.3451 47.1965 70.5396C48.2664 70.9826 49.0187 71.9283 49.2086 73.0732L49.4031 74.2334H58.4207L58.6094 73.0803C58.8004 71.933 59.5563 70.9826 60.632 70.5385C61.7031 70.0943 62.9102 70.2303 63.857 70.9076L64.8098 71.5873L71.1859 65.2111L70.5074 64.2619C69.8301 63.3139 69.693 62.1057 70.1383 61.0287C70.5824 59.9564 71.5305 59.2029 72.6719 59.0131L73.832 58.8209V49.8033L72.6777 49.6111ZM45.707 60.1709H45.1574C44.6641 59.435 44.2668 58.6533 43.975 57.8271H45.707C45.9672 57.8271 46.2133 57.7744 46.4465 57.6959C47.7391 60.533 50.5949 62.5146 53.9102 62.5146C58.4324 62.5146 62.1133 58.835 62.1133 54.3115C62.1133 50.6764 59.7848 47.6084 56.5094 46.5268C57.0473 45.9092 57.5535 45.267 58.0211 44.5967C61.9047 46.2338 64.457 50.0318 64.457 54.3115C64.457 60.1264 59.7262 64.8584 53.9102 64.8584C51.7973 64.8584 49.7863 64.2385 48.0508 63.0736V62.5146C48.0508 61.2221 46.9996 60.1709 45.707 60.1709ZM50.3945 48.7463C49.7559 49.1588 49.0984 49.5479 48.407 49.8936L48.0508 50.0717V34.3896H50.3945V48.7463ZM48.0508 52.692L49.4547 51.99C51.3379 51.0479 53.0453 49.8725 54.5582 48.5143C57.5102 48.8389 59.7695 51.2893 59.7695 54.3115C59.7695 57.5424 57.141 60.1709 53.9102 60.1709C50.6793 60.1709 48.0508 57.5424 48.0508 54.3115V52.692ZM9.34844 29.5311L9.2957 29.5838L5.98164 26.2686L6.0332 26.217C7.01523 25.2361 7.30469 23.7689 6.75977 22.4564C6.22891 21.1627 4.98555 20.3271 3.59336 20.3271H3.51953V15.6396H3.59336C4.98555 15.6396 6.22773 14.8041 6.76914 13.4857C7.30352 12.1979 7.01406 10.7307 6.0332 9.7498L5.98164 9.69707L9.2957 6.38184L9.34844 6.4334C10.3293 7.41426 11.7941 7.70137 13.109 7.15996C14.4027 6.63027 15.2383 5.38691 15.2383 3.99473V3.9209H19.9258V3.99473C19.9258 5.38691 20.7613 6.63027 22.0809 7.17168C23.3711 7.70488 24.8371 7.41543 25.8168 6.43574L25.8695 6.38301L29.0992 9.61269C27.4691 10.1119 25.9234 10.7998 24.4691 11.6318C22.7043 9.72402 20.2 8.6084 17.582 8.6084C12.4129 8.6084 8.20703 12.8143 8.20703 17.9834C8.20703 21.5904 10.2988 24.8377 13.491 26.3928C13.3105 27.1779 13.1676 27.9771 13.0715 28.7916C11.7848 28.2654 10.3258 28.5549 9.34844 29.5311ZM16.1441 19.8104C15.5934 19.3732 15.2383 18.7111 15.2383 17.9834C15.2383 16.6908 16.2895 15.6396 17.582 15.6396C18.073 15.6396 18.5312 15.8072 18.9203 16.0814C17.8738 17.2252 16.9434 18.4721 16.1441 19.8104ZM20.609 14.4139C19.7734 13.7037 18.7094 13.2959 17.582 13.2959C14.9969 13.2959 12.8945 15.3982 12.8945 17.9834C12.8945 19.5854 13.7348 21.0502 15.0344 21.9021C14.7016 22.6193 14.4027 23.3541 14.1438 24.1088C11.9582 22.8783 10.5508 20.5486 10.5508 17.9834C10.5508 14.1057 13.7043 10.9521 17.582 10.9521C19.4066 10.9521 21.1516 11.6834 22.4523 12.9338C21.8113 13.3955 21.1984 13.89 20.609 14.4139ZM26.6008 49.8936C25.9094 49.5479 25.2508 49.1576 24.6133 48.7463V43.7646H26.957V50.0717L26.6008 49.8936ZM22.2695 41.4209V46.9861C17.8492 43.1447 15.2383 37.5666 15.2383 31.508C15.2383 20.1736 24.4598 10.9521 35.7941 10.9521H39.2137C50.548 10.9521 59.7695 20.1736 59.7695 31.508C59.7695 37.5666 57.1586 43.1447 52.7383 46.9861V32.0459H45.707V55.4834H41.0195V43.7646H33.9883V55.4834H29.3008V41.4209H22.2695ZM38.6758 55.4834H36.332V46.1084H38.6758V55.4834ZM39.8477 60.1322C39.4586 59.1924 38.8234 58.4225 38.0512 57.8271H41.5234C41.7531 58.6357 42.0648 59.4197 42.4492 60.1709H39.8594C39.8547 60.158 39.8523 60.1451 39.8477 60.1322ZM37.5039 71.8896C32.9816 71.8896 29.3008 68.21 29.3008 63.6865V62.5146H45.707V63.6865C45.707 68.21 42.0262 71.8896 37.5039 71.8896ZM71.4883 56.8932C69.9039 57.3971 68.6219 58.5643 67.9727 60.1322C67.3223 61.7014 67.4043 63.4357 68.1672 64.9146L64.5133 68.5674C63.0367 67.8033 61.3035 67.7225 59.7355 68.3717C58.1676 69.0209 56.998 70.3029 56.493 71.8885H51.3285C50.8258 70.3053 49.6598 69.0221 48.0918 68.3728C47.7648 68.2369 47.425 68.1455 47.0816 68.0729C47.4273 67.3205 47.6922 66.5248 47.8539 65.6893C49.7066 66.6818 51.7668 67.2021 53.9102 67.2021C61.0176 67.2021 66.8008 61.4189 66.8008 54.3115C66.8008 49.2057 63.823 44.667 59.2645 42.5916C59.6477 41.8979 59.9957 41.1842 60.3051 40.4506C61.7148 40.8689 63.2137 40.726 64.5133 40.0557L68.166 43.7084C67.4031 45.185 67.3211 46.9193 67.9703 48.4873C68.6207 50.0564 69.9039 51.2248 71.4883 51.7299V56.8932Z" fill="#599D2E"/>
</g>
<defs>
<clipPath id="clip0_1_374">
<rect width="75" height="75" fill="white" transform="translate(0.00390625 0.405273)"/>
</clipPath>
</defs>
</svg>
