<svg width="33" height="33" viewBox="0 0 33 33" fill="none" xmlns="http://www.w3.org/2000/svg">
<path d="M14.5764 4.125H18.6653V22.8618C16.9199 23.22 15.1434 23.4048 13.3616 23.4135C8.36828 23.4083 5.76953 21.1777 5.76953 16.8939C5.76953 12.7689 8.52606 10.0877 12.7985 10.0877C13.3977 10.076 13.9958 10.1454 14.5764 10.2939V4.125ZM14.5764 13.5527C14.1319 13.4061 13.6656 13.3363 13.1976 13.3464C11.1351 13.3464 9.93578 14.6077 9.93578 16.8176C9.93578 18.9698 11.0774 20.1578 13.1718 20.1578C13.6419 20.1577 14.1114 20.1233 14.5764 20.0547V13.5578V13.5527Z" fill="#44B78B"/>
<path d="M25.1622 10.3733V19.7577C25.1622 22.9886 24.9199 24.5417 24.2104 25.8813C23.4863 27.2434 22.3022 28.3042 20.8691 28.875L17.0762 27.0878C18.4541 26.616 19.6082 25.65 20.3153 24.3767C20.899 23.2207 21.0836 21.8811 21.0836 18.3573V10.3733H25.1622ZM21.0795 4.14563H25.1674V8.29951H21.0795V4.14563Z" fill="#44B78B"/>
</svg>
