<svg width="25" height="25" viewBox="0 0 25 25" fill="none" xmlns="http://www.w3.org/2000/svg">
<path fill-rule="evenodd" clip-rule="evenodd" d="M12.0782 23.1388C6.47822 17.4316 3.67822 13.0316 3.67822 9.93882C3.67822 5.29963 7.43903 1.53882 12.0782 1.53882C16.7174 1.53882 20.4782 5.29963 20.4782 9.93882C20.4782 13.0316 17.6782 17.4316 12.0782 23.1388ZM12.0782 20.6188C16.4782 15.9289 18.6782 12.3689 18.6782 9.93882C18.6782 6.29374 15.7233 3.33882 12.0782 3.33882C8.43314 3.33882 5.47822 6.29374 5.47822 9.93882C5.47822 12.3689 7.67822 15.9289 12.0782 20.6188ZM12.0782 13.5388C10.09 13.5388 8.47822 11.927 8.47822 9.93882C8.47822 7.95059 10.09 6.33882 12.0782 6.33882C14.0664 6.33882 15.6782 7.95059 15.6782 9.93882C15.6782 11.927 14.0664 13.5388 12.0782 13.5388ZM12.0782 11.7388C13.0723 11.7388 13.8782 10.9329 13.8782 9.93882C13.8782 8.94471 13.0723 8.13882 12.0782 8.13882C11.0841 8.13882 10.2782 8.94471 10.2782 9.93882C10.2782 10.9329 11.0841 11.7388 12.0782 11.7388Z" fill="#599D2E"/>
</svg>
