<svg width="33" height="33" viewBox="0 0 33 33" fill="none" xmlns="http://www.w3.org/2000/svg">
<path d="M25.2656 0H7.73438C3.4628 0 0 3.4628 0 7.73438V25.2656C0 29.5372 3.4628 33 7.73438 33H25.2656C29.5372 33 33 29.5372 33 25.2656V7.73438C33 3.4628 29.5372 0 25.2656 0Z" fill="#242938"/>
<path d="M17.8905 24.4062H26.7557C27.0372 24.4064 27.3138 24.3329 27.5577 24.1933C27.8011 24.0542 28.0036 23.8535 28.1447 23.6113C28.2854 23.3699 28.3594 23.0956 28.3593 22.8163C28.3591 22.537 28.2848 22.2628 28.144 22.0216L22.1904 11.8011C22.0493 11.559 21.8468 11.3583 21.6035 11.2192C21.3593 11.0796 21.0829 11.0061 20.8016 11.0061C20.5203 11.0061 20.2439 11.0796 19.9997 11.2192C19.7564 11.3583 19.554 11.559 19.4128 11.8011L17.8905 14.4162L14.9141 9.30254C14.7728 9.06044 14.5703 8.8598 14.3269 8.72078C14.0827 8.58114 13.8062 8.50769 13.5248 8.50769C13.2435 8.50769 12.967 8.58114 12.7228 8.72078C12.4794 8.85982 12.2769 9.06046 12.1356 9.30254L4.72699 22.0216C4.58619 22.2628 4.51191 22.537 4.51172 22.8163C4.51172 23.0954 4.58558 23.3696 4.72635 23.6113C4.86748 23.8535 5.06996 24.0542 5.31339 24.1933C5.55759 24.333 5.83409 24.4064 6.11544 24.4062H11.6803C13.8851 24.4062 15.5112 23.4464 16.6299 21.5738L19.3463 16.9114L20.8012 14.4162L25.1677 21.9111H19.3463L17.8905 24.4062ZM11.5896 21.9085L7.70602 21.9076L13.5274 11.9151L16.4321 16.9114L14.4873 20.2508C13.7442 21.4659 12.9003 21.9085 11.5896 21.9085Z" fill="#00DC82"/>
</svg>
