<svg width="91" height="41" viewBox="0 0 91 41" fill="none" xmlns="http://www.w3.org/2000/svg">
<g clip-path="url(#clip0_1_573)">
<path fill-rule="evenodd" clip-rule="evenodd" d="M21.8488 20.6821V26.2695H25.2909C26.1098 26.2695 26.7877 25.9937 27.3245 25.4421C27.8751 24.8916 28.1509 24.2358 28.1509 23.4758C28.1509 22.7306 27.8751 22.0832 27.3245 21.5316C26.7877 20.9653 26.1098 20.6821 25.2909 20.6821H21.8488ZM21.8488 28.2358V34.7169H19.793V18.7158H25.2456C26.6309 18.7158 27.8088 19.1779 28.7772 20.1011C29.7603 21.0253 30.2519 22.1506 30.2519 23.4758C30.2519 24.8316 29.7603 25.9642 28.7772 26.8727C27.8235 27.7821 26.6467 28.2358 25.2456 28.2358H21.8488Z" fill="#767676"/>
<path fill-rule="evenodd" clip-rule="evenodd" d="M33.09 31.3641C33.09 31.8999 33.3163 32.3472 33.771 32.7041C34.2257 33.062 34.7584 33.2409 35.37 33.2409C36.2331 33.2409 37.0047 32.9209 37.6826 32.2809C38.3605 31.6399 38.6994 30.8872 38.6994 30.023C38.0584 29.5167 37.1647 29.263 36.0173 29.263C35.1826 29.263 34.4868 29.4641 33.9279 29.8662C33.3689 30.2683 33.09 30.7683 33.09 31.3641ZM35.7489 23.4072C37.2689 23.4072 38.4678 23.8135 39.3478 24.6262C40.2268 25.4378 40.6657 26.5514 40.6657 27.9662V34.7167H38.6994V33.1967H38.61C37.7605 34.4483 36.6279 35.0735 35.2131 35.0735C34.0068 35.0735 32.9963 34.7167 32.1847 34.0009C31.3721 33.2862 30.9668 32.3925 30.9668 31.3199C30.9668 30.1872 31.3952 29.2851 32.2521 28.6146C33.1089 27.9441 34.2521 27.6093 35.6826 27.6093C36.9036 27.6093 37.91 27.8335 38.6994 28.2799V27.8104C38.6994 27.0956 38.4163 26.4883 37.85 25.9893C37.2836 25.4893 36.6205 25.2409 35.8605 25.2409C34.7131 25.2409 33.8047 25.7251 33.1342 26.6935L31.3247 25.5525C32.3226 24.123 33.7973 23.4072 35.7489 23.4072Z" fill="#767676"/>
<path fill-rule="evenodd" clip-rule="evenodd" d="M55.8187 34.8971C54.9239 34.8971 54.1829 34.6214 53.5955 34.0698C53.006 33.5192 52.7039 32.7519 52.6892 31.7677V25.6445H50.7671V23.7677H52.6892V20.415H54.745V23.7677H57.4271V25.6445H54.745V31.0982C54.745 31.8277 54.8871 32.3235 55.1702 32.5835C55.4534 32.8445 55.7734 32.975 56.1313 32.975C56.2955 32.975 56.4555 32.9561 56.6123 32.9192C56.7681 32.8824 56.9134 32.834 57.0481 32.774L57.6955 34.6066C57.1587 34.8003 56.5344 34.8971 55.8187 34.8971ZM42.9902 23.7677H44.9576V25.555H45.046C45.6576 24.155 46.9166 23.454 48.8229 23.454L49.2481 23.4993V25.6445L48.3323 25.555C47.3776 25.555 46.5923 25.8498 45.9734 26.4382C45.3555 27.0266 45.046 27.775 45.046 28.6845V34.7182H42.9902V23.7677Z" fill="#767676"/>
<path fill-rule="evenodd" clip-rule="evenodd" d="M59.5059 23.7651H61.4722V25.2841H61.5616C61.8743 24.7483 62.3553 24.3009 63.0027 23.943C63.6511 23.5862 64.3248 23.4072 65.0259 23.4072C66.3669 23.4072 67.3985 23.7914 68.1217 24.5578C68.8438 25.3262 69.2048 26.4178 69.2048 27.8325V34.7156H67.149V27.9662C67.1048 26.1788 66.2027 25.2841 64.4448 25.2841C63.6248 25.2841 62.9395 25.6167 62.388 26.2799C61.8374 26.943 61.5616 27.7356 61.5616 28.6588V34.7156H59.5059V23.7651Z" fill="#767676"/>
<path fill-rule="evenodd" clip-rule="evenodd" d="M73.249 27.922H79.5301C79.4701 27.162 79.1606 26.5335 78.6017 26.0335C78.0438 25.5346 77.2953 25.2851 76.3553 25.2851C75.5817 25.2851 74.9143 25.5241 74.3564 25.9999C73.7975 26.4767 73.428 27.1178 73.249 27.922ZM76.5343 35.0735C74.9259 35.0735 73.5996 34.523 72.5574 33.4199C71.5143 32.3178 70.9922 30.9251 70.9922 29.2409C70.9922 27.5725 71.4985 26.183 72.5122 25.0725C73.5259 23.963 74.8206 23.4072 76.4006 23.4072C78.0248 23.4072 79.3175 23.9325 80.2785 24.983C81.2396 26.0335 81.7196 27.5051 81.7196 29.3967L81.6974 29.6209H73.0932C73.1227 30.6935 73.4806 31.5578 74.1659 32.2135C74.8501 32.8693 75.6711 33.1967 76.6238 33.1967C77.9353 33.1967 78.9638 32.5409 79.709 31.2304L81.5406 32.1241C81.049 33.0483 80.368 33.7704 79.4964 34.2914C78.6238 34.8125 77.6375 35.0735 76.5343 35.0735Z" fill="#767676"/>
<path fill-rule="evenodd" clip-rule="evenodd" d="M85.6545 34.7183H83.5977V23.7678H85.565V25.5552H85.6545C85.8619 24.9741 86.2903 24.4783 86.9398 24.0688C87.5871 23.6594 88.224 23.4541 88.8503 23.4541C89.4461 23.4541 89.9524 23.5436 90.3692 23.7225L89.744 25.712C89.4913 25.6078 89.0882 25.5552 88.5366 25.5552C87.7619 25.5552 87.0871 25.8678 86.5145 26.4941C85.9408 27.1194 85.6545 27.8499 85.6545 28.6846V34.7183Z" fill="#767676"/>
<path fill-rule="evenodd" clip-rule="evenodd" d="M24.4509 9.36529V10.7611H27.7909C27.6835 11.6421 27.3183 12.3274 26.6951 12.8179C26.0877 13.3 25.3404 13.54 24.4509 13.54C23.4204 13.54 22.5519 13.179 21.8456 12.4558C21.1393 11.7411 20.7867 10.8653 20.7867 9.82635C20.7867 8.7874 21.1393 7.91161 21.8456 7.19582C22.5519 6.47266 23.4204 6.11161 24.4509 6.11161C25.4151 6.11161 26.254 6.44424 26.9688 7.10845L27.954 6.12424C26.9646 5.18529 25.7972 4.71582 24.4509 4.71582C23.5372 4.71582 22.673 4.94845 21.8583 5.41371C21.0519 5.87056 20.4162 6.49793 19.9519 7.29582C19.4951 8.07687 19.2656 8.92108 19.2656 9.82635C19.2656 10.74 19.4951 11.5874 19.9519 12.3695C20.4088 13.159 21.0446 13.7811 21.8583 14.2379C22.673 14.7042 23.5372 14.9358 24.4509 14.9358C25.8309 14.9358 26.973 14.5042 27.8783 13.64C28.7762 12.7842 29.2246 11.6506 29.2246 10.2379C29.2246 9.90529 29.2004 9.61371 29.1498 9.36529H24.4509Z" fill="#487BBE"/>
<path fill-rule="evenodd" clip-rule="evenodd" d="M34.3342 13.0661C33.9763 13.4482 33.5406 13.6387 33.0258 13.6387C32.5016 13.6387 32.0616 13.4482 31.7037 13.0661C31.3469 12.684 31.1679 12.2103 31.1679 11.645C31.1679 11.064 31.3469 10.5892 31.7037 10.224C32.0616 9.84186 32.5016 9.65028 33.0258 9.65028C33.549 9.65028 33.989 9.84186 34.3469 10.224C34.7037 10.5892 34.8827 11.064 34.8827 11.645C34.8827 12.2019 34.6995 12.6755 34.3342 13.0661ZM33.0258 8.35449C32.0858 8.35449 31.3016 8.67028 30.67 9.30186C30.0374 9.92502 29.7227 10.7061 29.7227 11.645C29.7227 12.5671 30.0416 13.3482 30.6816 13.9882C31.3132 14.6198 32.0953 14.9355 33.0258 14.9355C33.9563 14.9355 34.7374 14.6198 35.369 13.9882C36.0079 13.3482 36.329 12.5671 36.329 11.645C36.329 10.7061 36.0079 9.92502 35.369 9.30186C34.7374 8.67028 33.9563 8.35449 33.0258 8.35449Z" fill="#EE372C"/>
<path fill-rule="evenodd" clip-rule="evenodd" d="M51.4355 14.737H52.8808V5.06543H51.4355V14.737Z" fill="#00AB4E"/>
<path fill-rule="evenodd" clip-rule="evenodd" d="M41.5393 13.0661C41.1825 13.4482 40.7456 13.6387 40.2309 13.6387C39.7067 13.6387 39.2667 13.4482 38.9088 13.0661C38.5519 12.684 38.3741 12.2103 38.3741 11.645C38.3741 11.064 38.5519 10.5892 38.9088 10.224C39.2667 9.84186 39.7067 9.65028 40.2309 9.65028C40.7541 9.65028 41.194 9.84186 41.5519 10.224C41.9088 10.5892 42.0877 11.064 42.0877 11.645C42.0877 12.2019 41.9046 12.6755 41.5393 13.0661ZM40.2309 8.35449C39.2919 8.35449 38.5067 8.67028 37.8751 9.30186C37.2435 9.92502 36.9277 10.7061 36.9277 11.645C36.9277 12.5671 37.2477 13.3482 37.8877 13.9882C38.5183 14.6198 39.3004 14.9355 40.2309 14.9355C41.1614 14.9355 41.9425 14.6198 42.5741 13.9882C43.2141 13.3482 43.534 12.5671 43.534 11.645C43.534 10.7061 43.2141 9.92502 42.5741 9.30186C41.9425 8.67028 41.1614 8.35449 40.2309 8.35449Z" fill="#FCB514"/>
<path fill-rule="evenodd" clip-rule="evenodd" d="M55.5108 10.1745C55.876 9.80923 56.2823 9.62607 56.7318 9.62607C57.0139 9.62607 57.2676 9.69028 57.4929 9.81975C57.7171 9.94818 57.8697 10.1166 57.9529 10.324L55.0118 11.545C54.995 10.9882 55.1613 10.5313 55.5108 10.1745ZM56.8444 13.6398C56.1213 13.6398 55.5887 13.3071 55.2487 12.6419L59.6487 10.8229L59.4992 10.4482C59.3823 10.1408 59.2308 9.8587 59.0434 9.60081C58.8571 9.34291 58.6434 9.12186 58.4023 8.93449C58.1613 8.74712 57.895 8.60397 57.6044 8.50397C57.3139 8.40397 57.0065 8.35449 56.6813 8.35449C55.8013 8.35449 55.0613 8.66607 54.4634 9.28923C53.8729 9.92081 53.5781 10.7061 53.5781 11.645C53.5781 12.5755 53.8897 13.3566 54.5139 13.9882C55.1371 14.6198 55.9139 14.9355 56.8444 14.9355C58.0076 14.9355 58.9213 14.4492 59.5865 13.4776L58.4644 12.7292C58.0571 13.3355 57.5171 13.6398 56.8444 13.6398Z" fill="#EE372C"/>
<path fill-rule="evenodd" clip-rule="evenodd" d="M48.6551 13.0787C48.314 13.4524 47.8982 13.6398 47.4077 13.6398C46.893 13.6398 46.4572 13.4492 46.1003 13.0661C45.7509 12.684 45.5761 12.2145 45.5761 11.6576C45.5761 11.0924 45.7551 10.6198 46.1119 10.2366C46.4782 9.84607 46.9098 9.65133 47.4077 9.65133C47.9067 9.65133 48.3224 9.84186 48.6551 10.225C48.9951 10.6155 49.1656 11.0924 49.1656 11.6576C49.1656 12.2145 48.9951 12.6882 48.6551 13.0787ZM49.0667 9.09028H49.0161C48.6003 8.59976 48.0235 8.35449 47.2835 8.35449C46.4361 8.35449 45.6961 8.6787 45.0656 9.32712C44.4424 9.97554 44.1309 10.7524 44.1309 11.6576C44.1309 12.5545 44.4424 13.3282 45.0656 13.9766C45.7056 14.6155 46.4445 14.9355 47.2835 14.9355C48.0235 14.9355 48.6003 14.6861 49.0161 14.1882H49.0667V14.525C49.0667 15.904 48.4803 16.5934 47.3088 16.5934C46.9351 16.5934 46.6024 16.485 46.3119 16.2692C46.0214 16.0534 45.8003 15.7713 45.6509 15.4219L44.3919 15.945C44.5172 16.2366 44.6751 16.4998 44.8656 16.7366C45.0572 16.9734 45.2793 17.1776 45.533 17.3482C45.7856 17.5176 46.0624 17.6503 46.3614 17.7471C46.6603 17.8419 46.9761 17.8892 47.3088 17.8892C48.2888 17.8892 49.0561 17.5924 49.6077 16.9987C50.1614 16.405 50.4372 15.5587 50.4372 14.4619V8.55449H49.0667V9.09028Z" fill="#487BBE"/>
<path fill-rule="evenodd" clip-rule="evenodd" d="M0.779297 39.974H11.2677V0.118164H0.779297V39.974Z" fill="#487BBE"/>
</g>
<defs>
<clipPath id="clip0_1_573">
<rect width="90" height="40" fill="white" transform="translate(0.779297 0.118164)"/>
</clipPath>
</defs>
</svg>
