<svg width="33" height="33" viewBox="0 0 33 33" fill="none" xmlns="http://www.w3.org/2000/svg">
<path d="M16.3814 2.16557C9.05953 2.16557 9.52256 5.33151 9.52256 5.33151V8.6212H16.4856V9.65245H6.74953C6.74953 9.65245 2.0625 9.07495 2.0625 16.5051C2.0625 23.9353 6.20091 23.6331 6.20091 23.6331H8.59031V20.1671C8.59031 20.1671 8.45625 16.0287 12.6122 16.0287H19.5855C19.5855 16.0287 23.4754 16.0905 23.4754 12.2625V5.9812C23.4754 5.9812 24.0652 2.1532 16.4196 2.1532L16.3814 2.16557ZM12.5328 4.36935C12.7803 4.36311 13.0242 4.43041 13.2334 4.56275C13.4427 4.69509 13.6081 4.88652 13.7086 5.11283C13.8091 5.33915 13.8402 5.59018 13.798 5.83418C13.7558 6.07818 13.6422 6.30419 13.4716 6.48362C13.3009 6.66306 13.0809 6.78787 12.8393 6.84226C12.5978 6.89665 12.3455 6.87818 12.1144 6.78918C11.8833 6.70019 11.6838 6.54467 11.5412 6.34229C11.3985 6.13992 11.319 5.89977 11.3128 5.65223V5.6316C11.3128 5.29957 11.4447 4.98113 11.6795 4.74635C11.9143 4.51157 12.2327 4.37967 12.5648 4.37967L12.5328 4.36935Z" fill="url(#paint0_linear_332_287)"/>
<path d="M16.5873 30.8447C23.9091 30.8447 23.4461 27.6684 23.4461 27.6684V24.3891H16.4841V23.3578H26.2501C26.2501 23.3578 30.9371 23.8817 30.9371 16.4948C30.9371 9.10799 26.7987 9.36683 26.7987 9.36683H24.3784V12.7875C24.3784 12.7875 24.5124 16.9259 20.3565 16.9259H13.3801C13.3801 16.9259 9.4871 16.8671 9.4871 20.6951V27.0187C9.4871 27.0187 8.89723 30.8467 16.5429 30.8467H16.5842L16.5873 30.8447ZM20.4359 28.6306C20.1883 28.6368 19.9445 28.5695 19.7352 28.4372C19.5259 28.3048 19.3606 28.1134 19.2601 27.8871C19.1596 27.6608 19.1285 27.4098 19.1707 27.1658C19.2129 26.9218 19.3265 26.6958 19.4971 26.5163C19.6677 26.3369 19.8877 26.2121 20.1293 26.1577C20.3709 26.1033 20.6232 26.1218 20.8542 26.2108C21.0853 26.2997 21.2848 26.4553 21.4275 26.6576C21.5702 26.86 21.6497 27.1002 21.6559 27.3477V27.3786C21.6559 27.7107 21.524 28.0291 21.2892 28.2639C21.0544 28.4987 20.7359 28.6306 20.4039 28.6306H20.4359Z" fill="url(#paint1_linear_332_287)"/>
<defs>
<linearGradient id="paint0_linear_332_287" x1="4.91613" y1="4.97356" x2="18.618" y2="18.6444" gradientUnits="userSpaceOnUse">
<stop stop-color="#387EB8"/>
<stop offset="1" stop-color="#366994"/>
</linearGradient>
<linearGradient id="paint1_linear_332_287" x1="13.0217" y1="13.8791" x2="28.6763" y2="27.5459" gradientUnits="userSpaceOnUse">
<stop stop-color="#FFE052"/>
<stop offset="1" stop-color="#FFC331"/>
</linearGradient>
</defs>
</svg>
