<svg width="33" height="33" viewBox="0 0 33 33" fill="none" xmlns="http://www.w3.org/2000/svg">
<g clip-path="url(#clip0_333_294)">
<path d="M25.2656 0H7.73438C3.4628 0 0 3.4628 0 7.73438V25.2656C0 29.5372 3.4628 33 7.73438 33H25.2656C29.5372 33 33 29.5372 33 25.2656V7.73438C33 3.4628 29.5372 0 25.2656 0Z" fill="#D30001"/>
<path d="M29.3739 15.0541L29.3906 15.0707C29.3906 15.0707 29.1974 15.2071 28.9928 15.3776C22.536 10.6033 18.5916 12.854 17.3526 13.4565C11.7257 16.5963 13.3517 24.304 13.3849 24.4578L13.3854 24.4601H4.40511C4.40511 24.4601 4.74607 21.0954 7.13329 17.1168C9.52037 13.1383 13.5899 10.1258 16.8978 9.83026C23.2761 9.1914 29.0244 14.7121 29.3739 15.0541ZM13.7263 22.1867L14.954 22.63C15.0109 23.0753 15.0914 23.4968 15.1759 23.8814L15.2268 24.1078L13.8627 23.619C13.8059 23.2779 13.7491 22.7891 13.7263 22.1867ZM4.17772 18.5036L5.48496 18.9811C5.32589 19.3491 5.12325 19.8215 4.97604 20.1928L4.91674 20.3451L3.60938 19.8677C3.72307 19.5607 3.96168 18.9924 4.17772 18.5036ZM14.238 18.0489L15.0564 18.6968C14.9663 19.0471 14.897 19.4024 14.849 19.7608L14.8176 20.0269L13.8969 19.2993C13.9877 18.8901 14.0901 18.4696 14.238 18.0489ZM16.2499 14.8775L16.7614 15.6504C16.5614 15.8596 16.3759 16.0687 16.2107 16.2895L16.0907 16.4575L15.5452 15.639C15.7587 15.3662 15.9944 15.1115 16.2499 14.8775ZM8.11078 13.1951L8.91799 13.8998C8.71254 14.1146 8.51576 14.3375 8.32812 14.568L8.14507 14.7978L7.2698 14.0476C7.53109 13.7634 7.81533 13.4792 8.11091 13.1951H8.11078ZM19.3759 13.1496L19.626 13.8998C19.3624 13.9817 19.0986 14.0853 18.8349 14.205L18.637 14.2976L18.3756 13.5134C18.7009 13.3707 19.035 13.2492 19.3759 13.1496ZM22.0359 12.8767C22.327 12.895 22.6252 12.9276 22.9307 12.9807L23.1612 13.0246L23.1159 13.7293C22.8191 13.6661 22.5183 13.6242 22.2156 13.6039L21.9905 13.5929L22.0359 12.8767ZM12.7033 9.73938L13.2148 10.5236C12.9931 10.6345 12.7778 10.7583 12.5595 10.8897L12.3396 11.0238L11.8166 10.2282C12.1075 10.057 12.4032 9.89398 12.7033 9.73938ZM22.0587 9.30742C22.7351 9.50065 23.026 9.63304 23.1425 9.69504L23.1612 9.70535L23.1159 10.4668C22.8741 10.3684 22.6305 10.2749 22.385 10.1864L22.0132 10.0575L22.0587 9.30742ZM17.7164 8.63672L17.9436 9.33023H17.8299C17.5825 9.32942 17.3351 9.33738 17.0882 9.35408L16.8411 9.37561L16.625 8.70491C16.9871 8.66026 17.3515 8.63748 17.7164 8.63672Z" fill="white"/>
</g>
<defs>
<clipPath id="clip0_333_294">
<rect width="33" height="33" fill="white"/>
</clipPath>
</defs>
</svg>
