<svg width="38" height="33" viewBox="0 0 38 33" fill="none" xmlns="http://www.w3.org/2000/svg">
<g clip-path="url(#clip0_332_266)">
<path d="M30.4686 10.685C30.0742 10.5497 29.6766 10.4244 29.2759 10.3091C29.3432 10.0341 29.4052 9.76247 29.4602 9.49558C30.363 5.1128 29.7728 1.58195 27.7568 0.419422C25.8238 -0.695052 22.6626 0.467041 19.47 3.24555C19.1554 3.51988 18.8477 3.80211 18.5473 4.09197C18.3462 3.89922 18.1416 3.71021 17.9335 3.52504C14.5874 0.554172 11.2336 -0.697946 9.21974 0.467909C7.28851 1.58586 6.71666 4.90511 7.5295 9.05876C7.61037 9.47014 7.70168 9.8794 7.80334 10.2861C7.3286 10.421 6.87051 10.5646 6.4321 10.7174C2.50916 12.0852 0.00390625 14.2286 0.00390625 16.4519C0.00390625 18.7482 2.69341 21.0514 6.77933 22.4479C7.11058 22.5607 7.44459 22.6652 7.78105 22.7613C7.67178 23.1994 7.57477 23.6404 7.49013 24.0839C6.71521 28.1655 7.32035 31.4063 9.24637 32.5171C11.2356 33.6643 14.5744 32.4853 17.8254 29.6434C18.089 29.4123 18.3468 29.1748 18.5985 28.9308C18.9238 29.2447 19.2578 29.5495 19.6001 29.8447C22.7493 32.5545 25.8594 33.6487 27.7835 32.5348C29.7709 31.3843 30.4169 27.9028 29.5783 23.6671C29.5122 23.3352 29.4381 23.005 29.3561 22.6768C29.5906 22.6073 29.8207 22.5358 30.0451 22.4614C34.2928 21.0541 37.0565 18.7789 37.0565 16.4519C37.0565 14.2205 34.4704 12.0626 30.4686 10.685ZM29.5473 20.959C29.3447 21.026 29.1368 21.0907 28.9249 21.1537C28.456 19.6691 27.8232 18.0906 27.0487 16.4596C27.7877 14.8675 28.3962 13.3091 28.852 11.8342C29.2311 11.9439 29.5988 12.0596 29.9534 12.1816C33.3822 13.3621 35.4737 15.1072 35.4737 16.4519C35.4737 17.8842 33.2149 19.7437 29.5473 20.959ZM28.0255 23.9745C28.3964 25.8474 28.4492 27.5408 28.2036 28.8647C27.983 30.0543 27.5392 30.8473 26.9904 31.165C25.8228 31.8409 23.3256 30.9624 20.6325 28.6448C20.3142 28.3703 20.0035 28.087 19.7009 27.7952C20.745 26.6534 21.7884 25.326 22.8068 23.8517C24.598 23.6928 26.2903 23.4329 27.8249 23.0781C27.8989 23.3753 27.9657 23.6742 28.0255 23.9745ZM12.636 31.0482C11.4951 31.451 10.5865 31.4626 10.0372 31.1459C8.86846 30.4719 8.38258 27.8696 9.04533 24.3792C9.12411 23.9667 9.21431 23.5565 9.31584 23.149C10.8336 23.4848 12.5135 23.7263 14.309 23.8719C15.3343 25.3144 16.4078 26.6404 17.4897 27.8015C17.2598 28.0239 17.0244 28.2407 16.7838 28.4516C15.3462 29.7082 13.9056 30.5998 12.636 31.0482ZM7.29141 20.9502C5.48466 20.3326 3.99256 19.53 2.96985 18.6542C2.05077 17.8673 1.58689 17.0859 1.58689 16.4519C1.58689 15.1027 3.5983 13.3818 6.95316 12.2121C7.3603 12.0703 7.78641 11.9364 8.22858 11.8108C8.69231 13.3189 9.3005 14.8959 10.0345 16.4904C9.29095 18.1086 8.67408 19.7107 8.20585 21.2366C7.89874 21.1487 7.59383 21.0532 7.29141 20.9502ZM9.08296 8.75467C8.38663 5.19603 8.84906 2.51159 10.0129 1.83784C11.2524 1.12024 13.9934 2.14338 16.8825 4.7087C17.0709 4.87636 17.2563 5.04742 17.4385 5.22179C16.3619 6.3778 15.2982 7.6939 14.2821 9.12795C12.5394 9.28947 10.8713 9.54884 9.3377 9.89636C9.24321 9.51804 9.15827 9.13726 9.08296 8.75467ZM25.0658 12.7014C24.7036 12.0756 24.3279 11.4578 23.939 10.8483C25.1212 10.9978 26.254 11.1962 27.3176 11.4388C26.9983 12.4624 26.6003 13.5324 26.1318 14.6295C25.7893 13.9798 25.4339 13.3369 25.0658 12.7014ZM18.548 6.35305C19.2781 7.14404 20.0093 8.02708 20.7285 8.98524C19.2695 8.91634 17.8082 8.91605 16.3492 8.98437C17.0691 8.03504 17.8065 7.15316 18.548 6.35305ZM11.9884 12.7122C11.6249 13.3427 11.2761 13.9815 10.9424 14.6282C10.4816 13.535 10.0871 12.4601 9.7651 11.422C10.8223 11.1855 11.9496 10.9922 13.1243 10.8454C12.7311 11.4586 12.3524 12.0812 11.9884 12.7122ZM13.158 22.1711C11.9444 22.0356 10.8001 21.8522 9.74325 21.6221C10.0704 20.5655 10.4734 19.4677 10.9443 18.351C11.2793 18.9982 11.6295 19.6375 11.9946 20.2682C12.3701 20.9166 12.7588 21.5517 13.158 22.1711ZM18.5917 26.6622C17.8414 25.8529 17.0931 24.9574 16.3624 23.9943C17.0719 24.0221 17.7951 24.0363 18.5302 24.0363C19.2855 24.0363 20.032 24.0193 20.7668 23.9866C20.0453 24.9671 19.3169 25.8639 18.5917 26.6622ZM26.1467 18.294C26.642 19.4229 27.0594 20.515 27.3909 21.5535C26.3166 21.7986 25.1567 21.9961 23.9346 22.1427C24.3262 21.5218 24.7054 20.8933 25.072 20.2573C25.4448 19.6109 25.8031 18.9563 26.1467 18.294ZM23.7009 19.4665C23.1397 20.4415 22.5469 21.398 21.9234 22.3345C20.7941 22.4144 19.6623 22.4542 18.5302 22.4536C17.3771 22.4536 16.2555 22.4177 15.1755 22.3476C14.5358 21.4133 13.9317 20.4552 13.3644 19.4752C12.7998 18.5004 12.2726 17.5045 11.7836 16.4897C12.2714 15.4746 12.7971 14.4783 13.3598 13.5028L13.3596 13.5029C13.9221 12.5271 14.5214 11.5731 15.1563 10.6428C16.2581 10.5594 17.3881 10.516 18.5301 10.516C19.6773 10.516 20.8088 10.5598 21.9104 10.6438C22.5389 11.5727 23.1343 12.5235 23.6957 13.4944C24.2603 14.4678 24.793 15.4592 25.2931 16.4673C24.7981 17.4856 24.2671 18.486 23.7009 19.4665ZM26.9662 1.79066C28.2069 2.50624 28.6894 5.39186 27.9099 9.176C27.8601 9.41742 27.8042 9.66333 27.7434 9.91271C26.2061 9.55782 24.5368 9.29396 22.7891 9.12997C21.771 7.68015 20.716 6.36203 19.657 5.22092C19.9346 4.95338 20.2187 4.69277 20.5092 4.43934C23.2447 2.05886 25.8014 1.11894 26.9662 1.79066ZM18.5302 13.1432C20.3575 13.1432 21.8389 14.6246 21.8389 16.4519C21.8389 18.2792 20.3575 19.7606 18.5302 19.7606C16.7029 19.7606 15.2215 18.2792 15.2215 16.4519C15.2215 14.6246 16.7029 13.1432 18.5302 13.1432Z" fill="#00D8FF"/>
</g>
<defs>
<clipPath id="clip0_332_266">
<rect width="37.06" height="33" fill="white"/>
</clipPath>
</defs>
</svg>
