<svg width="76" height="76" viewBox="0 0 76 76" fill="none" xmlns="http://www.w3.org/2000/svg">
<path d="M45.1113 16.1047H41.5957V12.5891C41.5957 12.2783 41.4722 11.9802 41.2525 11.7605C41.0327 11.5407 40.7346 11.4172 40.4238 11.4172H35.7363C35.4255 11.4172 35.1275 11.5407 34.9077 11.7605C34.6879 11.9802 34.5645 12.2783 34.5645 12.5891V16.1047H31.0488C30.738 16.1047 30.44 16.2282 30.2202 16.448C30.0004 16.6677 29.877 16.9658 29.877 17.2766V21.9641C29.877 22.2749 30.0004 22.573 30.2202 22.7928C30.44 23.0125 30.738 23.136 31.0488 23.136H34.5645V26.6516C34.5645 26.9624 34.6879 27.2605 34.9077 27.4803C35.1275 27.7 35.4255 27.8235 35.7363 27.8235H40.4238C40.7346 27.8235 41.0327 27.7 41.2525 27.4803C41.4722 27.2605 41.5957 26.9624 41.5957 26.6516V23.136H45.1113C45.4221 23.136 45.7202 23.0125 45.94 22.7928C46.1597 22.573 46.2832 22.2749 46.2832 21.9641V17.2766C46.2832 16.9658 46.1597 16.6677 45.94 16.448C45.7202 16.2282 45.4221 16.1047 45.1113 16.1047ZM43.9395 20.7922H40.4238C40.113 20.7922 39.815 20.9157 39.5952 21.1355C39.3754 21.3552 39.252 21.6533 39.252 21.9641V25.4797H36.9082V21.9641C36.9082 21.6533 36.7847 21.3552 36.565 21.1355C36.3452 20.9157 36.0471 20.7922 35.7363 20.7922H32.2207V18.4485H35.7363C36.0471 18.4485 36.3452 18.325 36.565 18.1053C36.7847 17.8855 36.9082 17.5874 36.9082 17.2766V13.761H39.252V17.2766C39.252 17.5874 39.3754 17.8855 39.5952 18.1053C39.815 18.325 40.113 18.4485 40.4238 18.4485H43.9395V20.7922Z" fill="#599D2E"/>
<path d="M70.5762 22.3842C70.5999 22.178 70.6116 21.9707 70.6113 21.7631C70.6056 20.6889 70.233 19.649 69.5552 18.8156C68.8775 17.9822 67.9352 17.4055 66.8848 17.1811C65.6965 16.9549 64.4667 17.1885 63.4442 17.8347C62.4217 18.4808 61.6827 19.4913 61.377 20.6616L56.2207 35.4975C56.1443 35.5278 56.0699 35.5631 55.998 35.603L45.6387 41.6733C44.0535 42.6044 42.7386 43.9331 41.8241 45.5279C40.9095 47.1227 40.4269 48.9286 40.4238 50.767V61.8061C40.113 61.8061 39.815 61.9296 39.5952 62.1493C39.3754 62.3691 39.252 62.6672 39.252 62.978V72.353C39.252 72.6638 39.3754 72.9618 39.5952 73.1816C39.815 73.4014 40.113 73.5248 40.4238 73.5248H56.8301C57.1409 73.5248 57.4389 73.4014 57.6587 73.1816C57.8785 72.9618 58.002 72.6638 58.002 72.353V62.978C58.002 62.6672 57.8785 62.3691 57.6587 62.1493C57.4389 61.9296 57.1409 61.8061 56.8301 61.8061V59.228C56.8323 58.733 56.9376 58.2439 57.1394 57.792C57.3412 57.34 57.6349 56.9351 58.002 56.603L65.9238 49.56C66.7904 48.8018 67.4106 47.802 67.7051 46.6889L72.791 27.6694C72.8996 27.2722 72.9548 26.8624 72.9551 26.4506C72.9505 25.6236 72.7282 24.8124 72.3106 24.0986C71.893 23.3848 71.2948 22.7935 70.5762 22.3842ZM63.6152 21.353C63.7591 20.7469 64.126 20.2174 64.643 19.8699C65.1599 19.5223 65.7888 19.3824 66.4043 19.478C66.9296 19.588 67.4012 19.8749 67.7403 20.2908C68.0794 20.7068 68.2656 21.2265 68.2676 21.7631V21.7866C67.2208 21.806 66.209 22.1668 65.3862 22.8141C64.5633 23.4614 63.9744 24.3597 63.709 25.3725L60.4395 35.4623C59.9444 35.2275 59.4137 35.077 58.8691 35.017L63.6152 21.353ZM55.6582 71.1811H41.5957V64.1498H55.6582V71.1811ZM70.5293 27.06L65.4316 46.0912C65.2553 46.7526 64.8885 47.3475 64.3769 47.8022L56.4434 54.8451C55.8295 55.3988 55.3382 56.0747 55.0012 56.8295C54.6641 57.5843 54.4887 58.4013 54.4863 59.228V61.8061H42.7676V50.767C42.7734 49.3373 43.15 47.9335 43.8607 46.6928C44.5714 45.4522 45.5919 44.4172 46.8223 43.6889L57.1699 37.6303C57.4367 37.4749 57.7316 37.3737 58.0376 37.3325C58.3437 37.2914 58.6548 37.3112 58.9532 37.3907C59.2516 37.4701 59.5313 37.6078 59.7763 37.7958C60.0213 37.9837 60.2268 38.2182 60.3809 38.4858C60.6852 39.0273 60.7692 39.6652 60.6152 40.267C60.5338 40.5642 60.3946 40.8424 60.2056 41.0857C60.0166 41.329 59.7815 41.5326 59.5137 41.685L52.7988 45.5639C52.5438 45.726 52.3612 45.9805 52.2893 46.2741C52.2174 46.5676 52.2617 46.8776 52.4129 47.1393C52.5642 47.401 52.8107 47.5941 53.101 47.6783C53.3913 47.7625 53.7029 47.7313 53.9707 47.5912L60.6855 43.7123C61.2223 43.4078 61.6926 42.999 62.069 42.5099C62.4453 42.0209 62.7201 41.4615 62.877 40.8647C63.1959 39.6656 63.0274 38.3891 62.4082 37.3139L62.3379 37.2084L65.959 26.0405C66.1028 25.4344 66.4698 24.9049 66.9867 24.5574C67.5036 24.2098 68.1325 24.0699 68.748 24.1655C69.2733 24.2755 69.7449 24.5624 70.084 24.9783C70.4232 25.3943 70.6093 25.914 70.6113 26.4506C70.6153 26.6567 70.5876 26.8623 70.5293 27.06Z" fill="#599D2E"/>
<path d="M35.7363 61.8079V50.7689C35.7333 48.9304 35.2507 47.1245 34.3361 45.5297C33.4215 43.9349 32.1067 42.6063 30.5215 41.6751L20.1621 35.5931C20.0918 35.5579 20.0098 35.5345 19.9395 35.4993L14.8184 20.7454C14.5207 19.5581 13.7818 18.5287 12.7521 17.8669C11.7223 17.2051 10.4791 16.9605 9.27539 17.1829C8.22491 17.4074 7.28268 17.9841 6.60491 18.8174C5.92713 19.6508 5.55451 20.6908 5.54883 21.7649C5.54852 21.9725 5.56026 22.1799 5.58398 22.386C4.86535 22.7953 4.26715 23.3866 3.84955 24.1004C3.43195 24.8143 3.20968 25.6255 3.20508 26.4524C3.20735 26.8633 3.25849 27.2724 3.35742 27.6712L8.45508 46.679C8.74639 47.7968 9.36699 48.8012 10.2363 49.5618L18.1465 56.6048C18.5172 56.9346 18.8142 57.3388 19.0181 57.7911C19.2221 58.2434 19.3284 58.7336 19.3301 59.2298V61.8079C19.0193 61.8079 18.7212 61.9314 18.5014 62.1511C18.2817 62.3709 18.1582 62.669 18.1582 62.9798V72.3548C18.1582 72.6656 18.2817 72.9637 18.5014 73.1834C18.7212 73.4032 19.0193 73.5267 19.3301 73.5267H35.7363C36.0471 73.5267 36.3452 73.4032 36.565 73.1834C36.7847 72.9637 36.9082 72.6656 36.9082 72.3548V62.9798C36.9082 62.669 36.7847 62.3709 36.565 62.1511C36.3452 61.9314 36.0471 61.8079 35.7363 61.8079ZM7.89258 21.7649C7.89402 21.2299 8.07848 20.7115 8.41531 20.2958C8.75213 19.8801 9.22104 19.5921 9.74414 19.4798C10.3766 19.388 11.0203 19.5387 11.5463 19.9016C12.0722 20.2646 12.4415 20.813 12.5801 21.4368L17.291 35.0189C16.7464 35.0789 16.2157 35.2294 15.7207 35.4642L12.4746 25.4329C12.2104 24.4101 11.6204 23.5012 10.7936 22.8437C9.96693 22.1861 8.94856 21.8157 7.89258 21.7884V21.7649ZM19.7051 54.847L11.7832 47.804C11.2688 47.3469 10.9017 46.7473 10.7285 46.0814L5.61914 27.0618C5.57063 26.8624 5.54701 26.6577 5.54883 26.4524C5.55027 25.9174 5.73473 25.399 6.07155 24.9833C6.40838 24.5676 6.87729 24.2796 7.40039 24.1673C8.02836 24.073 8.66871 24.2201 9.19268 24.5788C9.71664 24.9375 10.0853 25.4814 10.2246 26.1009L13.8223 37.2103L13.752 37.3157C13.1327 38.3909 12.9642 39.6675 13.2832 40.8665C13.4401 41.4633 13.7148 42.0227 14.0912 42.5118C14.4675 43.0008 14.9379 43.4096 15.4746 43.7142L22.1895 47.5931C22.4573 47.7332 22.7689 47.7644 23.0592 47.6802C23.3494 47.596 23.596 47.4028 23.7472 47.1412C23.8985 46.8795 23.9428 46.5695 23.8709 46.2759C23.799 45.9823 23.6164 45.7279 23.3613 45.5657L16.6465 41.6868C16.3787 41.5345 16.1435 41.3308 15.9545 41.0875C15.7655 40.8442 15.6263 40.566 15.5449 40.2689C15.391 39.6671 15.4749 39.0291 15.7793 38.4876C15.9324 38.2206 16.1366 37.9864 16.3803 37.7983C16.6239 37.6102 16.9022 37.4719 17.1993 37.3914C17.4964 37.3109 17.8064 37.2897 18.1117 37.329C18.417 37.3682 18.7115 37.4673 18.9785 37.6204L29.3379 43.6907C30.5683 44.419 31.5887 45.454 32.2994 46.6947C33.0101 47.9353 33.3868 49.3391 33.3926 50.7689V61.8079H21.6738V59.2298C21.6718 58.402 21.4955 57.5838 21.1563 56.8287C20.8171 56.0735 20.3226 55.3983 19.7051 54.847ZM34.5645 71.1829H20.502V64.1517H34.5645V71.1829Z" fill="#599D2E"/>
<path d="M54.6591 6.88406C53.5712 5.79426 52.2791 4.92969 50.8567 4.33984C49.4343 3.74998 47.9095 3.44642 46.3696 3.44653C44.8298 3.44664 43.305 3.75042 41.8827 4.34047C40.4604 4.93053 39.1684 5.79528 38.0806 6.88523C36.993 5.79525 35.701 4.93049 34.2788 4.34046C32.8565 3.75044 31.3318 3.44673 29.792 3.44673C28.2521 3.44673 26.7274 3.75044 25.3052 4.34046C23.8829 4.93049 22.5909 5.79525 21.5033 6.88523C19.3099 9.08329 18.0781 12.0617 18.0781 15.1669C18.0781 18.2721 19.3099 21.2505 21.5033 23.4485L37.2533 39.1985C37.473 39.4182 37.7711 39.5416 38.0818 39.5416C38.3925 39.5416 38.6906 39.4182 38.9103 39.1985L54.6603 23.4485C56.8536 21.2501 58.0852 18.2714 58.085 15.166C58.0848 12.0607 56.8527 9.08217 54.6591 6.88406ZM38.0806 36.713L23.1591 21.7915C21.8491 20.4797 20.9575 18.809 20.5969 16.9905C20.2362 15.172 20.4229 13.2874 21.1331 11.575C21.8434 9.8626 23.0455 8.39921 24.5873 7.36984C26.1292 6.34047 27.9416 5.79134 29.7955 5.79187C31.027 5.78764 32.247 6.02866 33.3844 6.50088C34.5217 6.97309 35.5537 7.66704 36.4201 8.54226L37.2521 9.37429C37.4719 9.59399 37.7699 9.7174 38.0806 9.7174C38.3914 9.7174 38.6894 9.59399 38.9091 9.37429L39.7435 8.53992C40.6135 7.66834 41.6469 6.97688 42.7844 6.50509C43.9219 6.03331 45.1413 5.79047 46.3728 5.79047C47.6043 5.79047 48.8237 6.03331 49.9612 6.50509C51.0988 6.97688 52.1321 7.66834 53.0021 8.53992C54.7575 10.2977 55.7435 12.6803 55.7435 15.1645C55.7435 17.6487 54.7575 20.0314 53.0021 21.7891L38.0806 36.713Z" fill="#599D2E"/>
</svg>
