<svg width="76" height="76" viewBox="0 0 76 76" fill="none" xmlns="http://www.w3.org/2000/svg">
<g clip-path="url(#clip0_1_143)">
<path d="M74.1803 0.870361H74.1797H1.67969C0.989531 0.870205 0.429844 1.42958 0.429688 2.11974V2.12036V27.1204H2.92969V3.37036H72.9297V30.8704H29.1797V33.3704H74.1797C74.8698 33.3705 75.4295 32.8111 75.4297 32.121V32.1204V2.12036C75.4298 1.43021 74.8705 0.870518 74.1803 0.870361Z" fill="#599D2E"/>
<path d="M66.6797 7.12036H41.6797V9.62036H66.6797V7.12036Z" fill="#599D2E"/>
<path d="M70.4297 14.6204H45.4297V17.1204H70.4297V14.6204Z" fill="#599D2E"/>
<path d="M65.4297 22.1204H40.4297V24.6204H65.4297V22.1204Z" fill="#599D2E"/>
<path d="M40.33 11.6475C39.4742 9.59052 37.113 8.61677 35.0561 9.47255C35.0209 9.48724 34.9859 9.50224 34.9513 9.51786L24.8156 14.7757C25.2153 13.9472 25.4252 13.04 25.4297 12.1204C25.4297 8.66864 22.6314 5.87036 19.1797 5.87036C15.728 5.87036 12.9297 8.66864 12.9297 12.1204C12.9344 13.4771 13.3848 14.7947 14.2117 15.8704H14.1597C10.6116 15.8941 7.44422 18.0999 6.19156 21.4197L2.85469 32.9211C2.06031 34.9846 3.08906 37.3015 5.15266 38.0958C6.09359 38.458 7.13656 38.4519 8.07328 38.0786C9.14953 37.645 9.98703 36.7694 10.3725 35.675L11.6797 31.5149V49.606C10.6041 48.7793 9.28641 48.3288 7.92969 48.324C4.48312 48.3188 1.68484 51.1086 1.67969 54.5554C1.67719 56.2433 2.35844 57.8602 3.56828 59.0374C1.64828 60.0183 0.437188 61.9896 0.429688 64.1455V74.6204C0.429531 75.3105 0.988906 75.8702 1.67906 75.8704H1.67969H14.1797C14.8698 75.8705 15.4295 75.3111 15.4297 74.621V74.6204V64.1455C15.4236 62.3738 14.6005 60.7041 13.1991 59.6204H22.6605C21.2589 60.7041 20.4358 62.3738 20.4298 64.1455V74.6204C20.4297 75.3105 20.9891 75.8702 21.6792 75.8704H21.6798H34.1798C34.87 75.8705 35.4297 75.3111 35.4298 74.621V74.6204V64.1455C35.4223 61.9896 34.2113 60.0183 32.2913 59.0374C34.7592 56.6285 34.8072 52.6749 32.3983 50.2069C30.9148 48.6871 28.7606 48.0254 26.6798 48.4504V22.8796L38.155 16.9213C40.2119 16.0657 41.1856 13.7044 40.33 11.6475ZM19.1797 8.37036C21.2508 8.37036 22.9297 10.0493 22.9297 12.1204C22.9297 14.1915 21.2508 15.8704 19.1797 15.8704C17.1095 15.8682 15.4319 14.1905 15.4297 12.1204C15.4297 10.0493 17.1086 8.37036 19.1797 8.37036ZM7.92969 50.824C10.0008 50.824 11.6797 52.5029 11.6797 54.574C11.6797 56.6451 10.0008 58.324 7.92969 58.324C5.85859 58.324 4.17969 56.6451 4.17969 54.574C4.18187 52.5038 5.85953 50.8263 7.92969 50.824ZM12.9297 73.3704H2.92969V64.1455C2.93219 62.3375 4.39734 60.8725 6.20547 60.8704H9.65391C11.4619 60.8725 12.9272 62.3375 12.9297 64.1455V73.3704ZM32.9297 64.1455V73.3704H22.9297V64.1455C22.9322 62.3375 24.3973 60.8725 26.2055 60.8704H29.6539C31.462 60.8725 32.9272 62.3375 32.9297 64.1455ZM27.9297 50.824C29.9998 50.8261 31.6775 52.5038 31.6797 54.574C31.6797 56.6451 30.0008 58.324 27.9297 58.324C25.8586 58.324 24.1797 56.6451 24.1797 54.574C24.1797 52.5029 25.8586 50.824 27.9297 50.824ZM38.0427 13.7329C37.8753 14.1622 37.5317 14.4993 37.0991 14.6582L24.8542 21.0107C24.4398 21.2257 24.1797 21.6536 24.1797 22.1204V49.606C21.8383 51.3372 21.0272 54.4705 22.2347 57.1204H20.4297V35.8704H17.9297V57.1204H13.6247C13.9803 56.3344 14.1677 55.4829 14.175 54.6204H14.1797V23.3704C14.1795 22.6799 13.6197 22.1204 12.9294 22.1205C12.3836 22.1207 11.9009 22.4749 11.7372 22.9957L8.00469 34.873C7.72187 35.653 6.86016 36.0561 6.08016 35.7732C6.02547 35.7533 5.97188 35.7304 5.91969 35.7043C5.19859 35.3316 4.8925 34.4616 5.22156 33.7194L8.55828 22.218C9.45813 19.9071 11.6795 18.3811 14.1595 18.3704H23.0103C23.2106 18.3707 23.4081 18.3224 23.5859 18.23L36.0097 11.7811C36.755 11.4702 37.6141 11.7883 37.9769 12.5099C38.1692 12.8902 38.1931 13.334 38.0427 13.7329Z" fill="#599D2E"/>
<path d="M52.2911 59.0365C54.7634 56.6277 54.815 52.6707 52.4062 50.1983C49.9975 47.726 46.0405 47.6744 43.5681 50.0832C41.0958 52.4919 41.0442 56.449 43.453 58.9213C43.4909 58.9602 43.5294 58.9987 43.5683 59.0365C41.6484 60.0174 40.4372 61.9887 40.4297 64.1446V74.6194C40.4295 75.3096 40.9889 75.8693 41.6791 75.8694C41.6792 75.8694 41.6795 75.8694 41.6797 75.8694H54.1797C54.8698 75.8696 55.4295 75.3102 55.4297 74.6201C55.4297 74.6199 55.4297 74.6196 55.4297 74.6194V64.1446C55.4222 61.9887 54.2111 60.0174 52.2911 59.0365ZM47.9297 50.823C50.0008 50.823 51.6797 52.5019 51.6797 54.573C51.6797 56.6441 50.0008 58.323 47.9297 58.323C45.8586 58.323 44.1797 56.6441 44.1797 54.573C44.1819 52.5029 45.8595 50.8254 47.9297 50.823ZM52.9297 73.3694H42.9297V64.1446C42.9322 62.3366 44.3973 60.8716 46.2055 60.8694H49.6539C51.4619 60.8716 52.9272 62.3366 52.9297 64.1446V73.3694Z" fill="#599D2E"/>
<path d="M72.2911 59.0365C74.7634 56.6277 74.815 52.6707 72.4062 50.1983C69.9975 47.726 66.0405 47.6744 63.5681 50.0832C61.0958 52.4919 61.0442 56.449 63.453 58.9213C63.4909 58.9602 63.5294 58.9987 63.5683 59.0365C61.6484 60.0174 60.4372 61.9887 60.4297 64.1446V74.6194C60.4295 75.3096 60.9889 75.8693 61.6791 75.8694C61.6792 75.8694 61.6795 75.8694 61.6797 75.8694H74.1797C74.8698 75.8696 75.4295 75.3102 75.4297 74.6201C75.4297 74.6199 75.4297 74.6196 75.4297 74.6194V64.1446C75.4222 61.9887 74.2111 60.0174 72.2911 59.0365ZM67.9297 50.823C70.0008 50.823 71.6797 52.5019 71.6797 54.573C71.6797 56.6441 70.0008 58.323 67.9297 58.323C65.8586 58.323 64.1797 56.6441 64.1797 54.573C64.1819 52.5029 65.8595 50.8254 67.9297 50.823ZM72.9297 73.3694H62.9297V64.1446C62.9322 62.3366 64.3973 60.8716 66.2055 60.8694H69.6539C71.4619 60.8716 72.9272 62.3366 72.9297 64.1446V73.3694Z" fill="#599D2E"/>
</g>
<defs>
<clipPath id="clip0_1_143">
<rect width="75" height="75" fill="white" transform="translate(0.429688 0.870361)"/>
</clipPath>
</defs>
</svg>
