<svg width="76" height="76" viewBox="0 0 76 76" fill="none" xmlns="http://www.w3.org/2000/svg">
<g clip-path="url(#clip0_1_171)">
<path d="M45.0372 63.7727C43.0364 63.7727 41.4082 65.4009 41.4082 67.4017C41.4082 69.4025 43.0364 71.0308 45.0372 71.0308C47.038 71.0308 48.6663 69.4025 48.6663 67.4017C48.6663 65.4009 47.038 63.7727 45.0372 63.7727ZM45.0372 68.6114C44.3707 68.6114 43.8276 68.0695 43.8276 67.4017C43.8276 66.734 44.3707 66.1921 45.0372 66.1921C45.7038 66.1921 46.2469 66.734 46.2469 67.4017C46.2469 68.0695 45.7038 68.6114 45.0372 68.6114Z" fill="#599D2E"/>
<path d="M16.006 63.7727C14.0052 63.7727 12.377 65.4009 12.377 67.4017C12.377 69.4025 14.0052 71.0308 16.006 71.0308C18.0068 71.0308 19.635 69.4025 19.635 67.4017C19.635 65.4009 18.0068 63.7727 16.006 63.7727ZM16.006 68.6114C15.3395 68.6114 14.7963 68.0695 14.7963 67.4017C14.7963 66.734 15.3395 66.1921 16.006 66.1921C16.6725 66.1921 17.2157 66.734 17.2157 67.4017C17.2157 68.0695 16.6725 68.6114 16.006 68.6114Z" fill="#599D2E"/>
<path d="M18.424 20.2261C20.4248 20.2261 22.053 18.5979 22.053 16.597C22.053 14.5962 20.4248 12.968 18.424 12.968C16.4231 12.968 14.7949 14.5962 14.7949 16.597C14.7949 18.5979 16.4231 20.2261 18.424 20.2261ZM18.424 15.3874C19.0905 15.3874 19.6336 15.9293 19.6336 16.597C19.6336 17.2648 19.0905 17.8067 18.424 17.8067C17.7574 17.8067 17.2143 17.2648 17.2143 16.597C17.2143 15.9293 17.7574 15.3874 18.424 15.3874Z" fill="#599D2E"/>
<path d="M66.8126 44.4192C64.8118 44.4192 63.1836 46.0474 63.1836 48.0482C63.1836 50.049 64.8118 51.6773 66.8126 51.6773C68.8134 51.6773 70.4417 50.049 70.4417 48.0482C70.4417 46.0474 68.8134 44.4192 66.8126 44.4192ZM66.8126 49.2579C66.1461 49.2579 65.6029 48.716 65.6029 48.0482C65.6029 47.3805 66.1461 46.8385 66.8126 46.8385C67.4792 46.8385 68.0223 47.3805 68.0223 48.0482C68.0223 48.716 67.4792 49.2579 66.8126 49.2579Z" fill="#599D2E"/>
<path d="M67.968 39.6684C67.9862 39.2353 68.0212 38.8022 68.0212 38.3704C68.0212 32.8567 66.5164 27.4966 63.6906 22.8018C64.9281 20.6244 65.6019 18.1409 65.6019 15.6236V15.3865C65.6019 7.38205 59.0902 0.870361 51.0858 0.870361C45.7172 0.870361 41.0297 3.80746 38.5184 8.15262C33.8285 8.04496 29.0672 9.04536 24.8164 11.0595C23.262 9.26794 20.9757 8.12843 18.4245 8.12843C13.7551 8.12843 9.95672 11.928 9.95672 16.5962C9.95672 18.4179 10.5591 20.2216 11.6503 21.6756L12.1511 22.3433C9.35551 26.8058 7.79018 31.8853 7.58212 37.1607H5.11801C3.78373 37.1607 2.69865 38.2458 2.69865 39.58V63.7736C1.36438 63.7736 0.279297 64.8587 0.279297 66.1929V68.6123C0.279297 69.9466 1.36438 71.0317 2.69865 71.0317H8.36599C9.72809 73.8877 12.6362 75.8704 16.0051 75.8704C19.3741 75.8704 22.2821 73.8877 23.6442 71.0317H37.3983C38.7603 73.8877 41.6684 75.8704 45.0374 75.8704C48.4063 75.8704 51.3144 73.8877 52.6765 71.0317H55.9245C57.2587 71.0317 58.3438 69.9466 58.3438 68.6123V65.2808C58.3438 64.9857 58.3075 64.6905 58.2362 64.4002L57.462 61.3034C59.2644 59.7563 60.872 58.0119 62.262 56.0933L66.8116 62.1611L73.5857 53.1284C74.6781 51.6732 75.2793 49.8683 75.2793 48.0478C75.2793 43.7728 72.0906 40.2357 67.968 39.6684ZM51.0858 3.28972C57.7559 3.28972 63.1825 8.71633 63.1825 15.3865V15.6224C63.1825 18.32 62.2644 20.9752 60.5974 23.0958L51.0858 35.2034L41.5741 23.0958C39.9071 20.9752 38.989 18.3212 38.989 15.6224V15.3865C38.989 8.71633 44.4156 3.28972 51.0858 3.28972ZM18.4245 10.5478C21.7595 10.5478 24.4728 13.2611 24.4728 16.5962C24.4728 17.8966 24.0434 19.1861 23.2632 20.224L18.4245 26.6764L13.5857 20.224C12.8055 19.1861 12.3761 17.8966 12.3761 16.5962C12.3761 13.2611 15.0894 10.5478 18.4245 10.5478ZM5.11801 39.58H14.7954V48.7954L20.8438 45.7712L26.8922 48.7954V39.58H36.5696V63.7736H23.6442C22.2821 60.9175 19.3741 58.9349 16.0051 58.9349C12.6362 58.9349 9.72809 60.9175 8.36599 63.7736H5.11801V39.58ZM17.2148 39.58H24.4728V44.8808L20.8438 43.0663L17.2148 44.8808V39.58ZM38.989 46.8381H50.4059C50.9612 46.8381 51.445 47.2155 51.5793 47.7538L51.9555 49.2575H46.247C44.9128 49.2575 43.8277 50.3425 43.8277 51.6768V54.0962C43.8277 55.4304 44.9128 56.5155 46.247 56.5155H53.77L55.5845 63.7736H52.6765C51.3144 60.9175 48.4063 58.9349 45.0374 58.9349C42.6688 58.9349 40.5277 59.9147 38.989 61.4885V46.8381ZM53.1652 54.0962H46.247V51.6768H52.5603L53.1652 54.0962ZM2.69865 68.6123V66.1929H7.63414C7.57728 66.5897 7.53736 66.9913 7.53736 67.4026C7.53736 67.8139 7.57728 68.2155 7.63414 68.6123H2.69865ZM16.0051 73.451C12.67 73.451 9.95672 70.7377 9.95672 67.4026C9.95672 64.0675 12.67 61.3542 16.0051 61.3542C19.3402 61.3542 22.0535 64.0675 22.0535 67.4026C22.0535 70.7377 19.3402 73.451 16.0051 73.451ZM24.3761 68.6123C24.4329 68.2155 24.4728 67.8139 24.4728 67.4026C24.4728 66.9913 24.4329 66.5897 24.3761 66.1929H36.6664C36.6095 66.5897 36.5696 66.9913 36.5696 67.4026C36.5696 67.8139 36.6095 68.2155 36.6664 68.6123H24.3761ZM45.0374 73.451C41.7023 73.451 38.989 70.7377 38.989 67.4026C38.989 64.0675 41.7023 61.3542 45.0374 61.3542C48.3724 61.3542 51.0858 64.0675 51.0858 67.4026C51.0858 70.7377 48.3724 73.451 45.0374 73.451ZM53.4083 68.6123C53.4652 68.2155 53.5051 67.8139 53.5051 67.4026C53.5051 66.9913 53.4652 66.5897 53.4083 66.1929H55.9245V68.6123H53.4083ZM56.8015 58.6627L53.9273 47.1671C53.522 45.5498 52.0741 44.4188 50.4059 44.4188H38.989V39.58C38.989 38.2458 37.9039 37.1607 36.5696 37.1607H10.0003C10.1938 32.6534 11.4567 28.3034 13.7103 24.424L18.4245 30.7095L25.1987 21.6768C26.291 20.2216 26.8922 18.4167 26.8922 16.5962C26.8922 15.3514 26.6152 14.172 26.1301 13.1062C29.6745 11.4647 33.4607 10.6083 37.4116 10.5587C36.8769 12.072 36.5696 13.6917 36.5696 15.3865V15.6224C36.5696 18.8607 37.6716 22.047 39.6712 24.5909L51.0858 39.1179L62.1785 24.9998C64.42 29.0837 65.6019 33.6683 65.6019 38.3704C65.6019 38.8071 65.568 39.2462 65.5487 39.6853C61.4781 40.2986 58.3438 43.8091 58.3438 48.0478C58.3438 49.8696 58.9462 51.6732 60.0374 53.1272L60.7353 54.0587C59.5898 55.7317 58.2797 57.2776 56.8015 58.6627ZM71.6503 51.6756L66.8116 58.128L61.9728 51.6756C61.1926 50.6377 60.7632 49.3482 60.7632 48.0478C60.7632 44.7127 63.4765 41.9994 66.8116 41.9994C70.1466 41.9994 72.8599 44.7127 72.8599 48.0478C72.8599 49.3482 72.4305 50.6377 71.6503 51.6756Z" fill="#599D2E"/>
<path d="M51.0856 25.0631C56.4215 25.0631 60.763 20.7216 60.763 15.3857C60.763 10.0498 56.4215 5.70825 51.0856 5.70825C45.7497 5.70825 41.4082 10.0498 41.4082 15.3857C41.4082 20.7216 45.7497 25.0631 51.0856 25.0631ZM51.0856 8.12761C55.0884 8.12761 58.3437 11.3828 58.3437 15.3857C58.3437 19.3885 55.0884 22.6437 51.0856 22.6437C47.0828 22.6437 43.8276 19.3885 43.8276 15.3857C43.8276 11.3828 47.0828 8.12761 51.0856 8.12761Z" fill="#599D2E"/>
<path d="M29.3125 32.3215H31.7319V34.7409H29.3125V32.3215Z" fill="#599D2E"/>
<path d="M34.1504 32.3215H36.5697V34.7409H34.1504V32.3215Z" fill="#599D2E"/>
<path d="M38.9883 32.3215H41.4076V34.7409H38.9883V32.3215Z" fill="#599D2E"/>
</g>
<defs>
<clipPath id="clip0_1_171">
<rect width="75" height="75" fill="white" transform="translate(0.279297 0.870361)"/>
</clipPath>
</defs>
</svg>
