<svg width="51" height="51" viewBox="0 0 51 51" fill="none" xmlns="http://www.w3.org/2000/svg">
<path d="M44.6719 27.4238C44.6719 38.166 35.8828 46.9551 25.1406 46.9551C14.3984 46.9551 5.60938 38.166 5.60938 27.4238C5.60938 16.6816 14.3984 7.89258 25.1406 7.89258C35.8828 7.89258 44.6719 16.6816 44.6719 27.4238Z" fill="#006BFF"/>
<path d="M31.0977 24.9141C31.0977 24.9141 29.4082 30.207 29.2812 30.6562C29.2324 30.207 28.002 20.6953 28.002 20.6953C25.1211 20.6953 23.5879 22.7363 22.7773 24.9141C22.7773 24.9141 20.7266 30.2266 20.5605 30.6758C20.5508 30.2559 20.248 24.9727 20.248 24.9727C20.0723 22.3164 17.6504 20.7051 15.6875 20.7051L18.0508 35.1191C21.0684 35.1094 22.6895 33.0684 23.5391 30.9004C23.5391 30.9004 25.3457 26.2129 25.4238 25.998C25.4434 26.2031 26.7227 35.1191 26.7227 35.1191C29.7402 35.1191 31.3711 33.2051 32.25 31.1152L36.4687 20.6953C33.4805 20.6953 31.9082 22.7363 31.0977 24.9141Z" fill="white"/>
</svg>
