<svg width="27" height="26" viewBox="0 0 27 26" fill="none" xmlns="http://www.w3.org/2000/svg">
<path fill-rule="evenodd" clip-rule="evenodd" d="M13.082 26C20.2617 26 26.082 20.1797 26.082 13C26.082 5.8203 20.2617 0 13.082 0C5.90233 0 0.0820312 5.8203 0.0820312 13C0.0820312 20.1797 5.90233 26 13.082 26ZM7.72159 19.3116C8.56021 19.3116 9.24006 18.6318 9.24006 17.7932V11.0673C9.24006 10.2287 8.56021 9.54883 7.72159 9.54883C6.88297 9.54883 6.20312 10.2287 6.20312 11.0673V17.7932C6.20312 18.6318 6.88297 19.3116 7.72159 19.3116ZM7.69061 8.15333C6.71158 8.15333 5.91992 7.36033 5.91992 6.38426C5.91992 5.40818 6.71261 4.61621 7.69061 4.61621C8.66654 4.61621 9.46026 5.40921 9.46026 6.38426C9.46026 7.36033 8.66654 8.15333 7.69061 8.15333ZM19.0982 19.3122C19.9363 19.3122 20.6156 18.6328 20.6156 17.7948V13.9577C20.6156 11.3287 20.0474 9.30664 16.9723 9.30664C15.5037 9.30664 14.5164 10.1066 14.1063 10.8698C14.1018 10.8782 14.0931 10.8834 14.0836 10.8834C14.0694 10.8834 14.0579 10.8719 14.0579 10.8577V10.2164C14.0579 9.848 13.7593 9.54937 13.3909 9.54937H12.6012C11.7967 9.54937 11.1445 10.2016 11.1445 11.0061V17.7948C11.1445 18.6328 11.8239 19.3122 12.662 19.3122C13.5 19.3122 14.1794 18.6328 14.1794 17.7948V14.4822C14.1794 13.2089 14.4224 11.9757 16.0026 11.9757C17.5602 11.9757 17.5808 13.4321 17.5808 14.5645V17.7948C17.5808 18.6328 18.2601 19.3122 19.0982 19.3122Z" fill="#599D2E"/>
</svg>
