<svg width="105" height="33" viewBox="0 0 105 33" fill="none" xmlns="http://www.w3.org/2000/svg">
<g clip-path="url(#clip0_1_246)">
<path fill-rule="evenodd" clip-rule="evenodd" d="M25.9634 11.9532V26.6559H31.1529V31.8451H25.9634C23.1094 31.8451 20.7744 29.51 20.7744 26.6559H20.3418C18.7852 29.6397 15.9312 31.8451 12.5581 32.4938C11.8662 32.6235 11.1309 32.71 10.396 32.71C4.64453 32.71 0.0175781 28.083 0.0175781 22.3316C0.0175781 16.5803 4.64453 11.9532 10.396 11.9532V5.89917H5.20654C2.35254 5.89917 0.0175781 3.56402 0.0175781 0.709961H9.09863C9.09863 4.29913 11.9961 7.19647 15.585 7.19647V11.9532H20.7744V5.89917H15.585C12.731 5.89917 10.396 3.56402 10.396 0.709961H20.7744C23.6284 0.709961 25.9634 3.0451 25.9634 5.89917V11.9532ZM15.1529 16.71H20.3423V20.0324C19.8775 19.3331 19.0825 18.8722 18.1802 18.8722C16.7471 18.8722 15.5855 20.0338 15.5855 21.4668C15.5855 22.8997 16.7471 24.0614 18.1802 24.0614C18.9981 24.0614 19.7276 23.6827 20.2031 23.091C19.6612 25.3756 17.5977 27.0884 15.1529 27.0884C12.2988 27.0884 9.96387 24.7532 9.96387 21.8992C9.96387 19.0451 12.2988 16.71 15.1529 16.71ZM31.1529 0.709961H37.2071L40.2339 26.9154H40.7959L45.4234 0.709961H52.688L57.272 26.9154H57.834L60.9043 0.709961H66.6988L62.3311 31.8451H53.3799L49.2285 7.67212H48.6665L44.4287 31.8451H35.4771L31.1529 0.709961ZM68.2554 0.709961H74.3096L77.3364 26.9154H77.8985L82.5259 0.709961H89.7905L94.3745 26.9154H94.9365L98.0069 0.709961H103.802L99.4336 31.8451H90.4824L86.3311 7.67212H85.7691L81.5313 31.8451H72.5796L68.2554 0.709961Z" fill="white"/>
<g clip-path="url(#clip1_1_246)">
<path fill-rule="evenodd" clip-rule="evenodd" d="M25.9634 11.9532V26.6559H31.1529V31.8451H25.9634C23.1094 31.8451 20.7744 29.51 20.7744 26.6559H20.3418C18.7852 29.6397 15.9312 31.8451 12.5581 32.4938C11.8662 32.6235 11.1309 32.71 10.396 32.71C4.64453 32.71 0.0175781 28.083 0.0175781 22.3316C0.0175781 16.5803 4.64453 11.9532 10.396 11.9532V5.89917H5.20654C2.35254 5.89917 0.0175781 3.56402 0.0175781 0.709961H9.09863C9.09863 4.29913 11.9961 7.19647 15.585 7.19647V11.9532H20.7744V5.89917H15.585C12.731 5.89917 10.396 3.56402 10.396 0.709961H20.7744C23.6284 0.709961 25.9634 3.0451 25.9634 5.89917V11.9532ZM15.1529 16.71H20.3423V20.0324C19.8775 19.3331 19.0825 18.8722 18.1802 18.8722C16.7471 18.8722 15.5855 20.0338 15.5855 21.4668C15.5855 22.8997 16.7471 24.0614 18.1802 24.0614C18.9981 24.0614 19.7276 23.6827 20.2031 23.091C19.6612 25.3756 17.5977 27.0884 15.1529 27.0884C12.2988 27.0884 9.96387 24.7532 9.96387 21.8992C9.96387 19.0451 12.2988 16.71 15.1529 16.71ZM31.1529 0.709961H37.2071L40.2339 26.9154H40.7959L45.4234 0.709961H52.688L57.272 26.9154H57.834L60.9043 0.709961H66.6988L62.3311 31.8451H53.3799L49.2285 7.67212H48.6665L44.4287 31.8451H35.4771L31.1529 0.709961ZM68.2554 0.709961H74.3096L77.3364 26.9154H77.8985L82.5259 0.709961H89.7905L94.3745 26.9154H94.9365L98.0069 0.709961H103.802L99.4336 31.8451H90.4824L86.3311 7.67212H85.7691L81.5313 31.8451H72.5796L68.2554 0.709961Z" fill="white"/>
<path fill-rule="evenodd" clip-rule="evenodd" d="M25.9634 11.9532V26.6559H31.1529V31.8451H25.9634C23.1094 31.8451 20.7744 29.51 20.7744 26.6559H20.3418C18.7852 29.6397 15.9312 31.8451 12.5581 32.4938C11.8662 32.6235 11.1309 32.71 10.396 32.71C4.64453 32.71 0.0175781 28.083 0.0175781 22.3316C0.0175781 16.5803 4.64453 11.9532 10.396 11.9532V5.89917H5.20654C2.35254 5.89917 0.0175781 3.56402 0.0175781 0.709961H9.09863C9.09863 4.29913 11.9961 7.19647 15.585 7.19647V11.9532H20.7744V5.89917H15.585C12.731 5.89917 10.396 3.56402 10.396 0.709961H20.7744C23.6284 0.709961 25.9634 3.0451 25.9634 5.89917V11.9532ZM15.1529 16.71H20.3423V20.0324C19.8775 19.3331 19.0825 18.8722 18.1802 18.8722C16.7471 18.8722 15.5855 20.0338 15.5855 21.4668C15.5855 22.8997 16.7471 24.0614 18.1802 24.0614C18.9981 24.0614 19.7276 23.6827 20.2031 23.091C19.6612 25.3756 17.5977 27.0884 15.1529 27.0884C12.2988 27.0884 9.96387 24.7532 9.96387 21.8992C9.96387 19.0451 12.2988 16.71 15.1529 16.71ZM31.1529 0.709961H37.2071L40.2339 26.9154H40.7959L45.4234 0.709961H52.688L57.272 26.9154H57.834L60.9043 0.709961H66.6988L62.3311 31.8451H53.3799L49.2285 7.67212H48.6665L44.4287 31.8451H35.4771L31.1529 0.709961ZM68.2554 0.709961H74.3096L77.3364 26.9154H77.8985L82.5259 0.709961H89.7905L94.3745 26.9154H94.9365L98.0069 0.709961H103.802L99.4336 31.8451H90.4824L86.3311 7.67212H85.7691L81.5313 31.8451H72.5796L68.2554 0.709961Z" fill="white"/>
</g>
</g>
<g clip-path="url(#clip2_1_246)">
<path fill-rule="evenodd" clip-rule="evenodd" d="M25.9634 11.9532V26.6559H31.1529V31.8451H25.9634C23.1094 31.8451 20.7744 29.51 20.7744 26.6559H20.3418C18.7852 29.6397 15.9312 31.8451 12.5581 32.4938C11.8662 32.6235 11.1309 32.71 10.396 32.71C4.64453 32.71 0.0175781 28.083 0.0175781 22.3316C0.0175781 16.5803 4.64453 11.9532 10.396 11.9532V5.89917H5.20654C2.35254 5.89917 0.0175781 3.56402 0.0175781 0.709961H9.09863C9.09863 4.29913 11.9961 7.19647 15.585 7.19647V11.9532H20.7744V5.89917H15.585C12.731 5.89917 10.396 3.56402 10.396 0.709961H20.7744C23.6284 0.709961 25.9634 3.0451 25.9634 5.89917V11.9532ZM15.1529 16.71H20.3423V20.0324C19.8775 19.3331 19.0825 18.8722 18.1802 18.8722C16.7471 18.8722 15.5855 20.0338 15.5855 21.4668C15.5855 22.8997 16.7471 24.0614 18.1802 24.0614C18.9981 24.0614 19.7276 23.6827 20.2031 23.091C19.6612 25.3756 17.5977 27.0884 15.1529 27.0884C12.2988 27.0884 9.96387 24.7532 9.96387 21.8992C9.96387 19.0451 12.2988 16.71 15.1529 16.71ZM31.1529 0.709961H37.2071L40.2339 26.9154H40.7959L45.4234 0.709961H52.688L57.272 26.9154H57.834L60.9043 0.709961H66.6988L62.3311 31.8451H53.3799L49.2285 7.67212H48.6665L44.4287 31.8451H35.4771L31.1529 0.709961ZM68.2554 0.709961H74.3096L77.3364 26.9154H77.8985L82.5259 0.709961H89.7905L94.3745 26.9154H94.9365L98.0069 0.709961H103.802L99.4336 31.8451H90.4824L86.3311 7.67212H85.7691L81.5313 31.8451H72.5796L68.2554 0.709961Z" fill="#599D2E"/>
</g>
<defs>
<clipPath id="clip0_1_246">
<rect width="104" height="32" fill="white" transform="translate(0.0175781 0.709961)"/>
</clipPath>
<clipPath id="clip1_1_246">
<rect width="73" height="32" fill="white" transform="translate(31.0176 0.709961)"/>
</clipPath>
<clipPath id="clip2_1_246">
<rect width="31" height="32" fill="white" transform="translate(0.0175781 0.709961)"/>
</clipPath>
</defs>
</svg>
