<?xml version="1.0" encoding="utf-8"?><svg viewBox="0 0 105 33" xmlns="http://www.w3.org/2000/svg" xmlns:xlink="http://www.w3.org/1999/xlink"><style>:root>svg{display:none}:root>svg:target{display:block}</style><svg viewBox="0 0 9 14" id="arrow-down" xmlns="http://www.w3.org/2000/svg"><path d="M4.283 13.155a.5.5 0 00.707 0l3.182-3.182a.5.5 0 00-.707-.707l-2.828 2.828-2.829-2.828a.5.5 0 00-.707.707l3.182 3.182zM4.137.95v11.852h1V.95h-1z"/></svg><svg viewBox="0 0 27 26" id="fb-icon" xmlns="http://www.w3.org/2000/svg"><g clip-path="url(#ba)"><path d="M13.082 26c7.18 0 13-5.82 13-13s-5.82-13-13-13-13 5.82-13 13 5.82 13 13 13z"/><path d="M15.856 12.987h-1.773v6.46h-2.688v-6.46h-1.278v-2.27h1.278v-1.47c0-1.05.502-2.695 2.712-2.695l1.99.008v2.204h-1.444c-.237 0-.57.118-.57.619v1.336h2.008l-.235 2.268z"/></g><defs><clipPath id="ba"><path transform="translate(.082)" d="M0 0h26v26H0z"/></clipPath></defs></svg><svg viewBox="0 0 25 26" id="link-down" xmlns="http://www.w3.org/2000/svg"><circle cx="12.636" cy="12.876" r="11.712" transform="rotate(90 12.636 12.876)"/><path d="M12.283 19.155a.5.5 0 00.707 0l3.182-3.182a.5.5 0 00-.707-.707l-2.828 2.828-2.829-2.828a.5.5 0 10-.707.707l3.182 3.182zM12.137 6.95v11.852h1V6.95h-1z"/></svg><svg viewBox="0 0 27 26" id="linkedin-icon" xmlns="http://www.w3.org/2000/svg"><circle cx="13.082" cy="13" r="10.732"/><path fill-rule="evenodd" clip-rule="evenodd" d="M13.082 26c7.18 0 13-5.82 13-13s-5.82-13-13-13-13 5.82-13 13 5.82 13 13 13zm-5.36-6.688c.838 0 1.518-.68 1.518-1.519v-6.726a1.518 1.518 0 00-3.037 0v6.726c0 .839.68 1.519 1.519 1.519zM7.69 8.153a1.77 1.77 0 11-.002-3.54 1.77 1.77 0 01.002 3.54zm11.407 11.16c.838 0 1.518-.68 1.518-1.518v-3.837c0-2.63-.569-4.651-3.644-4.651-1.468 0-2.456.8-2.866 1.563a.026.026 0 01-.048-.012v-.642a.667.667 0 00-.667-.667h-.79c-.804 0-1.457.653-1.457 1.457v6.789a1.517 1.517 0 003.035 0v-3.313c0-1.273.243-2.506 1.824-2.506 1.557 0 1.578 1.456 1.578 2.588v3.23c0 .839.68 1.518 1.517 1.518z"/></svg><svg viewBox="0 0 105 33" id="logo" xmlns="http://www.w3.org/2000/svg"><g clip-path="url(#ea)" fill-rule="evenodd" clip-rule="evenodd"><path d="M25.963 11.953v14.703h5.19v5.19h-5.19c-2.854 0-5.189-2.336-5.189-5.19h-.432c-1.557 2.984-4.41 5.19-7.784 5.838a11.8 11.8 0 01-2.162.216A10.353 10.353 0 01.018 22.332a10.353 10.353 0 0110.378-10.379V5.9h-5.19C2.354 5.9.019 3.564.019.71h9.08a6.478 6.478 0 006.487 6.486v4.757h5.19V5.9h-5.19c-2.854 0-5.189-2.335-5.189-5.189h10.378c2.854 0 5.19 2.335 5.19 5.19v6.053zm-10.81 4.757h5.19v3.322a2.595 2.595 0 10-.14 3.059c-.542 2.285-2.605 3.997-5.05 3.997-2.854 0-5.19-2.335-5.19-5.189s2.336-5.189 5.19-5.189zm16-16h6.054l3.027 26.205h.562L45.423.71h7.265l4.584 26.205h.562L60.904.71H66.7l-4.37 31.135h-8.95L49.228 7.672h-.562L44.43 31.845h-8.952L31.153.71zm37.102 0h6.055l3.026 26.205h.563L82.525.71h7.264l4.584 26.205h.563L98.006.71h5.795l-4.368 31.135h-8.952l-4.15-24.173h-.563L81.53 31.845h-8.95L68.255.71z"/><g clip-path="url(#eb)"><path d="M25.963 11.953v14.703h5.19v5.19h-5.19c-2.854 0-5.189-2.336-5.189-5.19h-.432c-1.557 2.984-4.41 5.19-7.784 5.838a11.8 11.8 0 01-2.162.216A10.353 10.353 0 01.018 22.332a10.353 10.353 0 0110.378-10.379V5.9h-5.19C2.354 5.9.019 3.564.019.71h9.08a6.478 6.478 0 006.487 6.486v4.757h5.19V5.9h-5.19c-2.854 0-5.189-2.335-5.189-5.189h10.378c2.854 0 5.19 2.335 5.19 5.19v6.053zm-10.81 4.757h5.19v3.322a2.595 2.595 0 10-.14 3.059c-.542 2.285-2.605 3.997-5.05 3.997-2.854 0-5.19-2.335-5.19-5.189s2.336-5.189 5.19-5.189zm16-16h6.054l3.027 26.205h.562L45.423.71h7.265l4.584 26.205h.562L60.904.71H66.7l-4.37 31.135h-8.95L49.228 7.672h-.562L44.43 31.845h-8.952L31.153.71zm37.102 0h6.055l3.026 26.205h.563L82.525.71h7.264l4.584 26.205h.563L98.006.71h5.795l-4.368 31.135h-8.952l-4.15-24.173h-.563L81.53 31.845h-8.95L68.255.71z"/><path d="M25.963 11.953v14.703h5.19v5.19h-5.19c-2.854 0-5.189-2.336-5.189-5.19h-.432c-1.557 2.984-4.41 5.19-7.784 5.838a11.8 11.8 0 01-2.162.216A10.353 10.353 0 01.018 22.332a10.353 10.353 0 0110.378-10.379V5.9h-5.19C2.354 5.9.019 3.564.019.71h9.08a6.478 6.478 0 006.487 6.486v4.757h5.19V5.9h-5.19c-2.854 0-5.189-2.335-5.189-5.189h10.378c2.854 0 5.19 2.335 5.19 5.19v6.053zm-10.81 4.757h5.19v3.322a2.595 2.595 0 10-.14 3.059c-.542 2.285-2.605 3.997-5.05 3.997-2.854 0-5.19-2.335-5.19-5.189s2.336-5.189 5.19-5.189zm16-16h6.054l3.027 26.205h.562L45.423.71h7.265l4.584 26.205h.562L60.904.71H66.7l-4.37 31.135h-8.95L49.228 7.672h-.562L44.43 31.845h-8.952L31.153.71zm37.102 0h6.055l3.026 26.205h.563L82.525.71h7.264l4.584 26.205h.563L98.006.71h5.795l-4.368 31.135h-8.952l-4.15-24.173h-.563L81.53 31.845h-8.95L68.255.71z"/></g></g><g clip-path="url(#ec)"><path fill-rule="evenodd" clip-rule="evenodd" d="M25.963 11.953v14.703h5.19v5.19h-5.19c-2.854 0-5.189-2.336-5.189-5.19h-.432c-1.557 2.984-4.41 5.19-7.784 5.838a11.8 11.8 0 01-2.162.216A10.353 10.353 0 01.018 22.332a10.353 10.353 0 0110.378-10.379V5.9h-5.19C2.354 5.9.019 3.564.019.71h9.08a6.478 6.478 0 006.487 6.486v4.757h5.19V5.9h-5.19c-2.854 0-5.189-2.335-5.189-5.189h10.378c2.854 0 5.19 2.335 5.19 5.19v6.053zm-10.81 4.757h5.19v3.322a2.595 2.595 0 10-.14 3.059c-.542 2.285-2.605 3.997-5.05 3.997-2.854 0-5.19-2.335-5.19-5.189s2.336-5.189 5.19-5.189zm16-16h6.054l3.027 26.205h.562L45.423.71h7.265l4.584 26.205h.562L60.904.71H66.7l-4.37 31.135h-8.95L49.228 7.672h-.562L44.43 31.845h-8.952L31.153.71zm37.102 0h6.055l3.026 26.205h.563L82.525.71h7.264l4.584 26.205h.563L98.006.71h5.795l-4.368 31.135h-8.952l-4.15-24.173h-.563L81.53 31.845h-8.95L68.255.71z"/></g><defs><clipPath id="ea"><path transform="translate(.018 .71)" d="M0 0h104v32H0z"/></clipPath><clipPath id="eb"><path transform="translate(31.018 .71)" d="M0 0h73v32H0z"/></clipPath><clipPath id="ec"><path transform="translate(.018 .71)" d="M0 0h31v32H0z"/></clipPath></defs></svg><svg viewBox="0 0 15 15" id="star-icon" xmlns="http://www.w3.org/2000/svg"><path d="M6.823 1.45c.3-.922 1.603-.922 1.902 0l1 3.076a1 1 0 00.951.69h3.235c.969 0 1.372 1.24.588 1.81l-2.617 1.901a1 1 0 00-.364 1.118l1 3.077c.3.921-.755 1.687-1.539 1.118l-2.617-1.902a1 1 0 00-1.175 0L4.57 14.24c-.784.57-1.839-.197-1.54-1.118l1-3.077a1 1 0 00-.363-1.118L1.05 7.026c-.784-.57-.38-1.81.588-1.81h3.235a1 1 0 00.95-.69l1-3.077z"/></svg><svg viewBox="0 0 27 26" id="youtube-icon" xmlns="http://www.w3.org/2000/svg"><g clip-path="url(#ga)"><path d="M13.082 10.709a2.329 2.329 0 00-2.326 2.325 2.33 2.33 0 002.326 2.327 2.328 2.328 0 002.326-2.327 2.329 2.329 0 00-2.326-2.325z"/><path d="M13.082 0c-7.18 0-13 5.82-13 13s5.82 13 13 13 13-5.82 13-13-5.82-13-13-13z"/><path fill-rule="evenodd" clip-rule="evenodd" d="M13.082 7.767c-2.093 0-4.81.527-4.81.527l-.006.007a2.001 2.001 0 00-1.684 1.977v5.377a2.007 2.007 0 001.689 1.981l.001.003s2.717.528 4.81.528c2.093 0 4.81-.528 4.81-.528a2.008 2.008 0 001.69-1.983v-5.378a2.006 2.006 0 00-1.688-1.981c-.002-.003-2.719-.53-4.812-.53zm-1.3 2.925l3.9 2.275-3.9 2.275v-4.55z"/></g><defs><clipPath id="ga"><path transform="translate(.082)" d="M0 0h26v26H0z"/></clipPath></defs></svg></svg>