<?xml version="1.0" encoding="utf-8"?><svg viewBox="0 0 105 76" xmlns="http://www.w3.org/2000/svg" xmlns:xlink="http://www.w3.org/1999/xlink"><style>:root>svg{display:none}:root>svg:target{display:block}</style><svg viewBox="0 0 33 33" id="ai-icon" xmlns="http://www.w3.org/2000/svg"><path d="M25.266 0H7.734A7.734 7.734 0 000 7.734v17.532A7.734 7.734 0 007.734 33h17.532A7.734 7.734 0 0033 25.266V7.734A7.734 7.734 0 0025.266 0z"/><path d="M15.95 19.637h-5.115l-1.045 3.23a.24.24 0 01-.261.193H6.944c-.152 0-.193-.082-.152-.247l4.428-12.746c.041-.138.082-.29.137-.454.055-.289.083-.591.083-.894-.014-.069.041-.137.11-.151h3.561c.11 0 .165.041.179.11l5.019 14.162c.04.152 0 .22-.138.22h-2.874c-.096.014-.192-.054-.22-.15l-1.127-3.273zm-4.317-2.792h3.492a19.498 19.498 0 00-.316-.99c-.124-.37-.248-.77-.371-1.182-.138-.426-.262-.839-.4-1.265a30.037 30.037 0 01-.37-1.224c-.11-.385-.207-.742-.303-1.072h-.028a16.905 16.905 0 01-.467 1.773c-.206.66-.412 1.348-.633 2.036-.177.649-.379 1.29-.604 1.924zm11.742-5.87a1.702 1.702 0 01-1.224-.482 1.787 1.787 0 01-.467-1.265 1.618 1.618 0 01.495-1.224c.33-.316.77-.481 1.224-.481.536 0 .948.165 1.25.481.305.334.468.773.454 1.224a1.74 1.74 0 01-.48 1.265c-.317.33-.785.509-1.252.481zm-1.54 11.934V12.322c0-.138.055-.193.179-.193h2.722c.124 0 .179.069.179.193v10.587c0 .151-.055.22-.179.22h-2.695c-.137 0-.206-.082-.206-.22z"/></svg><svg viewBox="0 0 32 33" id="angular-icon" xmlns="http://www.w3.org/2000/svg"><path d="M.013 5.523L15.276.085l15.675 5.341-2.538 20.194-13.137 7.276-12.93-7.179L.012 5.523z"/><path d="M30.95 5.426L15.277.085v32.81l13.137-7.262L30.95 5.426z"/><path d="M15.3 3.916l-9.51 21.16 3.552-.06 1.91-4.773h8.532l2.09 4.834 3.396.06L15.3 3.916zm.024 6.78l3.215 6.719h-6.043l2.828-6.72z"/></svg><svg viewBox="0 0 9 14" id="arrow-down" xmlns="http://www.w3.org/2000/svg"><path d="M4.283 13.155a.5.5 0 00.707 0l3.182-3.182a.5.5 0 00-.707-.707l-2.828 2.828-2.829-2.828a.5.5 0 00-.707.707l3.182 3.182zM4.137.95v11.852h1V.95h-1z"/></svg><svg viewBox="0 0 76 76" id="delivering-icon-1" xmlns="http://www.w3.org/2000/svg"><g clip-path="url(#da)"><path d="M37.504 36.733a1.172 1.172 0 100-2.343 1.172 1.172 0 000 2.343z"/><path d="M37.504 41.42c3.23 0 5.86-2.628 5.86-5.858 0-1.192-.363-2.3-.977-3.227l3.61-3.609a5.823 5.823 0 003.226.976 5.866 5.866 0 005.859-5.86 5.867 5.867 0 00-5.86-5.859 5.866 5.866 0 00-5.859 5.86c0 1.192.362 2.299.977 3.226l-3.61 3.61a5.823 5.823 0 00-3.226-.977 5.87 5.87 0 00-5.741 4.688h-2.678a3.511 3.511 0 00-3.3-2.344 3.52 3.52 0 00-3.515 3.516 3.52 3.52 0 003.515 3.515 3.511 3.511 0 003.3-2.344h2.678a5.87 5.87 0 005.74 4.688zm11.719-21.093a3.52 3.52 0 013.515 3.516 3.52 3.52 0 01-3.515 3.515 3.52 3.52 0 01-3.516-3.515 3.52 3.52 0 013.516-3.516zm-11.72 11.719a3.52 3.52 0 013.517 3.516 3.52 3.52 0 01-3.516 3.515 3.52 3.52 0 01-3.516-3.515 3.52 3.52 0 013.516-3.516zm-11.718 4.687a1.173 1.173 0 010-2.343 1.173 1.173 0 010 2.343zM49.223.538h2.343v2.344h-2.343V.538zm2.343 2.344h2.344v2.344h-2.344V2.882zm-4.687 0h2.344v2.344h-2.344V2.882zm2.344 2.344h2.343v2.343h-2.343V5.226z"/><path d="M49.223 25.015a1.172 1.172 0 100-2.344 1.172 1.172 0 000 2.344zM2.576 55.484h3.287v9.375h2.344V53.14h-1.4l3.744-5.992 3.744 5.992h-1.4v21.094h2.343v-18.75h3.287l-7.974-12.758-7.975 12.758z"/><path d="M5.863 67.202h2.344v7.031H5.863v-7.03zM59.77 15.64h2.343v-4.688h-1.4l3.744-5.991 3.744 5.992h-1.4v21.093h2.343v-18.75h3.288L64.457.538l-7.975 12.758h3.288v2.344z"/><path d="M72.678 49.611a3.329 3.329 0 01-2.542-2.021 3.33 3.33 0 01.37-3.225l.679-.952-6.375-6.376-.953.68c-.809.577-1.803.736-2.745.5.6-1.971.933-4.042.982-6.171h.02V17.983H59.77v3.497C56.043 13.873 48.242 8.608 39.213 8.608h-3.42c-1.37 0-2.706.143-4.01.374l-5.915-5.914-1.71 1.708c-.309.31-.77.396-1.212.216a1.076 1.076 0 01-.677-.997V1.577h-9.375v2.418c0 .438-.266.83-.707 1.01a1.08 1.08 0 01-1.183-.229l-1.71-1.708-6.629 6.628 1.709 1.71c.31.31.398.773.217 1.214a1.08 1.08 0 01-.999.676H1.176v9.375h2.417c.437 0 .829.266 1.01.708.17.409.08.873-.23 1.182l-1.707 1.71 6.629 6.628 1.71-1.709c.309-.308.77-.397 1.212-.215.412.167.678.559.678.997h.016c.17 8.542 4.973 16.184 12.642 20.018l1.404.702v2.791a2.346 2.346 0 002.344 2.344h4.687v.994l1.16.192a3.305 3.305 0 011.997 1.158h-7.844a2.346 2.346 0 00-2.344 2.344v1.172c0 5.814 4.73 10.546 10.547 10.546 3.314 0 6.273-1.54 8.208-3.938.506-.03 1.012.05 1.484.245a3.31 3.31 0 012.013 2.533l.194 1.16h9.018l.188-1.153a3.324 3.324 0 012.023-2.541 3.324 3.324 0 013.225.369l.953.68 6.376-6.377-.679-.95a3.336 3.336 0 01-.369-3.232 3.317 3.317 0 012.534-2.016l1.16-.192v-9.018l-1.154-.192zm-26.971 10.56h-.55a10.456 10.456 0 01-1.182-2.344h1.732c.26 0 .506-.053.74-.131 1.292 2.837 4.148 4.819 7.463 4.819 4.522 0 8.203-3.68 8.203-8.203a8.167 8.167 0 00-5.604-7.785 22.825 22.825 0 001.512-1.93 10.518 10.518 0 016.436 9.715c0 5.814-4.73 10.546-10.547 10.546-2.113 0-4.124-.62-5.86-1.784v-.56a2.346 2.346 0 00-2.343-2.343zm4.688-11.425c-.64.413-1.297.802-1.988 1.148l-.356.178V34.39h2.343v14.356zm-2.344 3.946l1.404-.702a23.11 23.11 0 005.103-3.476c2.952.325 5.212 2.775 5.212 5.797a5.867 5.867 0 01-5.86 5.86 5.866 5.866 0 01-5.86-5.86v-1.619zM9.348 29.532l-.052.052-3.314-3.315.051-.052c.982-.98 1.272-2.448.727-3.76a3.414 3.414 0 00-3.167-2.13H3.52V15.64h.073c1.393 0 2.635-.836 3.176-2.154a3.416 3.416 0 00-.736-3.736l-.051-.053 3.314-3.315.052.051c.981.981 2.446 1.268 3.761.727a3.411 3.411 0 002.13-3.165V3.92h4.687v.074c0 1.392.835 2.635 2.155 3.177a3.419 3.419 0 003.736-.736l.052-.053 3.23 3.23a22.73 22.73 0 00-4.63 2.019 9.415 9.415 0 00-6.887-3.024c-5.17 0-9.375 4.206-9.375 9.375 0 3.607 2.092 6.855 5.284 8.41a22.76 22.76 0 00-.42 2.399 3.419 3.419 0 00-3.723.74zm6.796-9.722a2.344 2.344 0 01-.906-1.827 2.346 2.346 0 012.344-2.343c.491 0 .95.167 1.338.441a22.97 22.97 0 00-2.776 3.73zm4.465-5.396a4.667 4.667 0 00-3.027-1.118 4.692 4.692 0 00-4.688 4.687c0 1.602.84 3.067 2.14 3.92a22.877 22.877 0 00-.89 2.206 7.045 7.045 0 01-3.593-6.126 7.038 7.038 0 017.031-7.03c1.825 0 3.57.73 4.87 1.98-.64.463-1.254.957-1.843 1.48zm5.992 35.48a20.974 20.974 0 01-1.988-1.148v-4.981h2.344v6.307l-.356-.178zM22.27 41.42v5.565c-4.42-3.841-7.032-9.42-7.032-15.478 0-11.334 9.222-20.556 20.556-20.556h3.42c11.334 0 20.556 9.222 20.556 20.556 0 6.059-2.611 11.637-7.032 15.478v-14.94h-7.031v23.437h-4.688V43.765h-7.03v11.718H29.3V41.421h-7.03zm16.406 14.062h-2.344v-9.375h2.344v9.375zm1.172 4.65c-.39-.94-1.025-1.71-1.797-2.306h3.472c.23.809.542 1.593.926 2.344h-2.59l-.011-.039zM37.504 71.89c-4.522 0-8.203-3.68-8.203-8.203v-1.172h16.406v1.172c0 4.523-3.68 8.203-8.203 8.203zm33.984-14.997a5.644 5.644 0 00-3.515 3.24 5.659 5.659 0 00.194 4.782l-3.654 3.652a5.649 5.649 0 00-4.778-.195 5.651 5.651 0 00-3.242 3.516h-5.165a5.64 5.64 0 00-3.236-3.515 5.676 5.676 0 00-1.01-.3c.345-.752.61-1.548.772-2.384a12.763 12.763 0 006.056 1.513c7.108 0 12.89-5.783 12.89-12.89a12.85 12.85 0 00-7.535-11.72 22.85 22.85 0 001.04-2.141 5.648 5.648 0 004.208-.395l3.653 3.652a5.655 5.655 0 00-.196 4.78 5.656 5.656 0 003.518 3.242v5.163z"/></g><defs><clipPath id="da"><path transform="translate(.004 .405)" d="M0 0h75v75H0z"/></clipPath></defs></svg><svg viewBox="0 0 76 76" id="delivering-icon-2" xmlns="http://www.w3.org/2000/svg"><path d="M2.81 65.347h1.782c.122.347.263.686.42 1.018l-1.26 1.26a1.17 1.17 0 000 1.656l3.322 3.322c.44.439 1.217.439 1.657 0l1.26-1.261c.332.158.671.297 1.017.42v1.784c0 .647.525 1.172 1.172 1.172h4.697c.646 0 1.171-.525 1.171-1.172v-1.787a10.43 10.43 0 001.013-.42l1.264 1.265a1.17 1.17 0 001.657 0l3.322-3.321a1.17 1.17 0 000-1.657l-1.266-1.266c.157-.33.296-.667.418-1.011h1.792c.647 0 1.172-.525 1.172-1.172V59.48c0-.647-.525-1.172-1.172-1.172h-1.79a10.446 10.446 0 00-.419-1.011l1.266-1.266a1.171 1.171 0 000-1.657l-3.321-3.321c-.44-.44-1.218-.44-1.657 0l-1.265 1.264a11.17 11.17 0 00-1.012-.42v-1.789c0-.646-.525-1.171-1.172-1.171H12.18c-.647 0-1.172.525-1.172 1.171v1.784a10.44 10.44 0 00-1.016.42l-1.26-1.262a1.17 1.17 0 00-1.657 0l-3.321 3.32a1.17 1.17 0 000 1.658l1.26 1.26c-.159.332-.3.671-.422 1.018H2.81c-.647 0-1.172.525-1.172 1.172v4.697c0 .647.525 1.171 1.172 1.171zm1.172-4.696h1.476c.534 0 1-.363 1.134-.88a8.14 8.14 0 01.87-2.102 1.172 1.172 0 00-.18-1.423L6.238 55.2l1.664-1.664 1.044 1.046c.377.377.961.452 1.424.18a8.126 8.126 0 012.102-.868c.518-.134.878-.6.878-1.135v-1.48h2.354v1.481c0 .535.36 1.001.877 1.135.74.192 1.446.485 2.1.87.46.271 1.048.198 1.424-.18l1.048-1.049 1.664 1.664-1.05 1.05a1.172 1.172 0 00-.18 1.424c.384.653.675 1.358.866 2.099.134.517.6.879 1.135.879h1.488v2.353h-1.485c-.534 0-1 .361-1.134.879a8.196 8.196 0 01-.867 2.099 1.172 1.172 0 00.18 1.424l1.05 1.048-1.665 1.665-1.048-1.052a1.172 1.172 0 00-1.423-.18 8.157 8.157 0 01-2.1.87c-.517.134-.878.6-.878 1.135v1.48h-2.353v-1.479c0-.534-.362-1-.88-1.134a8.15 8.15 0 01-2.1-.869 1.175 1.175 0 00-1.424.18l-1.044 1.045-1.664-1.664 1.043-1.043a1.17 1.17 0 00.18-1.424 8.156 8.156 0 01-.87-2.102 1.172 1.172 0 00-1.135-.88H3.982V60.65z"/><path d="M14.53 67.686a5.866 5.866 0 005.859-5.859c0-3.23-2.629-5.86-5.86-5.86a5.866 5.866 0 00-5.86 5.86c0 3.231 2.63 5.86 5.86 5.86zm0-9.375a3.52 3.52 0 013.515 3.516 3.52 3.52 0 01-3.516 3.516 3.52 3.52 0 01-3.515-3.516 3.52 3.52 0 013.515-3.515zM74.234 8.233a1.172 1.172 0 00-.933-.787L69.06 6.8l-1.907-4.062a1.172 1.172 0 00-2.122-.002l-1.907 4.063-4.24.647a1.172 1.172 0 00-.662 1.977l3.102 3.18-.733 4.504a1.172 1.172 0 001.723 1.215l3.777-2.088 3.778 2.088a1.174 1.174 0 001.724-1.215l-.733-4.505 3.102-3.179a1.17 1.17 0 00.271-1.19zM68.77 11.39a1.17 1.17 0 00-.318 1.006l.44 2.706-2.233-1.234a1.172 1.172 0 00-1.134 0l-2.234 1.234.44-2.706a1.17 1.17 0 00-.317-1.006L61.49 9.419l2.604-.398c.387-.06.719-.307.884-.66l1.114-2.369 1.112 2.368c.167.354.498.602.884.661l2.604.398-1.923 1.97zm-12.783 4.823a2.36 2.36 0 00-1.805.47l-9.195 7.192a5.815 5.815 0 00.645-3.18 5.818 5.818 0 00-2.059-3.984 5.824 5.824 0 00-4.273-1.362 5.827 5.827 0 00-3.984 2.059 5.8 5.8 0 00.204 7.75 5.81 5.81 0 00-3.375 2.3L22.912 40.06a2.322 2.322 0 00-.11 2.514 2.327 2.327 0 002.228 1.166l2.808-.238a2.322 2.322 0 001.687-.942l5.574-7.334.422 5.004-2.77 18.994a50.546 50.546 0 01-3.15.554l.324 2.32a52.942 52.942 0 0010.786-2.687c6.75-2.46 12.146-6.003 16.306-9.56l.262-.078-.036-.122c4.014-3.471 6.859-6.936 8.63-9.408a1.17 1.17 0 00-.67-1.819l-1.807-.452 6.58-3.655 1.554 6.994-1.551-.517a1.171 1.171 0 00-1.349.466l-.194.293C53.704 63.982 37.328 69.42 26.184 70.031l.127 2.34c11.605-.637 28.587-6.212 43.778-29.07l2.661.887a1.17 1.17 0 001.514-1.366l-2.343-10.547a1.169 1.169 0 00-1.714-.77l-10.546 5.86a1.17 1.17 0 00.285 2.16l2.983.746a52.96 52.96 0 01-6.425 6.905l-2.09-7.01a2.343 2.343 0 00-1.174-1.372l-4.818-2.51-.753-5.728 10.73-8.175a2.341 2.341 0 00.516-3.184l-1.355-1.99a2.345 2.345 0 00-1.573-.994zm-16.49 1.473a3.489 3.489 0 012.564.817 3.495 3.495 0 011.235 2.39 3.493 3.493 0 01-.816 2.564 3.49 3.49 0 01-2.391 1.235 3.482 3.482 0 01-2.564-.817 3.491 3.491 0 01-1.235-2.39 3.52 3.52 0 013.207-3.8zm1.593 39.063l2.438-14.073 4.308 2.09 2.547 7.149a50.215 50.215 0 01-9.293 4.834zm4.62-27.645a1.174 1.174 0 00-.452 1.086l.921 7.006c.05.379.282.71.621.886l5.377 2.78 2.381 7.988a52.453 52.453 0 01-2.182 1.681l-2.346-6.586a2.336 2.336 0 00-1.148-1.245l-5.727-2.81a1.18 1.18 0 00-1.05.009c-.328.167-.56.48-.621.843L38.55 57.667a50.674 50.674 0 01-3.348.994l2.658-18.223a1.21 1.21 0 00.009-.269l-.69-8.173a1.17 1.17 0 00-2.1-.611l-7.438 9.784-2.822.258 9.233-12.603a3.514 3.514 0 012.585-1.488l3.648-.308h.002l4.671-.395c.228-.02.444-.104.624-.245l10.045-7.859 1.356 1.99-11.273 8.585zM5.154 3.233h2.344v2.344H5.154V3.233zm2.344 2.344h2.344v2.344H7.498V5.577zm-4.688 0h2.344v2.344H2.811V5.577zM5.154 7.92h2.344v2.345H5.154V7.92zm9.376-1.171h2.343v2.344h-2.344V6.749zm2.343 2.344h2.344v2.344h-2.344V9.093zm-4.688 0h2.344v2.344h-2.344V9.093zm2.345 2.344h2.343v2.343h-2.344v-2.343zm53.906 55.078h2.343v2.343h-2.343v-2.343zm2.344 2.343h2.343v2.344h-2.344v-2.344zm-4.688 0h2.344v2.344h-2.344v-2.344zm2.344 2.344h2.343v2.344h-2.343v-2.344z"/></svg><svg viewBox="0 0 76 76" id="delivering-icon-3" xmlns="http://www.w3.org/2000/svg"><g clip-path="url(#fa)"><path d="M27.18 42.312a12.126 12.126 0 01-5.46 1.84 4.991 4.991 0 00-4.798-3.674h-6.25a5 5 0 00-5 5v25a5 5 0 005 5h6.25a5 5 0 004.815-3.725 8.169 8.169 0 013.062.773c.483.229.944.5 1.407.767.69.421 1.409.793 2.15 1.113a16.344 16.344 0 006.066 1.072h22.5a5 5 0 004.142-7.796 4.978 4.978 0 002.5-7.5 4.966 4.966 0 00.9-8.985 4.942 4.942 0 001.208-3.219 5 5 0 00-5-5h-15.79c1.955-3.722 5.507-12.043 2.05-18.096-1.521-2.659-4.7-4.739-8.076-3.019-3.523 1.79-2.734 5.327-2.354 7.024.969 4.355-2.168 8.873-9.323 13.425zM16.921 72.978h-6.25a2.5 2.5 0 01-2.5-2.5v-25a2.5 2.5 0 012.5-2.5h6.25a2.5 2.5 0 012.5 2.5v25a2.5 2.5 0 01-2.5 2.5zm22.02-44.635c-.565-2.528-.311-3.56 1.047-4.25 2.205-1.125 4.04.75 4.773 2.032 3.736 6.542-3.014 17.326-3.083 17.435a1.25 1.25 0 001.055 1.918h17.938a2.5 2.5 0 010 5h-7.5a1.25 1.25 0 000 2.5h8.75a2.5 2.5 0 010 5h-8.75a1.25 1.25 0 000 2.5h6.25a2.5 2.5 0 010 5h-6.25a1.25 1.25 0 000 2.5h3.75a2.5 2.5 0 010 5h-22.5c-1.75.03-3.489-.271-5.125-.89a14.954 14.954 0 01-1.836-.957 22.295 22.295 0 00-1.584-.861 10.687 10.687 0 00-3.955-1V46.667a14.651 14.651 0 006.599-2.25c8.137-5.172 11.643-10.581 10.42-16.074zM53.185 1.692v.036c0 .46-.114 11.25-10.011 11.25a1.25 1.25 0 000 2.5c9.859 0 10.01 10.792 10.011 11.25a1.25 1.25 0 102.5.034v-.034c0-.46.114-11.25 10.013-11.25a1.25 1.25 0 000-2.5c-9.86 0-10.01-10.793-10.013-11.25a1.25 1.25 0 00-2.5-.034v-.002zm6.813 12.536a11.875 11.875 0 00-5.564 6.295 11.868 11.868 0 00-5.564-6.295 11.867 11.867 0 005.564-6.295 11.875 11.875 0 005.564 6.295z"/><path d="M21.922 16.728v-.007a1.25 1.25 0 10-2.5.007c0 .307-.105 7.5-6.25 7.5a1.25 1.25 0 100 2.5c6.145 0 6.25 7.197 6.25 7.5v.008a1.25 1.25 0 102.5-.008c0-.306.105-7.5 6.25-7.5a1.25 1.25 0 000-2.5c-6.145 0-6.25-7.196-6.25-7.5zm1.68 8.75a8.402 8.402 0 00-2.93 3.392 8.402 8.402 0 00-2.93-3.392 8.394 8.394 0 002.93-3.39 8.393 8.393 0 002.93 3.39zm40.195 6.488h2.344v2.344h-2.344v-2.344zm2.343 2.344h2.344v2.343h-2.343V34.31zm-4.687 0h2.344v2.343h-2.344V34.31z"/><path d="M63.797 36.653h2.344v2.344h-2.344v-2.344zM28.25 4.862h2.344v2.344H28.25V4.862zm2.344 2.344h2.343V9.55h-2.343V7.206zm-4.688 0h2.344V9.55h-2.344V7.206zM28.25 9.55h2.344v2.344H28.25V9.55z"/></g><defs><clipPath id="fa"><path transform="translate(.672 .478)" d="M0 0h75v75H0z"/></clipPath></defs></svg><svg viewBox="0 0 33 33" id="django-icon" xmlns="http://www.w3.org/2000/svg"><path d="M14.576 4.125h4.09v18.737a27.038 27.038 0 01-5.304.552c-4.994-.006-7.592-2.236-7.592-6.52 0-4.125 2.756-6.806 7.029-6.806a6.61 6.61 0 011.777.206V4.125zm0 9.428a4.119 4.119 0 00-1.378-.207c-2.063 0-3.262 1.262-3.262 3.472 0 2.152 1.141 3.34 3.236 3.34.47 0 .94-.035 1.404-.103v-6.502z"/><path d="M25.162 10.373v9.385c0 3.23-.242 4.784-.952 6.123a6.514 6.514 0 01-3.34 2.994l-3.794-1.787a5.886 5.886 0 003.24-2.711c.583-1.156.768-2.496.768-6.02v-7.984h4.078zM21.08 4.146h4.087V8.3H21.08V4.146z"/></svg><svg viewBox="0 0 27 26" id="fb-icon" xmlns="http://www.w3.org/2000/svg"><g clip-path="url(#ha)"><path d="M13.082 26c7.18 0 13-5.82 13-13s-5.82-13-13-13-13 5.82-13 13 5.82 13 13 13z"/><path d="M15.856 12.987h-1.773v6.46h-2.688v-6.46h-1.278v-2.27h1.278v-1.47c0-1.05.502-2.695 2.712-2.695l1.99.008v2.204h-1.444c-.237 0-.57.118-.57.619v1.336h2.008l-.235 2.268z"/></g><defs><clipPath id="ha"><path transform="translate(.082)" d="M0 0h26v26H0z"/></clipPath></defs></svg><svg viewBox="0 0 22 33" id="figma-icon" xmlns="http://www.w3.org/2000/svg"><g clip-path="url(#ia)"><path d="M5.5 33c3.036 0 5.5-2.464 5.5-5.5V22H5.5A5.502 5.502 0 000 27.5C0 30.536 2.464 33 5.5 33zM0 16.5C0 13.464 2.464 11 5.5 11H11v11H5.5A5.502 5.502 0 010 16.5zM0 5.5C0 2.464 2.464 0 5.5 0H11v11H5.5A5.502 5.502 0 010 5.5zM11 0h5.5C19.536 0 22 2.464 22 5.5S19.536 11 16.5 11H11V0zM22 16.5c0 3.036-2.464 5.5-5.5 5.5a5.502 5.502 0 01-5.5-5.5c0-3.036 2.464-5.5 5.5-5.5s5.5 2.464 5.5 5.5z"/></g><defs><clipPath id="ia"><path d="M0 0h22v33H0z"/></clipPath></defs></svg><svg viewBox="0 0 34 33" id="id-icon" xmlns="http://www.w3.org/2000/svg"><g clip-path="url(#ja)"><path d="M28.186 0H5.614a5.61 5.61 0 00-5.61 5.61v21.727a5.61 5.61 0 005.61 5.61h22.572a5.61 5.61 0 005.61-5.61V5.61A5.61 5.61 0 0028.186 0z"/><path d="M12.276 8.62v14.44c0 .15-.068.226-.204.226H9.329c-.121 0-.182-.076-.182-.227V8.62c0-.12.068-.181.204-.181h2.743a.16.16 0 01.183.163l-.001.018zm8.261 14.891l-.146.002a7.022 7.022 0 01-3.026-.635 4.812 4.812 0 01-2.12-1.916c-.501-.832-.758-1.87-.77-3.113v-.094a5.919 5.919 0 01.77-2.97 5.657 5.657 0 012.17-2.136l.075-.04c.982-.544 2.168-.816 3.559-.816h.029l.065.002.074.002.082.005.09.005.1.008.224.018.06.005V7.373c0-.106.046-.16.137-.16h2.856a.12.12 0 01.136.137v13.397c.001.28.012.56.034.839l.022.292.019.272.016.252a.234.234 0 01-.136.227 11.29 11.29 0 01-2.29.68c-.67.123-1.349.191-2.03.202zm1.237-2.81v-6.188a2.25 2.25 0 00-.374-.068 4.539 4.539 0 00-.465-.023 3.5 3.5 0 00-1.587.363c-.48.239-.89.598-1.19 1.043-.31.453-.465 1.05-.465 1.79-.01.495.07.987.238 1.452.137.374.354.714.635.997.27.26.596.454.952.567.377.122.771.183 1.168.181.211 0 .408-.007.59-.023.144-.01.288-.034.428-.07l.07-.02z"/></g><defs><clipPath id="ja"><path d="M0 0h33.8v33H0z"/></clipPath></defs></svg><svg viewBox="0 0 25 26" id="link-down" xmlns="http://www.w3.org/2000/svg"><circle cx="12.636" cy="12.876" r="11.712" transform="rotate(90 12.636 12.876)"/><path d="M12.283 19.155a.5.5 0 00.707 0l3.182-3.182a.5.5 0 00-.707-.707l-2.828 2.828-2.829-2.828a.5.5 0 10-.707.707l3.182 3.182zM12.137 6.95v11.852h1V6.95h-1z"/></svg><svg viewBox="0 0 27 26" id="linkedin-icon" xmlns="http://www.w3.org/2000/svg"><circle cx="13.082" cy="13" r="10.732"/><path fill-rule="evenodd" clip-rule="evenodd" d="M13.082 26c7.18 0 13-5.82 13-13s-5.82-13-13-13-13 5.82-13 13 5.82 13 13 13zm-5.36-6.688c.838 0 1.518-.68 1.518-1.519v-6.726a1.518 1.518 0 00-3.037 0v6.726c0 .839.68 1.519 1.519 1.519zM7.69 8.153a1.77 1.77 0 11-.002-3.54 1.77 1.77 0 01.002 3.54zm11.407 11.16c.838 0 1.518-.68 1.518-1.518v-3.837c0-2.63-.569-4.651-3.644-4.651-1.468 0-2.456.8-2.866 1.563a.026.026 0 01-.048-.012v-.642a.667.667 0 00-.667-.667h-.79c-.804 0-1.457.653-1.457 1.457v6.789a1.517 1.517 0 003.035 0v-3.313c0-1.273.243-2.506 1.824-2.506 1.557 0 1.578 1.456 1.578 2.588v3.23c0 .839.68 1.518 1.517 1.518z"/></svg><svg viewBox="0 0 105 33" id="logo" xmlns="http://www.w3.org/2000/svg"><g clip-path="url(#ma)" fill-rule="evenodd" clip-rule="evenodd"><path d="M25.963 11.953v14.703h5.19v5.19h-5.19c-2.854 0-5.189-2.336-5.189-5.19h-.432c-1.557 2.984-4.41 5.19-7.784 5.838a11.8 11.8 0 01-2.162.216A10.353 10.353 0 01.018 22.332a10.353 10.353 0 0110.378-10.379V5.9h-5.19C2.354 5.9.019 3.564.019.71h9.08a6.478 6.478 0 006.487 6.486v4.757h5.19V5.9h-5.19c-2.854 0-5.189-2.335-5.189-5.189h10.378c2.854 0 5.19 2.335 5.19 5.19v6.053zm-10.81 4.757h5.19v3.322a2.595 2.595 0 10-.14 3.059c-.542 2.285-2.605 3.997-5.05 3.997-2.854 0-5.19-2.335-5.19-5.189s2.336-5.189 5.19-5.189zm16-16h6.054l3.027 26.205h.562L45.423.71h7.265l4.584 26.205h.562L60.904.71H66.7l-4.37 31.135h-8.95L49.228 7.672h-.562L44.43 31.845h-8.952L31.153.71zm37.102 0h6.055l3.026 26.205h.563L82.525.71h7.264l4.584 26.205h.563L98.006.71h5.795l-4.368 31.135h-8.952l-4.15-24.173h-.563L81.53 31.845h-8.95L68.255.71z"/><g clip-path="url(#mb)"><path d="M25.963 11.953v14.703h5.19v5.19h-5.19c-2.854 0-5.189-2.336-5.189-5.19h-.432c-1.557 2.984-4.41 5.19-7.784 5.838a11.8 11.8 0 01-2.162.216A10.353 10.353 0 01.018 22.332a10.353 10.353 0 0110.378-10.379V5.9h-5.19C2.354 5.9.019 3.564.019.71h9.08a6.478 6.478 0 006.487 6.486v4.757h5.19V5.9h-5.19c-2.854 0-5.189-2.335-5.189-5.189h10.378c2.854 0 5.19 2.335 5.19 5.19v6.053zm-10.81 4.757h5.19v3.322a2.595 2.595 0 10-.14 3.059c-.542 2.285-2.605 3.997-5.05 3.997-2.854 0-5.19-2.335-5.19-5.189s2.336-5.189 5.19-5.189zm16-16h6.054l3.027 26.205h.562L45.423.71h7.265l4.584 26.205h.562L60.904.71H66.7l-4.37 31.135h-8.95L49.228 7.672h-.562L44.43 31.845h-8.952L31.153.71zm37.102 0h6.055l3.026 26.205h.563L82.525.71h7.264l4.584 26.205h.563L98.006.71h5.795l-4.368 31.135h-8.952l-4.15-24.173h-.563L81.53 31.845h-8.95L68.255.71z"/><path d="M25.963 11.953v14.703h5.19v5.19h-5.19c-2.854 0-5.189-2.336-5.189-5.19h-.432c-1.557 2.984-4.41 5.19-7.784 5.838a11.8 11.8 0 01-2.162.216A10.353 10.353 0 01.018 22.332a10.353 10.353 0 0110.378-10.379V5.9h-5.19C2.354 5.9.019 3.564.019.71h9.08a6.478 6.478 0 006.487 6.486v4.757h5.19V5.9h-5.19c-2.854 0-5.189-2.335-5.189-5.189h10.378c2.854 0 5.19 2.335 5.19 5.19v6.053zm-10.81 4.757h5.19v3.322a2.595 2.595 0 10-.14 3.059c-.542 2.285-2.605 3.997-5.05 3.997-2.854 0-5.19-2.335-5.19-5.189s2.336-5.189 5.19-5.189zm16-16h6.054l3.027 26.205h.562L45.423.71h7.265l4.584 26.205h.562L60.904.71H66.7l-4.37 31.135h-8.95L49.228 7.672h-.562L44.43 31.845h-8.952L31.153.71zm37.102 0h6.055l3.026 26.205h.563L82.525.71h7.264l4.584 26.205h.563L98.006.71h5.795l-4.368 31.135h-8.952l-4.15-24.173h-.563L81.53 31.845h-8.95L68.255.71z"/></g></g><g clip-path="url(#mc)"><path fill-rule="evenodd" clip-rule="evenodd" d="M25.963 11.953v14.703h5.19v5.19h-5.19c-2.854 0-5.189-2.336-5.189-5.19h-.432c-1.557 2.984-4.41 5.19-7.784 5.838a11.8 11.8 0 01-2.162.216A10.353 10.353 0 01.018 22.332a10.353 10.353 0 0110.378-10.379V5.9h-5.19C2.354 5.9.019 3.564.019.71h9.08a6.478 6.478 0 006.487 6.486v4.757h5.19V5.9h-5.19c-2.854 0-5.189-2.335-5.189-5.189h10.378c2.854 0 5.19 2.335 5.19 5.19v6.053zm-10.81 4.757h5.19v3.322a2.595 2.595 0 10-.14 3.059c-.542 2.285-2.605 3.997-5.05 3.997-2.854 0-5.19-2.335-5.19-5.189s2.336-5.189 5.19-5.189zm16-16h6.054l3.027 26.205h.562L45.423.71h7.265l4.584 26.205h.562L60.904.71H66.7l-4.37 31.135h-8.95L49.228 7.672h-.562L44.43 31.845h-8.952L31.153.71zm37.102 0h6.055l3.026 26.205h.563L82.525.71h7.264l4.584 26.205h.563L98.006.71h5.795l-4.368 31.135h-8.952l-4.15-24.173h-.563L81.53 31.845h-8.95L68.255.71z"/></g><defs><clipPath id="ma"><path transform="translate(.018 .71)" d="M0 0h104v32H0z"/></clipPath><clipPath id="mb"><path transform="translate(31.018 .71)" d="M0 0h73v32H0z"/></clipPath><clipPath id="mc"><path transform="translate(.018 .71)" d="M0 0h31v32H0z"/></clipPath></defs></svg><svg viewBox="0 0 33 33" id="node-icon" xmlns="http://www.w3.org/2000/svg"><path d="M16.5 30.938c-.39 0-.772-.103-1.11-.297l-3.53-2.09c-.527-.296-.27-.4-.096-.46a7.043 7.043 0 001.597-.723.271.271 0 01.263.02L16.337 29a.35.35 0 00.328 0l10.58-6.107a.333.333 0 00.163-.287V10.39a.342.342 0 00-.164-.292l-10.58-6.102a.333.333 0 00-.328 0L5.762 10.1a.34.34 0 00-.167.29V22.6a.325.325 0 00.166.283l2.902 1.675c1.572.786 2.536-.14 2.536-1.07V11.43a.31.31 0 01.309-.309h1.34a.31.31 0 01.31.31v12.057c0 2.098-1.143 3.3-3.133 3.3a4.526 4.526 0 01-2.437-.662L4.807 24.53a2.233 2.233 0 01-1.11-1.93V10.39a2.23 2.23 0 011.11-1.934l10.582-6.109a2.316 2.316 0 012.223 0l10.58 6.11a2.233 2.233 0 011.111 1.928V22.6a2.24 2.24 0 01-1.11 1.93l-10.581 6.11a2.22 2.22 0 01-1.112.297z"/><path d="M14.493 18.514a.31.31 0 01.31-.31h1.368a.31.31 0 01.304.26c.206 1.393.825 2.095 3.623 2.095 2.229 0 3.178-.504 3.178-1.687 0-.682-.269-1.188-3.733-1.527-2.896-.287-4.686-.928-4.686-3.243 0-2.134 1.8-3.408 4.816-3.408 3.39 0 5.068 1.177 5.28 3.701a.308.308 0 01-.304.333H23.27a.309.309 0 01-.297-.239c-.329-1.465-1.134-1.934-3.3-1.934-2.434 0-2.716.848-2.716 1.483 0 .77.334.995 3.62 1.429 3.251.43 4.796 1.038 4.796 3.323 0 2.306-1.922 3.626-5.275 3.626-4.635.006-5.606-2.119-5.606-3.902z"/></svg><svg viewBox="0 0 33 33" id="nuxt-icon" xmlns="http://www.w3.org/2000/svg"><path d="M25.266 0H7.734A7.734 7.734 0 000 7.734v17.532A7.734 7.734 0 007.734 33h17.532A7.734 7.734 0 0033 25.266V7.734A7.734 7.734 0 0025.266 0z"/><path d="M17.89 24.406h8.866a1.613 1.613 0 001.389-.795 1.577 1.577 0 00-.001-1.59l-5.954-10.22A1.616 1.616 0 0020 11.22c-.244.14-.446.34-.587.582l-1.523 2.615-2.976-5.113a1.616 1.616 0 00-2.778 0L4.727 22.022a1.578 1.578 0 00.586 2.171c.245.14.521.213.802.213h5.565c2.205 0 3.831-.96 4.95-2.832l2.716-4.663 1.455-2.495 4.367 7.495h-5.822l-1.456 2.495zm-6.3-2.497l-3.884-.001 5.821-9.993 2.905 4.996-1.945 3.34c-.743 1.215-1.587 1.657-2.897 1.657z"/></svg><svg viewBox="0 0 34 33" id="ps-icon" xmlns="http://www.w3.org/2000/svg"><g clip-path="url(#pa)"><path d="M28.186 0H5.614a5.61 5.61 0 00-5.61 5.61v21.727a5.61 5.61 0 005.61 5.61h22.572a5.61 5.61 0 005.61-5.61V5.61A5.61 5.61 0 0028.186 0z"/><path d="M7.613 23.105V8.619c0-.105.046-.158.136-.158h.144l.245-.003.34-.007 1.143-.024 1.224-.023c.43-.007.857-.011 1.28-.011 1.15 0 2.116.143 2.902.43.71.24 1.356.635 1.893 1.156.456.452.807.998 1.032 1.599.212.585.32 1.202.317 1.824 0 1.21-.28 2.207-.839 2.993a4.74 4.74 0 01-2.19 1.683l-.077.028c-.92.343-1.94.468-3.057.475h-.432l-.13-.002-.145-.004-.087-.003-.053-.003-.13-.005-.16-.003-.24-.002h-.054v4.523a.18.18 0 01-.122.197.18.18 0 01-.082.007H7.772c-.106 0-.159-.06-.159-.181zm3.062-11.924v4.724c.181.015.362.023.544.023h.748a5.32 5.32 0 001.522-.228l.099-.03c.45-.134.85-.394 1.156-.749.284-.335.431-.796.442-1.385v-.066a2.293 2.293 0 00-.329-1.246 2.114 2.114 0 00-.986-.805 4.203 4.203 0 00-1.655-.284l-.287.001-.181.002-.173.002-.245.005-.178.005-.092.003-.124.006-.105.007-.06.004-.052.005-.023.003-.02.003zm16.359 3.865a5.297 5.297 0 00-1.248-.454l-.1-.022a7.168 7.168 0 00-1.454-.18l-.122-.001a2.932 2.932 0 00-.85.102.764.764 0 00-.443.283.714.714 0 00-.113.386.6.6 0 00.136.362c.12.141.265.259.427.348l.05.026c.323.174.655.33.997.465.76.255 1.487.601 2.165 1.031.46.292.843.693 1.11 1.168.226.45.338.948.329 1.45a3.258 3.258 0 01-.544 1.871c-.394.562-.94.998-1.576 1.258-.664.292-1.481.443-2.45.453h-.1c-.6.007-1.2-.046-1.79-.156l-.125-.025a6.115 6.115 0 01-1.44-.453.294.294 0 01-.158-.25v-2.47a.134.134 0 01.056-.125.11.11 0 01.125.011c.542.32 1.131.553 1.745.692a7.2 7.2 0 001.655.215c.53 0 .918-.068 1.168-.204a.64.64 0 00.374-.59c0-.196-.114-.385-.34-.566a2.405 2.405 0 00-.41-.248l-.084-.042-.09-.043-.048-.021-.1-.044a8.075 8.075 0 00-.051-.023l-.109-.045-.056-.023-.117-.047-.06-.024-.127-.049-.131-.049a8.333 8.333 0 01-2.006-1.02 3.46 3.46 0 01-1.066-1.19 3.125 3.125 0 01-.328-1.44 3.25 3.25 0 01.476-1.7 3.458 3.458 0 011.473-1.292c.665-.332 1.496-.498 2.494-.498.584-.005 1.168.037 1.745.124.418.053.827.164 1.215.329a.207.207 0 01.136.125.621.621 0 01.023.17v2.29a.152.152 0 01-.068.135.219.219 0 01-.195 0z"/></g><defs><clipPath id="pa"><path d="M0 0h33.8v33H0z"/></clipPath></defs></svg><svg viewBox="0 0 33 33" id="py-icon" xmlns="http://www.w3.org/2000/svg"><path d="M16.381 2.166c-7.321 0-6.858 3.166-6.858 3.166v3.29h6.963v1.03H6.75s-4.688-.577-4.688 6.853 4.139 7.128 4.139 7.128h2.39v-3.466s-.135-4.138 4.021-4.138h6.973s3.89.061 3.89-3.767v-6.28s.59-3.829-7.055-3.829l-.039.013zm-3.848 2.203a1.252 1.252 0 11-1.22 1.283v-.02a1.252 1.252 0 011.252-1.252l-.032-.01z"/><path d="M16.587 30.845c7.322 0 6.86-3.177 6.86-3.177V24.39h-6.963v-1.031h9.766s4.687.524 4.687-6.863c0-7.387-4.138-7.128-4.138-7.128h-2.42v3.42s.133 4.139-4.023 4.139H13.38s-3.893-.059-3.893 3.77v6.323s-.59 3.828 7.056 3.828h.041l.003-.002zm3.849-2.214a1.253 1.253 0 111.22-1.283v.03a1.252 1.252 0 01-1.252 1.253h.032z"/><defs><linearGradient id="qa" x1="4.916" y1="4.974" x2="18.618" y2="18.644" gradientUnits="userSpaceOnUse"><stop stop-color="#387EB8"/><stop offset="1" stop-color="#366994"/></linearGradient><linearGradient id="qb" x1="13.022" y1="13.879" x2="28.676" y2="27.546" gradientUnits="userSpaceOnUse"><stop stop-color="#FFE052"/><stop offset="1" stop-color="#FFC331"/></linearGradient></defs></svg><svg viewBox="0 0 33 33" id="rails-icon" xmlns="http://www.w3.org/2000/svg"><g clip-path="url(#ra)"><path d="M25.266 0H7.734A7.734 7.734 0 000 7.734v17.532A7.734 7.734 0 007.734 33h17.532A7.734 7.734 0 0033 25.266V7.734A7.734 7.734 0 0025.266 0z"/><path d="M29.374 15.054l.017.017s-.194.136-.398.307c-6.457-4.775-10.401-2.524-11.64-1.921-5.627 3.14-4.001 10.847-3.968 11v.003h-8.98s.341-3.365 2.728-7.343c2.387-3.979 6.457-6.991 9.765-7.287 6.378-.639 12.126 4.882 12.476 5.224zm-15.648 7.133l1.228.443c.057.445.137.867.222 1.251l.05.227-1.363-.489c-.057-.341-.114-.83-.137-1.432zm-9.548-3.683l1.307.477c-.16.368-.362.84-.509 1.212l-.06.152-1.307-.477c.114-.307.353-.876.569-1.364zm10.06-.455l.818.648c-.09.35-.159.705-.207 1.064l-.031.266-.921-.728c.09-.409.193-.83.341-1.25zm2.012-3.171l.511.772c-.2.21-.385.419-.55.64l-.12.168-.546-.819a6.35 6.35 0 01.705-.761zm-8.14-1.683l.808.705c-.205.215-.402.438-.59.668l-.183.23-.875-.75c.261-.285.545-.569.84-.853zm11.266-.045l.25.75a6.808 6.808 0 00-.791.305l-.198.093-.261-.785a8.231 8.231 0 011-.363zm2.66-.273c.291.018.59.05.895.104l.23.044-.045.704a6.368 6.368 0 00-.9-.125l-.226-.011.046-.716zm-9.333-3.138l.512.785c-.222.11-.437.234-.655.366l-.22.134-.523-.796c.29-.171.586-.334.886-.489zm9.356-.432c.676.194.967.326 1.083.388l.02.01-.046.762a19.331 19.331 0 00-.731-.28l-.372-.13.046-.75zm-4.343-.67l.228.693h-.114c-.247 0-.495.007-.742.024l-.247.022-.216-.671a9.072 9.072 0 011.091-.068z"/></g><defs><clipPath id="ra"><path d="M0 0h33v33H0z"/></clipPath></defs></svg><svg viewBox="0 0 38 33" id="react-icon" xmlns="http://www.w3.org/2000/svg"><g clip-path="url(#sa)"><path d="M30.469 10.685a26.18 26.18 0 00-1.193-.376c.067-.275.13-.547.184-.813.903-4.383.313-7.914-1.703-9.077-1.933-1.114-5.094.048-8.287 2.827a24.59 24.59 0 00-.923.846 22.557 22.557 0 00-.614-.567C14.587.555 11.233-.698 9.22.468c-1.931 1.118-2.503 4.437-1.69 8.59.08.412.172.821.273 1.228a24.62 24.62 0 00-1.37.431C2.508 12.085.002 14.23.002 16.452c0 2.296 2.69 4.6 6.776 5.996.332.113.666.217 1.002.313-.11.438-.206.88-.29 1.323-.776 4.082-.17 7.322 1.755 8.433 1.99 1.147 5.328-.032 8.58-2.874a21 21 0 00.773-.712c.325.314.659.618 1.001.914 3.15 2.71 6.26 3.804 8.183 2.69 1.988-1.15 2.634-4.632 1.795-8.868-.066-.332-.14-.662-.222-.99.235-.07.465-.141.69-.216 4.247-1.407 7.01-3.682 7.01-6.01 0-2.23-2.586-4.388-6.587-5.766zm-.922 10.274c-.202.067-.41.132-.622.195-.469-1.485-1.102-3.063-1.876-4.694a37.13 37.13 0 001.803-4.626c.38.11.747.226 1.101.348 3.43 1.18 5.52 2.925 5.52 4.27 0 1.432-2.258 3.292-5.926 4.507zm-1.521 3.015c.37 1.873.423 3.567.178 4.89-.221 1.19-.665 1.983-1.214 2.301-1.167.676-3.664-.203-6.357-2.52a22.687 22.687 0 01-.932-.85c1.044-1.142 2.087-2.469 3.106-3.943a36.93 36.93 0 005.018-.774c.074.297.14.596.2.896zm-15.39 7.074c-1.14.403-2.05.415-2.599.098-1.169-.674-1.654-3.276-.992-6.767.08-.412.17-.823.27-1.23 1.519.336 3.199.577 4.994.723a38.557 38.557 0 003.18 3.93c-.23.222-.465.439-.705.65-1.438 1.256-2.878 2.148-4.148 2.596zM7.291 20.95c-1.806-.617-3.298-1.42-4.321-2.296-.92-.787-1.383-1.568-1.383-2.202 0-1.35 2.011-3.07 5.366-4.24.407-.142.833-.276 1.276-.401a37.957 37.957 0 001.806 4.68 38.558 38.558 0 00-1.83 4.746 19.36 19.36 0 01-.914-.287zM9.083 8.755c-.696-3.559-.234-6.243.93-6.917 1.24-.718 3.98.305 6.87 2.87.188.168.373.34.556.514a37.917 37.917 0 00-3.157 3.906 38.49 38.49 0 00-4.944.768c-.095-.378-.18-.759-.255-1.141zM25.066 12.7a50.127 50.127 0 00-1.127-1.853 35.36 35.36 0 013.379.59 33.803 33.803 0 01-1.186 3.191 55.275 55.275 0 00-1.066-1.928zm-6.518-6.348a33.85 33.85 0 012.18 2.632 46.613 46.613 0 00-4.379 0 34.92 34.92 0 012.199-2.632zm-6.56 6.36c-.363.63-.712 1.269-1.046 1.915a34.942 34.942 0 01-1.177-3.206 35.762 35.762 0 013.36-.577 46.552 46.552 0 00-1.137 1.867zm1.17 9.458a33.701 33.701 0 01-3.415-.549c.327-1.056.73-2.154 1.201-3.271a46.413 46.413 0 002.214 3.82zm5.434 4.491a35.453 35.453 0 01-2.23-2.668c.71.028 1.433.042 2.168.042.755 0 1.502-.017 2.237-.05a33.654 33.654 0 01-2.175 2.676zm7.555-8.368a33.581 33.581 0 011.244 3.26 33.603 33.603 0 01-3.456.589c.391-.621.77-1.25 1.137-1.886a50.23 50.23 0 001.075-1.963zM23.7 19.466a51.832 51.832 0 01-1.778 2.868c-1.129.08-2.26.12-3.393.12-1.153 0-2.274-.036-3.355-.106a44.909 44.909 0 01-3.391-5.858 44.487 44.487 0 013.373-5.847 44.792 44.792 0 016.753 0c.629.93 1.224 1.88 1.786 2.851a51.85 51.85 0 011.597 2.973 47.693 47.693 0 01-1.592 3zm3.265-17.675c1.24.715 1.723 3.6.944 7.385-.05.241-.106.487-.167.737a37.892 37.892 0 00-4.954-.783 37.183 37.183 0 00-3.132-3.91c.278-.267.562-.527.852-.78 2.736-2.381 5.292-3.321 6.457-2.65zM18.53 13.143a3.309 3.309 0 110 6.618 3.309 3.309 0 010-6.618z"/></g><defs><clipPath id="sa"><path d="M0 0h37.06v33H0z"/></clipPath></defs></svg><svg viewBox="0 0 25 26" id="services-icon-link" xmlns="http://www.w3.org/2000/svg"><circle cx="12.272" cy="13.002" r="11.712"/><path d="M18.55 13.354a.5.5 0 000-.707l-3.18-3.182a.5.5 0 00-.707.707l2.828 2.829-2.828 2.828a.5.5 0 10.707.707l3.182-3.182zm-12.204.147h11.851v-1H6.346v1z"/></svg><svg viewBox="0 0 15 15" id="star-icon" xmlns="http://www.w3.org/2000/svg"><path d="M6.823 1.45c.3-.922 1.603-.922 1.902 0l1 3.076a1 1 0 00.951.69h3.235c.969 0 1.372 1.24.588 1.81l-2.617 1.901a1 1 0 00-.364 1.118l1 3.077c.3.921-.755 1.687-1.539 1.118l-2.617-1.902a1 1 0 00-1.175 0L4.57 14.24c-.784.57-1.839-.197-1.54-1.118l1-3.077a1 1 0 00-.363-1.118L1.05 7.026c-.784-.57-.38-1.81.588-1.81h3.235a1 1 0 00.95-.69l1-3.077z"/></svg><svg viewBox="0 0 33 33" id="vue-icon" xmlns="http://www.w3.org/2000/svg"><path d="M25.163 4.048h5.774L16.5 28.952 2.062 4.048h11.045L16.5 9.823l3.32-5.775h5.343z"/><path d="M2.063 4.048L16.5 28.952 30.938 4.048h-5.775L16.5 18.99 7.765 4.048H2.063z"/><path d="M7.766 4.048L16.5 19.063l8.663-15.015H19.82L16.5 9.823l-3.394-5.775h-5.34z"/></svg><svg viewBox="0 0 51 51" id="webflow-icon" xmlns="http://www.w3.org/2000/svg"><path d="M44.672 27.424c0 10.742-8.79 19.531-19.531 19.531-10.743 0-19.532-8.789-19.532-19.531 0-10.742 8.79-19.531 19.532-19.531s19.53 8.789 19.53 19.53z"/><path d="M31.098 24.914s-1.69 5.293-1.817 5.742c-.049-.449-1.279-9.96-1.279-9.96-2.88 0-4.414 2.04-5.225 4.218 0 0-2.05 5.313-2.216 5.762-.01-.42-.313-5.703-.313-5.703-.176-2.657-2.598-4.268-4.56-4.268L18.05 35.12c3.017-.01 4.639-2.05 5.488-4.219 0 0 1.807-4.687 1.885-4.902.02.205 1.299 9.121 1.299 9.121 3.017 0 4.648-1.914 5.527-4.004l4.219-10.42c-2.989 0-4.56 2.041-5.371 4.22z"/></svg><svg viewBox="0 0 33 33" id="xd-icon" xmlns="http://www.w3.org/2000/svg"><g clip-path="url(#xa)"><path d="M25.266 0H7.734A7.734 7.734 0 000 7.734v17.532A7.734 7.734 0 007.734 33h17.532A7.734 7.734 0 0033 25.266V7.734A7.734 7.734 0 0025.266 0z"/><path d="M17.304 10.34l-3.867 6.381 4.125 6.768c.026.051.039.103.026.154-.013.052-.065.013-.142.026h-2.952c-.206 0-.348-.013-.438-.142-.27-.541-.554-1.07-.825-1.611a48.69 48.69 0 00-.877-1.624c-.31-.555-.618-1.109-.928-1.676H11.4c-.27.554-.567 1.108-.863 1.663-.297.554-.593 1.108-.877 1.65-.296.541-.593 1.096-.89 1.624-.05.129-.154.142-.296.142H5.638c-.051 0-.09.026-.09-.039a.179.179 0 01.026-.142l4.009-6.574-3.906-6.613c-.039-.051-.052-.103-.026-.129.026-.038.077-.051.13-.051h2.925a.76.76 0 01.18.026c.052.025.09.064.13.116.245.554.528 1.108.825 1.662.309.555.606 1.096.928 1.638.31.541.593 1.082.863 1.637h.026c.27-.568.555-1.122.838-1.663.284-.542.58-1.083.877-1.624.296-.542.58-1.096.863-1.625.013-.051.039-.103.078-.129a.248.248 0 01.167-.025h2.72a.119.119 0 01.142.09c.013.013-.013.064-.039.09zm5.956 13.6a6.408 6.408 0 01-2.772-.58 4.493 4.493 0 01-1.946-1.753c-.477-.787-.71-1.766-.71-2.94a5.294 5.294 0 01.71-2.72 5.352 5.352 0 012.05-1.997c.902-.503 1.985-.748 3.26-.748.065 0 .155 0 .271.013.116.013.245.013.4.026V9.167c0-.09.039-.142.129-.142h2.617c.064-.012.116.04.129.09v12.298c0 .232.012.49.025.774.026.27.04.528.052.747 0 .09-.039.168-.129.207-.67.283-1.38.49-2.101.618-.658.116-1.315.18-1.985.18zm1.263-2.578V15.69a3.294 3.294 0 00-.348-.065c-.142-.012-.284-.025-.425-.025-.503 0-1.006.103-1.457.335a2.89 2.89 0 00-1.096.954c-.283.412-.425.966-.425 1.637-.013.451.064.902.219 1.328.129.348.322.657.58.915.245.232.541.412.877.515.348.116.709.168 1.07.168.193 0 .373-.013.541-.026.168.013.31-.013.464-.064z"/></g><defs><clipPath id="xa"><path d="M0 0h33v33H0z"/></clipPath></defs></svg><svg viewBox="0 0 27 26" id="youtube-icon" xmlns="http://www.w3.org/2000/svg"><g clip-path="url(#ya)"><path d="M13.082 10.709a2.329 2.329 0 00-2.326 2.325 2.33 2.33 0 002.326 2.327 2.328 2.328 0 002.326-2.327 2.329 2.329 0 00-2.326-2.325z"/><path d="M13.082 0c-7.18 0-13 5.82-13 13s5.82 13 13 13 13-5.82 13-13-5.82-13-13-13z"/><path fill-rule="evenodd" clip-rule="evenodd" d="M13.082 7.767c-2.093 0-4.81.527-4.81.527l-.006.007a2.001 2.001 0 00-1.684 1.977v5.377a2.007 2.007 0 001.689 1.981l.001.003s2.717.528 4.81.528c2.093 0 4.81-.528 4.81-.528a2.008 2.008 0 001.69-1.983v-5.378a2.006 2.006 0 00-1.688-1.981c-.002-.003-2.719-.53-4.812-.53zm-1.3 2.925l3.9 2.275-3.9 2.275v-4.55z"/></g><defs><clipPath id="ya"><path transform="translate(.082)" d="M0 0h26v26H0z"/></clipPath></defs></svg></svg>