<?xml version="1.0" encoding="utf-8"?><svg viewBox="0 0 105 76" xmlns="http://www.w3.org/2000/svg" xmlns:xlink="http://www.w3.org/1999/xlink"><style>:root>svg{display:none}:root>svg:target{display:block}</style><svg viewBox="0 0 9 14" id="arrow-down" xmlns="http://www.w3.org/2000/svg"><path d="M4.283 13.155a.5.5 0 00.707 0l3.182-3.182a.5.5 0 00-.707-.707l-2.828 2.828-2.829-2.828a.5.5 0 00-.707.707l3.182 3.182zM4.137.95v11.852h1V.95h-1z"/></svg><svg viewBox="0 0 76 76" id="delivering-icon-1" xmlns="http://www.w3.org/2000/svg"><g clip-path="url(#ba)"><path d="M37.504 36.733a1.172 1.172 0 100-2.343 1.172 1.172 0 000 2.343z"/><path d="M37.504 41.42c3.23 0 5.86-2.628 5.86-5.858 0-1.192-.363-2.3-.977-3.227l3.61-3.609a5.823 5.823 0 003.226.976 5.866 5.866 0 005.859-5.86 5.867 5.867 0 00-5.86-5.859 5.866 5.866 0 00-5.859 5.86c0 1.192.362 2.299.977 3.226l-3.61 3.61a5.823 5.823 0 00-3.226-.977 5.87 5.87 0 00-5.741 4.688h-2.678a3.511 3.511 0 00-3.3-2.344 3.52 3.52 0 00-3.515 3.516 3.52 3.52 0 003.515 3.515 3.511 3.511 0 003.3-2.344h2.678a5.87 5.87 0 005.74 4.688zm11.719-21.093a3.52 3.52 0 013.515 3.516 3.52 3.52 0 01-3.515 3.515 3.52 3.52 0 01-3.516-3.515 3.52 3.52 0 013.516-3.516zm-11.72 11.719a3.52 3.52 0 013.517 3.516 3.52 3.52 0 01-3.516 3.515 3.52 3.52 0 01-3.516-3.515 3.52 3.52 0 013.516-3.516zm-11.718 4.687a1.173 1.173 0 010-2.343 1.173 1.173 0 010 2.343zM49.223.538h2.343v2.344h-2.343V.538zm2.343 2.344h2.344v2.344h-2.344V2.882zm-4.687 0h2.344v2.344h-2.344V2.882zm2.344 2.344h2.343v2.343h-2.343V5.226z"/><path d="M49.223 25.015a1.172 1.172 0 100-2.344 1.172 1.172 0 000 2.344zM2.576 55.484h3.287v9.375h2.344V53.14h-1.4l3.744-5.992 3.744 5.992h-1.4v21.094h2.343v-18.75h3.287l-7.974-12.758-7.975 12.758z"/><path d="M5.863 67.202h2.344v7.031H5.863v-7.03zM59.77 15.64h2.343v-4.688h-1.4l3.744-5.991 3.744 5.992h-1.4v21.093h2.343v-18.75h3.288L64.457.538l-7.975 12.758h3.288v2.344z"/><path d="M72.678 49.611a3.329 3.329 0 01-2.542-2.021 3.33 3.33 0 01.37-3.225l.679-.952-6.375-6.376-.953.68c-.809.577-1.803.736-2.745.5.6-1.971.933-4.042.982-6.171h.02V17.983H59.77v3.497C56.043 13.873 48.242 8.608 39.213 8.608h-3.42c-1.37 0-2.706.143-4.01.374l-5.915-5.914-1.71 1.708c-.309.31-.77.396-1.212.216a1.076 1.076 0 01-.677-.997V1.577h-9.375v2.418c0 .438-.266.83-.707 1.01a1.08 1.08 0 01-1.183-.229l-1.71-1.708-6.629 6.628 1.709 1.71c.31.31.398.773.217 1.214a1.08 1.08 0 01-.999.676H1.176v9.375h2.417c.437 0 .829.266 1.01.708.17.409.08.873-.23 1.182l-1.707 1.71 6.629 6.628 1.71-1.709c.309-.308.77-.397 1.212-.215.412.167.678.559.678.997h.016c.17 8.542 4.973 16.184 12.642 20.018l1.404.702v2.791a2.346 2.346 0 002.344 2.344h4.687v.994l1.16.192a3.305 3.305 0 011.997 1.158h-7.844a2.346 2.346 0 00-2.344 2.344v1.172c0 5.814 4.73 10.546 10.547 10.546 3.314 0 6.273-1.54 8.208-3.938.506-.03 1.012.05 1.484.245a3.31 3.31 0 012.013 2.533l.194 1.16h9.018l.188-1.153a3.324 3.324 0 012.023-2.541 3.324 3.324 0 013.225.369l.953.68 6.376-6.377-.679-.95a3.336 3.336 0 01-.369-3.232 3.317 3.317 0 012.534-2.016l1.16-.192v-9.018l-1.154-.192zm-26.971 10.56h-.55a10.456 10.456 0 01-1.182-2.344h1.732c.26 0 .506-.053.74-.131 1.292 2.837 4.148 4.819 7.463 4.819 4.522 0 8.203-3.68 8.203-8.203a8.167 8.167 0 00-5.604-7.785 22.825 22.825 0 001.512-1.93 10.518 10.518 0 016.436 9.715c0 5.814-4.73 10.546-10.547 10.546-2.113 0-4.124-.62-5.86-1.784v-.56a2.346 2.346 0 00-2.343-2.343zm4.688-11.425c-.64.413-1.297.802-1.988 1.148l-.356.178V34.39h2.343v14.356zm-2.344 3.946l1.404-.702a23.11 23.11 0 005.103-3.476c2.952.325 5.212 2.775 5.212 5.797a5.867 5.867 0 01-5.86 5.86 5.866 5.866 0 01-5.86-5.86v-1.619zM9.348 29.532l-.052.052-3.314-3.315.051-.052c.982-.98 1.272-2.448.727-3.76a3.414 3.414 0 00-3.167-2.13H3.52V15.64h.073c1.393 0 2.635-.836 3.176-2.154a3.416 3.416 0 00-.736-3.736l-.051-.053 3.314-3.315.052.051c.981.981 2.446 1.268 3.761.727a3.411 3.411 0 002.13-3.165V3.92h4.687v.074c0 1.392.835 2.635 2.155 3.177a3.419 3.419 0 003.736-.736l.052-.053 3.23 3.23a22.73 22.73 0 00-4.63 2.019 9.415 9.415 0 00-6.887-3.024c-5.17 0-9.375 4.206-9.375 9.375 0 3.607 2.092 6.855 5.284 8.41a22.76 22.76 0 00-.42 2.399 3.419 3.419 0 00-3.723.74zm6.796-9.722a2.344 2.344 0 01-.906-1.827 2.346 2.346 0 012.344-2.343c.491 0 .95.167 1.338.441a22.97 22.97 0 00-2.776 3.73zm4.465-5.396a4.667 4.667 0 00-3.027-1.118 4.692 4.692 0 00-4.688 4.687c0 1.602.84 3.067 2.14 3.92a22.877 22.877 0 00-.89 2.206 7.045 7.045 0 01-3.593-6.126 7.038 7.038 0 017.031-7.03c1.825 0 3.57.73 4.87 1.98-.64.463-1.254.957-1.843 1.48zm5.992 35.48a20.974 20.974 0 01-1.988-1.148v-4.981h2.344v6.307l-.356-.178zM22.27 41.42v5.565c-4.42-3.841-7.032-9.42-7.032-15.478 0-11.334 9.222-20.556 20.556-20.556h3.42c11.334 0 20.556 9.222 20.556 20.556 0 6.059-2.611 11.637-7.032 15.478v-14.94h-7.031v23.437h-4.688V43.765h-7.03v11.718H29.3V41.421h-7.03zm16.406 14.062h-2.344v-9.375h2.344v9.375zm1.172 4.65c-.39-.94-1.025-1.71-1.797-2.306h3.472c.23.809.542 1.593.926 2.344h-2.59l-.011-.039zM37.504 71.89c-4.522 0-8.203-3.68-8.203-8.203v-1.172h16.406v1.172c0 4.523-3.68 8.203-8.203 8.203zm33.984-14.997a5.644 5.644 0 00-3.515 3.24 5.659 5.659 0 00.194 4.782l-3.654 3.652a5.649 5.649 0 00-4.778-.195 5.651 5.651 0 00-3.242 3.516h-5.165a5.64 5.64 0 00-3.236-3.515 5.676 5.676 0 00-1.01-.3c.345-.752.61-1.548.772-2.384a12.763 12.763 0 006.056 1.513c7.108 0 12.89-5.783 12.89-12.89a12.85 12.85 0 00-7.535-11.72 22.85 22.85 0 001.04-2.141 5.648 5.648 0 004.208-.395l3.653 3.652a5.655 5.655 0 00-.196 4.78 5.656 5.656 0 003.518 3.242v5.163z"/></g><defs><clipPath id="ba"><path transform="translate(.004 .405)" d="M0 0h75v75H0z"/></clipPath></defs></svg><svg viewBox="0 0 76 76" id="delivering-icon-2" xmlns="http://www.w3.org/2000/svg"><path d="M2.81 65.347h1.782c.122.347.263.686.42 1.018l-1.26 1.26a1.17 1.17 0 000 1.656l3.322 3.322c.44.439 1.217.439 1.657 0l1.26-1.261c.332.158.671.297 1.017.42v1.784c0 .647.525 1.172 1.172 1.172h4.697c.646 0 1.171-.525 1.171-1.172v-1.787a10.43 10.43 0 001.013-.42l1.264 1.265a1.17 1.17 0 001.657 0l3.322-3.321a1.17 1.17 0 000-1.657l-1.266-1.266c.157-.33.296-.667.418-1.011h1.792c.647 0 1.172-.525 1.172-1.172V59.48c0-.647-.525-1.172-1.172-1.172h-1.79a10.446 10.446 0 00-.419-1.011l1.266-1.266a1.171 1.171 0 000-1.657l-3.321-3.321c-.44-.44-1.218-.44-1.657 0l-1.265 1.264a11.17 11.17 0 00-1.012-.42v-1.789c0-.646-.525-1.171-1.172-1.171H12.18c-.647 0-1.172.525-1.172 1.171v1.784a10.44 10.44 0 00-1.016.42l-1.26-1.262a1.17 1.17 0 00-1.657 0l-3.321 3.32a1.17 1.17 0 000 1.658l1.26 1.26c-.159.332-.3.671-.422 1.018H2.81c-.647 0-1.172.525-1.172 1.172v4.697c0 .647.525 1.171 1.172 1.171zm1.172-4.696h1.476c.534 0 1-.363 1.134-.88a8.14 8.14 0 01.87-2.102 1.172 1.172 0 00-.18-1.423L6.238 55.2l1.664-1.664 1.044 1.046c.377.377.961.452 1.424.18a8.126 8.126 0 012.102-.868c.518-.134.878-.6.878-1.135v-1.48h2.354v1.481c0 .535.36 1.001.877 1.135.74.192 1.446.485 2.1.87.46.271 1.048.198 1.424-.18l1.048-1.049 1.664 1.664-1.05 1.05a1.172 1.172 0 00-.18 1.424c.384.653.675 1.358.866 2.099.134.517.6.879 1.135.879h1.488v2.353h-1.485c-.534 0-1 .361-1.134.879a8.196 8.196 0 01-.867 2.099 1.172 1.172 0 00.18 1.424l1.05 1.048-1.665 1.665-1.048-1.052a1.172 1.172 0 00-1.423-.18 8.157 8.157 0 01-2.1.87c-.517.134-.878.6-.878 1.135v1.48h-2.353v-1.479c0-.534-.362-1-.88-1.134a8.15 8.15 0 01-2.1-.869 1.175 1.175 0 00-1.424.18l-1.044 1.045-1.664-1.664 1.043-1.043a1.17 1.17 0 00.18-1.424 8.156 8.156 0 01-.87-2.102 1.172 1.172 0 00-1.135-.88H3.982V60.65z"/><path d="M14.53 67.686a5.866 5.866 0 005.859-5.859c0-3.23-2.629-5.86-5.86-5.86a5.866 5.866 0 00-5.86 5.86c0 3.231 2.63 5.86 5.86 5.86zm0-9.375a3.52 3.52 0 013.515 3.516 3.52 3.52 0 01-3.516 3.516 3.52 3.52 0 01-3.515-3.516 3.52 3.52 0 013.515-3.515zM74.234 8.233a1.172 1.172 0 00-.933-.787L69.06 6.8l-1.907-4.062a1.172 1.172 0 00-2.122-.002l-1.907 4.063-4.24.647a1.172 1.172 0 00-.662 1.977l3.102 3.18-.733 4.504a1.172 1.172 0 001.723 1.215l3.777-2.088 3.778 2.088a1.174 1.174 0 001.724-1.215l-.733-4.505 3.102-3.179a1.17 1.17 0 00.271-1.19zM68.77 11.39a1.17 1.17 0 00-.318 1.006l.44 2.706-2.233-1.234a1.172 1.172 0 00-1.134 0l-2.234 1.234.44-2.706a1.17 1.17 0 00-.317-1.006L61.49 9.419l2.604-.398c.387-.06.719-.307.884-.66l1.114-2.369 1.112 2.368c.167.354.498.602.884.661l2.604.398-1.923 1.97zm-12.783 4.823a2.36 2.36 0 00-1.805.47l-9.195 7.192a5.815 5.815 0 00.645-3.18 5.818 5.818 0 00-2.059-3.984 5.824 5.824 0 00-4.273-1.362 5.827 5.827 0 00-3.984 2.059 5.8 5.8 0 00.204 7.75 5.81 5.81 0 00-3.375 2.3L22.912 40.06a2.322 2.322 0 00-.11 2.514 2.327 2.327 0 002.228 1.166l2.808-.238a2.322 2.322 0 001.687-.942l5.574-7.334.422 5.004-2.77 18.994a50.546 50.546 0 01-3.15.554l.324 2.32a52.942 52.942 0 0010.786-2.687c6.75-2.46 12.146-6.003 16.306-9.56l.262-.078-.036-.122c4.014-3.471 6.859-6.936 8.63-9.408a1.17 1.17 0 00-.67-1.819l-1.807-.452 6.58-3.655 1.554 6.994-1.551-.517a1.171 1.171 0 00-1.349.466l-.194.293C53.704 63.982 37.328 69.42 26.184 70.031l.127 2.34c11.605-.637 28.587-6.212 43.778-29.07l2.661.887a1.17 1.17 0 001.514-1.366l-2.343-10.547a1.169 1.169 0 00-1.714-.77l-10.546 5.86a1.17 1.17 0 00.285 2.16l2.983.746a52.96 52.96 0 01-6.425 6.905l-2.09-7.01a2.343 2.343 0 00-1.174-1.372l-4.818-2.51-.753-5.728 10.73-8.175a2.341 2.341 0 00.516-3.184l-1.355-1.99a2.345 2.345 0 00-1.573-.994zm-16.49 1.473a3.489 3.489 0 012.564.817 3.495 3.495 0 011.235 2.39 3.493 3.493 0 01-.816 2.564 3.49 3.49 0 01-2.391 1.235 3.482 3.482 0 01-2.564-.817 3.491 3.491 0 01-1.235-2.39 3.52 3.52 0 013.207-3.8zm1.593 39.063l2.438-14.073 4.308 2.09 2.547 7.149a50.215 50.215 0 01-9.293 4.834zm4.62-27.645a1.174 1.174 0 00-.452 1.086l.921 7.006c.05.379.282.71.621.886l5.377 2.78 2.381 7.988a52.453 52.453 0 01-2.182 1.681l-2.346-6.586a2.336 2.336 0 00-1.148-1.245l-5.727-2.81a1.18 1.18 0 00-1.05.009c-.328.167-.56.48-.621.843L38.55 57.667a50.674 50.674 0 01-3.348.994l2.658-18.223a1.21 1.21 0 00.009-.269l-.69-8.173a1.17 1.17 0 00-2.1-.611l-7.438 9.784-2.822.258 9.233-12.603a3.514 3.514 0 012.585-1.488l3.648-.308h.002l4.671-.395c.228-.02.444-.104.624-.245l10.045-7.859 1.356 1.99-11.273 8.585zM5.154 3.233h2.344v2.344H5.154V3.233zm2.344 2.344h2.344v2.344H7.498V5.577zm-4.688 0h2.344v2.344H2.811V5.577zM5.154 7.92h2.344v2.345H5.154V7.92zm9.376-1.171h2.343v2.344h-2.344V6.749zm2.343 2.344h2.344v2.344h-2.344V9.093zm-4.688 0h2.344v2.344h-2.344V9.093zm2.345 2.344h2.343v2.343h-2.344v-2.343zm53.906 55.078h2.343v2.343h-2.343v-2.343zm2.344 2.343h2.343v2.344h-2.344v-2.344zm-4.688 0h2.344v2.344h-2.344v-2.344zm2.344 2.344h2.343v2.344h-2.343v-2.344z"/></svg><svg viewBox="0 0 76 76" id="delivering-icon-3" xmlns="http://www.w3.org/2000/svg"><g clip-path="url(#da)"><path d="M27.18 42.312a12.126 12.126 0 01-5.46 1.84 4.991 4.991 0 00-4.798-3.674h-6.25a5 5 0 00-5 5v25a5 5 0 005 5h6.25a5 5 0 004.815-3.725 8.169 8.169 0 013.062.773c.483.229.944.5 1.407.767.69.421 1.409.793 2.15 1.113a16.344 16.344 0 006.066 1.072h22.5a5 5 0 004.142-7.796 4.978 4.978 0 002.5-7.5 4.966 4.966 0 00.9-8.985 4.942 4.942 0 001.208-3.219 5 5 0 00-5-5h-15.79c1.955-3.722 5.507-12.043 2.05-18.096-1.521-2.659-4.7-4.739-8.076-3.019-3.523 1.79-2.734 5.327-2.354 7.024.969 4.355-2.168 8.873-9.323 13.425zM16.921 72.978h-6.25a2.5 2.5 0 01-2.5-2.5v-25a2.5 2.5 0 012.5-2.5h6.25a2.5 2.5 0 012.5 2.5v25a2.5 2.5 0 01-2.5 2.5zm22.02-44.635c-.565-2.528-.311-3.56 1.047-4.25 2.205-1.125 4.04.75 4.773 2.032 3.736 6.542-3.014 17.326-3.083 17.435a1.25 1.25 0 001.055 1.918h17.938a2.5 2.5 0 010 5h-7.5a1.25 1.25 0 000 2.5h8.75a2.5 2.5 0 010 5h-8.75a1.25 1.25 0 000 2.5h6.25a2.5 2.5 0 010 5h-6.25a1.25 1.25 0 000 2.5h3.75a2.5 2.5 0 010 5h-22.5c-1.75.03-3.489-.271-5.125-.89a14.954 14.954 0 01-1.836-.957 22.295 22.295 0 00-1.584-.861 10.687 10.687 0 00-3.955-1V46.667a14.651 14.651 0 006.599-2.25c8.137-5.172 11.643-10.581 10.42-16.074zM53.185 1.692v.036c0 .46-.114 11.25-10.011 11.25a1.25 1.25 0 000 2.5c9.859 0 10.01 10.792 10.011 11.25a1.25 1.25 0 102.5.034v-.034c0-.46.114-11.25 10.013-11.25a1.25 1.25 0 000-2.5c-9.86 0-10.01-10.793-10.013-11.25a1.25 1.25 0 00-2.5-.034v-.002zm6.813 12.536a11.875 11.875 0 00-5.564 6.295 11.868 11.868 0 00-5.564-6.295 11.867 11.867 0 005.564-6.295 11.875 11.875 0 005.564 6.295z"/><path d="M21.922 16.728v-.007a1.25 1.25 0 10-2.5.007c0 .307-.105 7.5-6.25 7.5a1.25 1.25 0 100 2.5c6.145 0 6.25 7.197 6.25 7.5v.008a1.25 1.25 0 102.5-.008c0-.306.105-7.5 6.25-7.5a1.25 1.25 0 000-2.5c-6.145 0-6.25-7.196-6.25-7.5zm1.68 8.75a8.402 8.402 0 00-2.93 3.392 8.402 8.402 0 00-2.93-3.392 8.394 8.394 0 002.93-3.39 8.393 8.393 0 002.93 3.39zm40.195 6.488h2.344v2.344h-2.344v-2.344zm2.343 2.344h2.344v2.343h-2.343V34.31zm-4.687 0h2.344v2.343h-2.344V34.31z"/><path d="M63.797 36.653h2.344v2.344h-2.344v-2.344zM28.25 4.862h2.344v2.344H28.25V4.862zm2.344 2.344h2.343V9.55h-2.343V7.206zm-4.688 0h2.344V9.55h-2.344V7.206zM28.25 9.55h2.344v2.344H28.25V9.55z"/></g><defs><clipPath id="da"><path transform="translate(.672 .478)" d="M0 0h75v75H0z"/></clipPath></defs></svg><svg viewBox="0 0 27 26" id="fb-icon" xmlns="http://www.w3.org/2000/svg"><g clip-path="url(#ea)"><path d="M13.082 26c7.18 0 13-5.82 13-13s-5.82-13-13-13-13 5.82-13 13 5.82 13 13 13z"/><path d="M15.856 12.987h-1.773v6.46h-2.688v-6.46h-1.278v-2.27h1.278v-1.47c0-1.05.502-2.695 2.712-2.695l1.99.008v2.204h-1.444c-.237 0-.57.118-.57.619v1.336h2.008l-.235 2.268z"/></g><defs><clipPath id="ea"><path transform="translate(.082)" d="M0 0h26v26H0z"/></clipPath></defs></svg><svg viewBox="0 0 25 26" id="link-down" xmlns="http://www.w3.org/2000/svg"><circle cx="12.636" cy="12.876" r="11.712" transform="rotate(90 12.636 12.876)"/><path d="M12.283 19.155a.5.5 0 00.707 0l3.182-3.182a.5.5 0 00-.707-.707l-2.828 2.828-2.829-2.828a.5.5 0 10-.707.707l3.182 3.182zM12.137 6.95v11.852h1V6.95h-1z"/></svg><svg viewBox="0 0 27 26" id="linkedin-icon" xmlns="http://www.w3.org/2000/svg"><circle cx="13.082" cy="13" r="10.732"/><path fill-rule="evenodd" clip-rule="evenodd" d="M13.082 26c7.18 0 13-5.82 13-13s-5.82-13-13-13-13 5.82-13 13 5.82 13 13 13zm-5.36-6.688c.838 0 1.518-.68 1.518-1.519v-6.726a1.518 1.518 0 00-3.037 0v6.726c0 .839.68 1.519 1.519 1.519zM7.69 8.153a1.77 1.77 0 11-.002-3.54 1.77 1.77 0 01.002 3.54zm11.407 11.16c.838 0 1.518-.68 1.518-1.518v-3.837c0-2.63-.569-4.651-3.644-4.651-1.468 0-2.456.8-2.866 1.563a.026.026 0 01-.048-.012v-.642a.667.667 0 00-.667-.667h-.79c-.804 0-1.457.653-1.457 1.457v6.789a1.517 1.517 0 003.035 0v-3.313c0-1.273.243-2.506 1.824-2.506 1.557 0 1.578 1.456 1.578 2.588v3.23c0 .839.68 1.518 1.517 1.518z"/></svg><svg viewBox="0 0 105 33" id="logo" xmlns="http://www.w3.org/2000/svg"><g clip-path="url(#ha)" fill-rule="evenodd" clip-rule="evenodd"><path d="M25.963 11.953v14.703h5.19v5.19h-5.19c-2.854 0-5.189-2.336-5.189-5.19h-.432c-1.557 2.984-4.41 5.19-7.784 5.838a11.8 11.8 0 01-2.162.216A10.353 10.353 0 01.018 22.332a10.353 10.353 0 0110.378-10.379V5.9h-5.19C2.354 5.9.019 3.564.019.71h9.08a6.478 6.478 0 006.487 6.486v4.757h5.19V5.9h-5.19c-2.854 0-5.189-2.335-5.189-5.189h10.378c2.854 0 5.19 2.335 5.19 5.19v6.053zm-10.81 4.757h5.19v3.322a2.595 2.595 0 10-.14 3.059c-.542 2.285-2.605 3.997-5.05 3.997-2.854 0-5.19-2.335-5.19-5.189s2.336-5.189 5.19-5.189zm16-16h6.054l3.027 26.205h.562L45.423.71h7.265l4.584 26.205h.562L60.904.71H66.7l-4.37 31.135h-8.95L49.228 7.672h-.562L44.43 31.845h-8.952L31.153.71zm37.102 0h6.055l3.026 26.205h.563L82.525.71h7.264l4.584 26.205h.563L98.006.71h5.795l-4.368 31.135h-8.952l-4.15-24.173h-.563L81.53 31.845h-8.95L68.255.71z"/><g clip-path="url(#hb)"><path d="M25.963 11.953v14.703h5.19v5.19h-5.19c-2.854 0-5.189-2.336-5.189-5.19h-.432c-1.557 2.984-4.41 5.19-7.784 5.838a11.8 11.8 0 01-2.162.216A10.353 10.353 0 01.018 22.332a10.353 10.353 0 0110.378-10.379V5.9h-5.19C2.354 5.9.019 3.564.019.71h9.08a6.478 6.478 0 006.487 6.486v4.757h5.19V5.9h-5.19c-2.854 0-5.189-2.335-5.189-5.189h10.378c2.854 0 5.19 2.335 5.19 5.19v6.053zm-10.81 4.757h5.19v3.322a2.595 2.595 0 10-.14 3.059c-.542 2.285-2.605 3.997-5.05 3.997-2.854 0-5.19-2.335-5.19-5.189s2.336-5.189 5.19-5.189zm16-16h6.054l3.027 26.205h.562L45.423.71h7.265l4.584 26.205h.562L60.904.71H66.7l-4.37 31.135h-8.95L49.228 7.672h-.562L44.43 31.845h-8.952L31.153.71zm37.102 0h6.055l3.026 26.205h.563L82.525.71h7.264l4.584 26.205h.563L98.006.71h5.795l-4.368 31.135h-8.952l-4.15-24.173h-.563L81.53 31.845h-8.95L68.255.71z"/><path d="M25.963 11.953v14.703h5.19v5.19h-5.19c-2.854 0-5.189-2.336-5.189-5.19h-.432c-1.557 2.984-4.41 5.19-7.784 5.838a11.8 11.8 0 01-2.162.216A10.353 10.353 0 01.018 22.332a10.353 10.353 0 0110.378-10.379V5.9h-5.19C2.354 5.9.019 3.564.019.71h9.08a6.478 6.478 0 006.487 6.486v4.757h5.19V5.9h-5.19c-2.854 0-5.189-2.335-5.189-5.189h10.378c2.854 0 5.19 2.335 5.19 5.19v6.053zm-10.81 4.757h5.19v3.322a2.595 2.595 0 10-.14 3.059c-.542 2.285-2.605 3.997-5.05 3.997-2.854 0-5.19-2.335-5.19-5.189s2.336-5.189 5.19-5.189zm16-16h6.054l3.027 26.205h.562L45.423.71h7.265l4.584 26.205h.562L60.904.71H66.7l-4.37 31.135h-8.95L49.228 7.672h-.562L44.43 31.845h-8.952L31.153.71zm37.102 0h6.055l3.026 26.205h.563L82.525.71h7.264l4.584 26.205h.563L98.006.71h5.795l-4.368 31.135h-8.952l-4.15-24.173h-.563L81.53 31.845h-8.95L68.255.71z"/></g></g><g clip-path="url(#hc)"><path fill-rule="evenodd" clip-rule="evenodd" d="M25.963 11.953v14.703h5.19v5.19h-5.19c-2.854 0-5.189-2.336-5.189-5.19h-.432c-1.557 2.984-4.41 5.19-7.784 5.838a11.8 11.8 0 01-2.162.216A10.353 10.353 0 01.018 22.332a10.353 10.353 0 0110.378-10.379V5.9h-5.19C2.354 5.9.019 3.564.019.71h9.08a6.478 6.478 0 006.487 6.486v4.757h5.19V5.9h-5.19c-2.854 0-5.189-2.335-5.189-5.189h10.378c2.854 0 5.19 2.335 5.19 5.19v6.053zm-10.81 4.757h5.19v3.322a2.595 2.595 0 10-.14 3.059c-.542 2.285-2.605 3.997-5.05 3.997-2.854 0-5.19-2.335-5.19-5.189s2.336-5.189 5.19-5.189zm16-16h6.054l3.027 26.205h.562L45.423.71h7.265l4.584 26.205h.562L60.904.71H66.7l-4.37 31.135h-8.95L49.228 7.672h-.562L44.43 31.845h-8.952L31.153.71zm37.102 0h6.055l3.026 26.205h.563L82.525.71h7.264l4.584 26.205h.563L98.006.71h5.795l-4.368 31.135h-8.952l-4.15-24.173h-.563L81.53 31.845h-8.95L68.255.71z"/></g><defs><clipPath id="ha"><path transform="translate(.018 .71)" d="M0 0h104v32H0z"/></clipPath><clipPath id="hb"><path transform="translate(31.018 .71)" d="M0 0h73v32H0z"/></clipPath><clipPath id="hc"><path transform="translate(.018 .71)" d="M0 0h31v32H0z"/></clipPath></defs></svg><svg viewBox="0 0 15 15" id="star-icon" xmlns="http://www.w3.org/2000/svg"><path d="M6.823 1.45c.3-.922 1.603-.922 1.902 0l1 3.076a1 1 0 00.951.69h3.235c.969 0 1.372 1.24.588 1.81l-2.617 1.901a1 1 0 00-.364 1.118l1 3.077c.3.921-.755 1.687-1.539 1.118l-2.617-1.902a1 1 0 00-1.175 0L4.57 14.24c-.784.57-1.839-.197-1.54-1.118l1-3.077a1 1 0 00-.363-1.118L1.05 7.026c-.784-.57-.38-1.81.588-1.81h3.235a1 1 0 00.95-.69l1-3.077z"/></svg><svg viewBox="0 0 27 26" id="youtube-icon" xmlns="http://www.w3.org/2000/svg"><g clip-path="url(#ja)"><path d="M13.082 10.709a2.329 2.329 0 00-2.326 2.325 2.33 2.33 0 002.326 2.327 2.328 2.328 0 002.326-2.327 2.329 2.329 0 00-2.326-2.325z"/><path d="M13.082 0c-7.18 0-13 5.82-13 13s5.82 13 13 13 13-5.82 13-13-5.82-13-13-13z"/><path fill-rule="evenodd" clip-rule="evenodd" d="M13.082 7.767c-2.093 0-4.81.527-4.81.527l-.006.007a2.001 2.001 0 00-1.684 1.977v5.377a2.007 2.007 0 001.689 1.981l.001.003s2.717.528 4.81.528c2.093 0 4.81-.528 4.81-.528a2.008 2.008 0 001.69-1.983v-5.378a2.006 2.006 0 00-1.688-1.981c-.002-.003-2.719-.53-4.812-.53zm-1.3 2.925l3.9 2.275-3.9 2.275v-4.55z"/></g><defs><clipPath id="ja"><path transform="translate(.082)" d="M0 0h26v26H0z"/></clipPath></defs></svg></svg>