<svg width="15" height="15" viewBox="0 0 15 15" fill="none" xmlns="http://www.w3.org/2000/svg">
<path d="M6.82336 1.44927C7.12271 0.527956 8.42612 0.527957 8.72547 1.44927L9.7251 4.52581C9.85897 4.93783 10.2429 5.21679 10.6762 5.21679H13.911C14.8797 5.21679 15.2825 6.4564 14.4988 7.02581L11.8817 8.92721C11.5313 9.18186 11.3846 9.63322 11.5185 10.0452L12.5181 13.1218C12.8175 14.0431 11.763 14.8092 10.9793 14.2398L8.3622 12.3384C8.01171 12.0838 7.53712 12.0838 7.18663 12.3384L4.56957 14.2398C3.78585 14.8092 2.73137 14.0431 3.03073 13.1218L4.03035 10.0452C4.16423 9.63322 4.01757 9.18186 3.66708 8.92721L1.05002 7.02581C0.266308 6.4564 0.669085 5.21679 1.63781 5.21679H4.87267C5.3059 5.21679 5.68986 4.93783 5.82373 4.52581L6.82336 1.44927Z" fill="#EFD613"/>
</svg>
