<svg width="27" height="26" viewBox="0 0 27 26" fill="none" xmlns="http://www.w3.org/2000/svg">
<g clip-path="url(#clip0_1_3049)">
<path d="M13.0819 10.709C11.7998 10.709 10.7559 11.7524 10.7559 13.0345C10.7559 14.3171 11.7998 15.3607 13.0819 15.3607C14.3645 15.3607 15.4076 14.3171 15.4076 13.0345C15.4076 11.7527 14.3643 10.709 13.0819 10.709Z" fill="#599D2E"/>
<path d="M13.082 0C5.9026 0 0.0820312 5.82057 0.0820312 13C0.0820312 20.1794 5.9026 26 13.082 26C20.2615 26 26.082 20.1794 26.082 13C26.082 5.82057 20.2615 0 13.082 0Z" fill="#599D2E"/>
<path fill-rule="evenodd" clip-rule="evenodd" d="M13.082 7.76685C10.989 7.76685 8.27246 8.2936 8.27246 8.2936L8.26562 8.30144C7.31236 8.45458 6.58203 9.27736 6.58203 10.278V13.2914V15.6547C6.58395 16.6429 7.29968 17.4824 8.27051 17.6362L8.27246 17.6391C8.27246 17.6391 10.989 18.1668 13.082 18.1668C15.175 18.1668 17.8916 17.6391 17.8916 17.6391C18.8645 17.4847 19.581 16.644 19.582 15.6557V13.2923V10.278C19.5806 9.29041 18.8647 8.45036 17.8936 8.29654C17.8916 8.2936 15.175 7.76685 13.082 7.76685ZM11.782 10.6918L15.682 12.9668L11.782 15.2418V10.6918Z" fill="white"/>
</g>
<defs>
<clipPath id="clip0_1_3049">
<rect width="26" height="26" fill="white" transform="translate(0.0820312)"/>
</clipPath>
</defs>
</svg>
