<svg width="33" height="33" viewBox="0 0 33 33" fill="none" xmlns="http://www.w3.org/2000/svg">
<path d="M25.2656 0H7.73438C3.4628 0 0 3.4628 0 7.73438V25.2656C0 29.5372 3.4628 33 7.73438 33H25.2656C29.5372 33 33 29.5372 33 25.2656V7.73438C33 3.4628 29.5372 0 25.2656 0Z" fill="#330000"/>
<path d="M15.9499 19.6367H10.8349L9.78986 22.8679C9.76241 22.9917 9.65245 23.0742 9.5287 23.0604H6.94362C6.79241 23.0604 6.75116 22.9779 6.79241 22.8129L11.22 10.0667C11.2612 9.92924 11.3025 9.77791 11.3574 9.61291C11.4124 9.32416 11.4399 9.02174 11.4399 8.7192C11.4262 8.65049 11.4811 8.58166 11.55 8.56799H15.1111C15.2212 8.56799 15.2761 8.60924 15.2899 8.67795L20.3086 22.8405C20.3499 22.9917 20.3086 23.0604 20.1712 23.0604H17.2974C17.2012 23.0742 17.1049 23.0055 17.0775 22.9092L15.9499 19.6367ZM11.6325 16.8454H15.1249C15.0424 16.5567 14.9325 16.2129 14.8087 15.8554C14.685 15.4842 14.5612 15.0855 14.4375 14.673C14.2999 14.2467 14.1762 13.8342 14.0386 13.4079C13.9012 12.9817 13.7775 12.5829 13.6674 12.1842C13.5574 11.7993 13.4611 11.4417 13.365 11.1117H13.3374C13.2136 11.703 13.0624 12.2943 12.87 12.8854C12.6637 13.5454 12.4575 14.2329 12.2374 14.9205C12.0598 15.5695 11.858 16.2116 11.6325 16.8454ZM23.3749 10.9742C22.9212 10.9879 22.4812 10.8092 22.1512 10.4929C21.835 10.1492 21.67 9.69541 21.6837 9.22799C21.67 8.76045 21.8487 8.32049 22.1787 8.00416C22.5087 7.68795 22.9487 7.52295 23.4025 7.52295C23.9387 7.52295 24.3512 7.68795 24.6537 8.00416C24.9584 8.33752 25.1212 8.77655 25.1074 9.22799C25.1212 9.69541 24.9562 10.1492 24.6262 10.4929C24.31 10.8229 23.8424 11.0017 23.3749 10.9742ZM21.835 22.9092V12.3217C21.835 12.1842 21.8899 12.1292 22.0137 12.1292H24.7362C24.8599 12.1292 24.915 12.198 24.915 12.3217V22.9092C24.915 23.0604 24.8599 23.1292 24.7362 23.1292H22.0412C21.9037 23.1292 21.835 23.0467 21.835 22.9092Z" fill="#FF9A00"/>
</svg>
