<svg width="76" height="76" viewBox="0 0 76 76" fill="none" xmlns="http://www.w3.org/2000/svg">
<path d="M2.81055 65.3475H4.5918C4.71367 65.6943 4.85547 66.033 5.0125 66.3647L3.75273 67.6244C3.53242 67.8447 3.40937 68.1424 3.40937 68.4529C3.40937 68.7635 3.53242 69.0623 3.75273 69.2814L7.07383 72.6025C7.51328 73.042 8.29141 73.042 8.73086 72.6025L9.9918 71.3416C10.3234 71.4998 10.6621 71.6393 11.0078 71.7611V73.5459C11.0078 74.1928 11.5328 74.7178 12.1797 74.7178H16.8766C17.5234 74.7178 18.0484 74.1928 18.0484 73.5459V71.7588C18.393 71.6369 18.7316 71.4963 19.0609 71.3393L20.3254 72.6037C20.5457 72.824 20.8434 72.9471 21.1539 72.9471C21.4645 72.9471 21.7633 72.824 21.9824 72.6037L25.3035 69.2826C25.5238 69.0623 25.6469 68.7646 25.6469 68.4541C25.6469 68.1436 25.5238 67.8447 25.3035 67.6256L24.0379 66.36C24.1949 66.0307 24.3344 65.6932 24.4563 65.3486H26.248C26.8949 65.3486 27.4199 64.8236 27.4199 64.1768V59.4799C27.4199 58.833 26.8949 58.308 26.248 58.308H24.4574C24.3355 57.9635 24.1961 57.626 24.0391 57.2967L25.3047 56.0311C25.525 55.8107 25.648 55.5131 25.648 55.2025C25.648 54.892 25.525 54.5932 25.3047 54.374L21.9836 51.0529C21.5441 50.6135 20.766 50.6135 20.3266 51.0529L19.0621 52.3174C18.7328 52.1603 18.3941 52.0209 18.0496 51.8979V50.1084C18.0496 49.4615 17.5246 48.9365 16.8777 48.9365H12.1809C11.534 48.9365 11.009 49.4615 11.009 50.1084V51.892C10.6633 52.0139 10.3246 52.1545 9.99297 52.3115L8.73203 51.0506C8.51172 50.8303 8.21406 50.7072 7.90352 50.7072C7.59297 50.7072 7.29414 50.8303 7.075 51.0506L3.75391 54.3717C3.53359 54.592 3.41055 54.8896 3.41055 55.2002C3.41055 55.5107 3.53359 55.8096 3.75391 56.0287L5.01367 57.2885C4.85547 57.6213 4.71484 57.96 4.5918 58.3068H2.81055C2.16367 58.3068 1.63867 58.8318 1.63867 59.4787V64.1756C1.63867 64.8225 2.16367 65.3475 2.81055 65.3475ZM3.98242 60.6506H5.45781C5.99219 60.6506 6.45859 60.2885 6.59219 59.7717C6.7832 59.0322 7.07617 58.3244 7.46289 57.6693C7.73477 57.2088 7.65977 56.6229 7.28242 56.2455L6.23828 55.2014L7.90234 53.5373L8.94648 54.5826C9.32266 54.96 9.90742 55.035 10.3703 54.7631C11.0254 54.3775 11.732 54.0846 12.4715 53.8947C12.9895 53.7611 13.3504 53.2947 13.3504 52.7604V51.2803H15.7035V52.7615C15.7035 53.2959 16.0645 53.7623 16.5813 53.8959C17.3219 54.0881 18.0273 54.3811 18.6812 54.7666C19.1406 55.0373 19.7289 54.9635 20.1051 54.5861L21.1527 53.5373L22.8168 55.2014L21.7668 56.2514C21.3895 56.6287 21.3145 57.2146 21.5863 57.6752C21.9707 58.3279 22.2625 59.0334 22.4535 59.774C22.5871 60.2908 23.0535 60.6529 23.5879 60.6529H25.0762V63.0061H23.5914C23.057 63.0061 22.5906 63.367 22.457 63.885C22.266 64.6244 21.973 65.3311 21.5898 65.9838C21.318 66.4443 21.393 67.0303 21.7703 67.4076L22.8191 68.4564L21.1551 70.1205L20.1074 69.0693C19.7313 68.692 19.1441 68.617 18.6836 68.8889C18.0309 69.2744 17.3242 69.5674 16.5836 69.7596C16.0668 69.8932 15.7059 70.3596 15.7059 70.8939V72.374H13.3527V70.8951C13.3527 70.3607 12.9906 69.8943 12.4738 69.7607C11.7344 69.5697 11.0266 69.2779 10.3727 68.8924C9.90977 68.6217 9.325 68.6967 8.94883 69.0728L7.90469 70.117L6.24062 68.4529L7.28359 67.41C7.66211 67.0326 7.73594 66.4467 7.46406 65.9861C7.07734 65.3299 6.78438 64.6232 6.59336 63.8838C6.45977 63.367 5.99336 63.0049 5.45898 63.0049H3.98242V60.6506Z" fill="#599D2E"/>
<path d="M14.5293 67.6865C17.7602 67.6865 20.3887 65.058 20.3887 61.8271C20.3887 58.5963 17.7602 55.9678 14.5293 55.9678C11.2984 55.9678 8.66992 58.5963 8.66992 61.8271C8.66992 65.058 11.2984 67.6865 14.5293 67.6865ZM14.5293 58.3115C16.4676 58.3115 18.0449 59.8889 18.0449 61.8271C18.0449 63.7654 16.4676 65.3428 14.5293 65.3428C12.591 65.3428 11.0137 63.7654 11.0137 61.8271C11.0137 59.8889 12.591 58.3115 14.5293 58.3115Z" fill="#599D2E"/>
<path d="M74.2344 8.23262C74.095 7.8166 73.7341 7.51191 73.3005 7.44629L69.0606 6.79941L67.154 2.73652C66.9606 2.32402 66.5469 2.06152 66.0923 2.06152C65.6376 2.06152 65.2239 2.32402 65.0317 2.73535L63.1251 6.79824L58.8852 7.44512C58.4505 7.51191 58.0907 7.81543 57.9512 8.23145C57.8118 8.64746 57.9173 9.10801 58.2231 9.42207L61.3251 12.6014L60.5915 17.1061C60.5188 17.549 60.7063 17.9943 61.0731 18.2533C61.4399 18.5111 61.9216 18.5369 62.3153 18.3213L66.0923 16.233L69.8704 18.3213C70.0473 18.4186 70.243 18.4678 70.4376 18.4678C70.6743 18.4678 70.911 18.3951 71.1126 18.2533C71.4794 17.9955 71.6669 17.549 71.5942 17.1061L70.8606 12.6014L73.9626 9.42207C74.2696 9.10918 74.3739 8.6498 74.2344 8.23262ZM68.7688 11.3896C68.5087 11.6557 68.3915 12.0295 68.4512 12.3963L68.8919 15.1021L66.6583 13.8682C66.4825 13.7709 66.2868 13.7217 66.0911 13.7217C65.8954 13.7217 65.7009 13.7709 65.5239 13.8682L63.2903 15.1021L63.7309 12.3963C63.7907 12.0295 63.6735 11.6557 63.4134 11.3896L61.4903 9.41855L64.0942 9.02129C64.4809 8.96152 64.8126 8.71426 64.9778 8.36035L66.0923 5.99199L67.2044 8.36035C67.3708 8.71426 67.7024 8.96152 68.088 9.02129L70.6919 9.41855L68.7688 11.3896Z" fill="#599D2E"/>
<path d="M55.9867 16.2126C55.3492 16.1154 54.6906 16.2841 54.182 16.6826L44.9875 23.8755C45.4925 22.904 45.7257 21.813 45.632 20.6951C45.5007 19.1353 44.7695 17.7208 43.573 16.7107C42.3765 15.7005 40.8613 15.2189 39.3003 15.349C37.7406 15.4814 36.3261 16.2126 35.316 17.408C34.307 18.6044 33.823 20.1208 33.9543 21.6806C34.0668 23.0025 34.6293 24.2037 35.5199 25.1587C34.1558 25.4962 32.9523 26.3037 32.1449 27.458L22.9117 40.0603C22.3843 40.8138 22.3421 41.7771 22.8015 42.574C23.2597 43.3697 24.1082 43.8126 25.0304 43.74L27.8382 43.5021C28.5203 43.4447 29.1414 43.0931 29.5246 42.5599L35.0992 35.2263L35.5211 40.2302L32.7519 59.224C31.7066 59.4384 30.6566 59.6306 29.6007 59.7783L29.9253 62.0986C33.6027 61.5841 37.232 60.6806 40.7113 59.4115C47.4613 56.9505 52.8566 53.408 57.0168 49.8513L57.2793 49.7728L57.2429 49.6509C61.2566 46.1798 64.1019 42.7146 65.8726 40.2431C66.0988 39.9267 66.1539 39.5201 66.0191 39.1568C65.8855 38.7923 65.5796 38.5181 65.2035 38.4244L63.3964 37.972L69.9765 34.3169L71.5304 41.3107L69.9789 40.7939C69.4738 40.6251 68.9218 40.8185 68.63 41.2603L68.4355 41.5533C53.7039 63.9818 37.3281 69.4193 26.1836 70.031L26.3113 72.3712C37.9164 71.7337 54.898 66.1591 70.089 43.3005L72.7503 44.1876C73.15 44.3224 73.5918 44.2287 73.9058 43.9462C74.2199 43.6638 74.3558 43.2337 74.2644 42.8224L71.9207 32.2755C71.841 31.9146 71.5949 31.6123 71.2574 31.4611C70.9199 31.3111 70.532 31.3251 70.2074 31.5056L59.6605 37.365C59.2398 37.5982 59.0054 38.0658 59.0687 38.5427C59.1308 39.0197 59.48 39.4099 59.9464 39.5259L62.9289 40.2712C61.3832 42.2705 59.2492 44.7044 56.5035 47.1759L54.414 40.1669C54.2195 39.5646 53.7824 39.0595 53.2398 38.7935L48.4222 36.2845L47.6687 30.5564L58.3984 22.3814C59.391 21.6267 59.6183 20.2275 58.9152 19.1974L57.5605 17.2076C57.1996 16.6755 56.6253 16.3123 55.9867 16.2126ZM39.4972 17.6857C39.598 17.6775 39.6988 17.6728 39.7996 17.6728C40.6281 17.6728 41.4214 17.9623 42.0613 18.5025C42.7785 19.1083 43.2168 19.9568 43.2964 20.8931C43.375 21.8294 43.0855 22.74 42.4796 23.4572C41.8738 24.1744 41.0253 24.6138 40.089 24.6923C39.1515 24.7732 38.2421 24.4814 37.525 23.8755C36.8078 23.2697 36.3683 22.4212 36.2898 21.4849C36.1269 19.5525 37.566 17.8486 39.4972 17.6857ZM41.0898 56.749L43.5285 42.6759L47.8363 44.7666L50.3828 51.915C47.6675 53.7103 44.575 55.3755 41.0898 56.749ZM45.7105 29.1044C45.3765 29.3587 45.2043 29.7724 45.2582 30.1896L46.1793 37.1962C46.2296 37.5748 46.4605 37.9064 46.8003 38.0822L52.1769 40.8619L54.5582 48.8505C53.8656 49.4154 53.1355 49.9755 52.3761 50.531L50.03 43.9451C49.8144 43.399 49.4066 42.9572 48.8816 42.7005L43.1546 39.8904C42.8242 39.7287 42.4363 39.7322 42.1058 39.8986C41.7765 40.0662 41.5457 40.379 41.4836 40.7423L38.5515 57.6665C37.4476 58.0333 36.332 58.3708 35.2035 58.6615L37.8613 40.4376C37.8742 40.3486 37.8765 40.2595 37.8695 40.1693L37.1793 31.9955C37.1382 31.5115 36.8043 31.1037 36.339 30.9689C35.8726 30.8318 35.3722 30.9994 35.0793 31.3849L27.6425 41.1689L24.8195 41.4267L34.0527 28.8244C34.6527 27.9677 35.5949 27.4251 36.6378 27.3361L40.2859 27.0279H40.2882L44.9593 26.633C45.1867 26.613 45.4035 26.5287 45.5828 26.388L55.6281 18.5294L56.9839 20.5193L45.7105 29.1044Z" fill="#599D2E"/>
<path d="M5.1543 3.2334H7.49805V5.57715H5.1543V3.2334Z" fill="#599D2E"/>
<path d="M7.49805 5.57715H9.8418V7.9209H7.49805V5.57715Z" fill="#599D2E"/>
<path d="M2.81055 5.57715H5.1543V7.9209H2.81055V5.57715Z" fill="#599D2E"/>
<path d="M5.1543 7.9209H7.49805V10.2646H5.1543V7.9209Z" fill="#599D2E"/>
<path d="M14.5293 6.74902H16.873V9.09277H14.5293V6.74902Z" fill="#599D2E"/>
<path d="M16.873 9.09277H19.2168V11.4365H16.873V9.09277Z" fill="#599D2E"/>
<path d="M12.1855 9.09277H14.5293V11.4365H12.1855V9.09277Z" fill="#599D2E"/>
<path d="M14.5293 11.4365H16.873V13.7803H14.5293V11.4365Z" fill="#599D2E"/>
<path d="M68.4355 66.5146H70.7793V68.8584H68.4355V66.5146Z" fill="#599D2E"/>
<path d="M70.7793 68.8584H73.123V71.2021H70.7793V68.8584Z" fill="#599D2E"/>
<path d="M66.0918 68.8584H68.4355V71.2021H66.0918V68.8584Z" fill="#599D2E"/>
<path d="M68.4355 71.2021H70.7793V73.5459H68.4355V71.2021Z" fill="#599D2E"/>
</svg>
