<svg width="76" height="76" viewBox="0 0 76 76" fill="none" xmlns="http://www.w3.org/2000/svg">
<g clip-path="url(#clip0_1_332)">
<path d="M27.1794 42.3121C25.534 43.355 23.6616 43.9862 21.7206 44.1521C21.1284 41.9882 19.1653 40.4853 16.9219 40.4783H10.6719C7.91045 40.4783 5.67188 42.7169 5.67188 45.4783V70.4783C5.67188 73.2398 7.91045 75.4783 10.6719 75.4783H16.9219C19.1849 75.4694 21.1598 73.9416 21.7369 71.7533C22.7982 71.8091 23.8385 72.0715 24.7994 72.5258C25.2819 72.7546 25.7431 73.0258 26.2056 73.2933C26.8957 73.7142 27.6146 74.086 28.3569 74.4058C30.2923 75.1444 32.3505 75.5084 34.4219 75.4783H56.9219C58.7703 75.4774 60.4674 74.4568 61.3348 72.8244C62.2021 71.1921 62.0981 69.2144 61.0644 67.6821C62.5297 67.1778 63.6766 66.0197 64.1667 64.5495C64.6567 63.0793 64.4341 61.4647 63.5644 60.1821C65.4019 59.5532 66.7041 57.9109 66.8977 55.9784C67.0913 54.0459 66.1406 52.1779 64.4644 51.1971C65.2391 50.3033 65.6676 49.1612 65.6719 47.9783C65.6719 45.2169 63.4333 42.9783 60.6719 42.9783H44.8819C46.8369 39.2558 50.3894 30.9346 46.9319 24.8821C45.4106 22.2233 42.2319 20.1433 38.8556 21.8633C35.3331 23.6533 36.1219 27.1896 36.5019 28.8871C37.4706 33.2421 34.3344 37.7596 27.1794 42.3121ZM16.9219 72.9783H10.6719C9.29116 72.9783 8.17187 71.859 8.17187 70.4783V45.4783C8.17187 44.0976 9.29116 42.9783 10.6719 42.9783H16.9219C18.3026 42.9783 19.4219 44.0976 19.4219 45.4783V70.4783C19.4219 71.859 18.3026 72.9783 16.9219 72.9783ZM38.9419 28.3433C38.3769 25.8146 38.6306 24.7821 39.9894 24.0933C42.1944 22.9683 44.0281 24.8433 44.7619 26.1246C48.4981 32.6671 41.7481 43.4508 41.6794 43.5596C41.4356 43.9444 41.4206 44.4314 41.6401 44.8306C41.8596 45.2298 42.2788 45.4779 42.7344 45.4783H60.6719C62.0526 45.4783 63.1719 46.5976 63.1719 47.9783C63.1719 49.359 62.0526 50.4783 60.6719 50.4783H53.1719C52.4815 50.4783 51.9219 51.038 51.9219 51.7283C51.9219 52.4187 52.4815 52.9783 53.1719 52.9783H61.9219C63.3026 52.9783 64.4219 54.0976 64.4219 55.4783C64.4219 56.859 63.3026 57.9783 61.9219 57.9783H53.1719C52.4815 57.9783 51.9219 58.538 51.9219 59.2283C51.9219 59.9187 52.4815 60.4783 53.1719 60.4783H59.4219C60.8026 60.4783 61.9219 61.5976 61.9219 62.9783C61.9219 64.359 60.8026 65.4783 59.4219 65.4783H53.1719C52.4815 65.4783 51.9219 66.038 51.9219 66.7283C51.9219 67.4187 52.4815 67.9783 53.1719 67.9783H56.9219C58.3026 67.9783 59.4219 69.0976 59.4219 70.4783C59.4219 71.859 58.3026 72.9783 56.9219 72.9783H34.4219C32.6726 73.0089 30.9334 72.7069 29.2969 72.0883C28.6634 71.812 28.0499 71.492 27.4606 71.1308C26.9406 70.8283 26.4181 70.5283 25.8769 70.2696C24.635 69.6854 23.2922 69.3459 21.9219 69.2696V46.6671C24.2705 46.459 26.5341 45.6871 28.5206 44.4171C36.6581 39.2446 40.1644 33.8358 38.9419 28.3433Z" fill="#599D2E"/>
<path d="M53.1851 1.69168V1.71793V1.72793C53.1851 2.18793 53.0713 12.9779 43.1738 12.9779C42.4835 12.9779 41.9238 13.5376 41.9238 14.2279C41.9238 14.9183 42.4835 15.4779 43.1738 15.4779C53.0326 15.4779 53.1838 26.2704 53.1851 26.7279C53.1757 27.4183 53.7278 27.9855 54.4182 27.9948C55.1085 28.0041 55.6757 27.452 55.6851 26.7617V26.7354V26.7279C55.6851 26.2679 55.7988 15.4779 65.6976 15.4779C66.3879 15.4779 66.9475 14.9183 66.9475 14.2279C66.9475 13.5376 66.3879 12.9779 65.6976 12.9779C55.8376 12.9779 55.6876 2.18543 55.6851 1.72793C55.6944 1.03757 55.1423 0.470374 54.4519 0.461054C53.7616 0.451734 53.1944 1.00382 53.1851 1.69418V1.69168ZM59.9976 14.2279C57.4379 15.5782 55.4594 17.8167 54.4338 20.5229C53.4089 17.8164 51.4302 15.5777 48.8701 14.2279C51.4302 12.8782 53.4089 10.6395 54.4338 7.93293C55.4594 10.6391 57.4379 12.8777 59.9976 14.2279Z" fill="#599D2E"/>
<path d="M21.9219 16.7284V16.7209C21.9198 16.0305 21.3585 15.4725 20.6681 15.4746C19.9778 15.4767 19.4198 16.038 19.4219 16.7284C19.4219 17.0346 19.3169 24.2284 13.1719 24.2284C12.4815 24.2284 11.9219 24.788 11.9219 25.4784C11.9219 26.1687 12.4815 26.7284 13.1719 26.7284C19.3169 26.7284 19.4219 33.9246 19.4219 34.2284V34.2359C19.4239 34.9262 19.9853 35.4842 20.6756 35.4821C21.366 35.4801 21.9239 34.9187 21.9219 34.2284C21.9219 33.9221 22.0269 26.7284 28.1719 26.7284C28.8622 26.7284 29.4219 26.1687 29.4219 25.4784C29.4219 24.788 28.8622 24.2284 28.1719 24.2284C22.0269 24.2284 21.9219 17.0321 21.9219 16.7284ZM23.6019 25.4784C22.3362 26.3226 21.3235 27.4948 20.6719 28.8696C20.0203 27.4948 19.0076 26.3226 17.7419 25.4784C19.0079 24.6344 20.0206 23.4622 20.6719 22.0871C21.3231 23.4622 22.3359 24.6344 23.6019 25.4784Z" fill="#599D2E"/>
<path d="M63.7969 31.9658H66.1406V34.3096H63.7969V31.9658Z" fill="#599D2E"/>
<path d="M66.1406 34.3096H68.4844V36.6533H66.1406V34.3096Z" fill="#599D2E"/>
<path d="M61.4531 34.3096H63.7969V36.6533H61.4531V34.3096Z" fill="#599D2E"/>
<path d="M63.7969 36.6533H66.1406V38.9971H63.7969V36.6533Z" fill="#599D2E"/>
<path d="M28.25 4.8623H30.5938V7.20605H28.25V4.8623Z" fill="#599D2E"/>
<path d="M30.5938 7.20605H32.9375V9.5498H30.5938V7.20605Z" fill="#599D2E"/>
<path d="M25.9062 7.20605H28.25V9.5498H25.9062V7.20605Z" fill="#599D2E"/>
<path d="M28.25 9.5498H30.5938V11.8936H28.25V9.5498Z" fill="#599D2E"/>
</g>
<defs>
<clipPath id="clip0_1_332">
<rect width="75" height="75" fill="white" transform="translate(0.671875 0.477539)"/>
</clipPath>
</defs>
</svg>
