<svg width="27" height="26" viewBox="0 0 27 26" fill="none" xmlns="http://www.w3.org/2000/svg">
<g clip-path="url(#clip0_1_3044)">
<path d="M13.082 26C20.2617 26 26.082 20.1797 26.082 13C26.082 5.82031 20.2617 0 13.082 0C5.90234 0 0.0820312 5.82031 0.0820312 13C0.0820312 20.1797 5.90234 26 13.082 26Z" fill="#599D2E"/>
<path d="M15.8564 12.9873H14.0827V19.4478H11.3953V12.9873H10.1172V10.7169H11.3953V9.24765C11.3953 8.19699 11.8973 6.55176 14.1066 6.55176L16.0972 6.56003V8.76389H14.6529C14.416 8.76389 14.0828 8.88157 14.0828 9.38279V10.719H16.0912L15.8564 12.9873Z" fill="white"/>
</g>
<defs>
<clipPath id="clip0_1_3044">
<rect width="26" height="26" fill="white" transform="translate(0.0820312)"/>
</clipPath>
</defs>
</svg>
