<svg width="34" height="33" viewBox="0 0 34 33" fill="none" xmlns="http://www.w3.org/2000/svg">
<g clip-path="url(#clip0_329_259)">
<path d="M28.1859 0H5.61391C2.51559 0 0.00390625 2.51168 0.00390625 5.61V27.3372C0.00390625 30.4355 2.51559 32.9472 5.61391 32.9472H28.1859C31.2842 32.9472 33.7959 30.4355 33.7959 27.3372V5.61C33.7959 2.51168 31.2842 0 28.1859 0Z" fill="#49021F"/>
<path d="M12.2757 8.61927V23.0593C12.2757 23.2105 12.2077 23.2861 12.0717 23.2861H9.3287C9.20765 23.2861 9.1472 23.2104 9.14746 23.0593V8.61927C9.14746 8.49849 9.21544 8.43803 9.3514 8.4379H12.0944C12.1174 8.43463 12.1409 8.43643 12.1632 8.44317C12.1855 8.4499 12.2061 8.46142 12.2235 8.47691C12.2409 8.4924 12.2547 8.51149 12.264 8.53286C12.2733 8.55423 12.2778 8.57737 12.2772 8.60066L12.2757 8.61927ZM20.5371 23.5112L20.3911 23.5127C19.3477 23.5286 18.3139 23.3118 17.3649 22.878C16.4807 22.4688 15.7416 21.8008 15.2453 20.9625C14.7439 20.1297 14.4871 19.0916 14.475 17.8486L14.4746 17.7549C14.4661 16.7144 14.732 15.6902 15.2455 14.7853C15.7601 13.8882 16.5108 13.1494 17.4159 12.6491L17.4896 12.609C18.4717 12.065 19.6581 11.7929 21.0486 11.7929L21.0779 11.7931L21.143 11.7945L21.2166 11.7974L21.2989 11.8017L21.3895 11.8073L21.4887 11.8146L21.7127 11.8329L21.7739 11.8382V7.37266C21.7739 7.26706 21.8193 7.21386 21.9099 7.21386H24.7662C24.7847 7.21121 24.8035 7.2129 24.8212 7.2188C24.8389 7.2247 24.855 7.23463 24.8682 7.24783C24.8814 7.26102 24.8914 7.27711 24.8973 7.29481C24.9032 7.31252 24.9048 7.33135 24.9022 7.34982V20.7472C24.9031 21.0271 24.9145 21.3068 24.9362 21.5859L24.9576 21.8781L24.9765 22.1502L24.9929 22.4019C24.9957 22.449 24.9842 22.4959 24.9599 22.5363C24.9357 22.5768 24.8998 22.609 24.8569 22.6287C24.12 22.936 23.3525 23.1639 22.5674 23.3086C21.8974 23.4323 21.2184 23.5001 20.5372 23.5112H20.5371ZM21.7739 20.7018V14.5132C21.6514 14.48 21.5263 14.4573 21.4 14.4452C21.2455 14.4297 21.0904 14.4221 20.9352 14.4225C20.385 14.4171 19.8414 14.5413 19.3484 14.7853C18.8681 15.024 18.4581 15.3833 18.1583 15.8281C17.8484 16.2813 17.6934 16.8784 17.6935 17.6189C17.6825 18.113 17.7632 18.6049 17.9315 19.0696C18.0685 19.4441 18.2851 19.7844 18.5663 20.0671C18.8355 20.3272 19.1615 20.5212 19.5184 20.6338C19.8955 20.7559 20.2895 20.8171 20.6858 20.8153C20.8973 20.8153 21.0937 20.8076 21.2752 20.7924C21.42 20.7816 21.5635 20.7577 21.704 20.7212L21.7739 20.7018Z" fill="#FF3366"/>
</g>
<defs>
<clipPath id="clip0_329_259">
<rect width="33.8" height="33" fill="white"/>
</clipPath>
</defs>
</svg>
