<svg width="33" height="33" viewBox="0 0 33 33" fill="none" xmlns="http://www.w3.org/2000/svg">
<path d="M16.5002 30.9375C16.1107 30.9376 15.728 30.8352 15.3906 30.6405L11.8596 28.5501C11.3326 28.2552 11.5894 28.151 11.7637 28.0902C12.3242 27.917 12.8608 27.6745 13.3611 27.3683C13.403 27.3489 13.4491 27.3406 13.4951 27.344C13.5412 27.3474 13.5855 27.3625 13.6241 27.3879L16.3373 28.9997C16.3878 29.0265 16.4441 29.0404 16.5013 29.0404C16.5584 29.0404 16.6147 29.0265 16.6652 28.9997L27.2459 22.8927C27.2954 22.863 27.3363 22.821 27.3647 22.7707C27.3931 22.7205 27.4079 22.6637 27.4078 22.606V10.3898C27.4078 10.3312 27.3927 10.2735 27.364 10.2224C27.3353 10.1713 27.2939 10.1284 27.2438 10.098L16.6632 3.99606C16.6133 3.96796 16.557 3.9532 16.4997 3.9532C16.4425 3.9532 16.3862 3.96796 16.3363 3.99606L5.76184 10.1C5.7114 10.1299 5.66951 10.1722 5.64024 10.223C5.61098 10.2737 5.59531 10.3312 5.59477 10.3898V22.6008C5.59492 22.6584 5.61037 22.7149 5.63954 22.7646C5.66872 22.8142 5.71057 22.8552 5.7608 22.8834L8.66274 24.5582C10.2354 25.344 11.1986 24.4179 11.1986 23.4877V11.4314C11.1986 11.3493 11.2312 11.2706 11.2892 11.2126C11.3472 11.1546 11.4259 11.122 11.508 11.122H12.8486C12.9306 11.122 13.0093 11.1546 13.0673 11.2126C13.1254 11.2706 13.158 11.3493 13.158 11.4314V23.4887C13.158 25.5873 12.0153 26.7887 10.025 26.7887C9.16638 26.8037 8.3212 26.5741 7.58818 26.1267L4.8069 24.5313C4.46925 24.3347 4.18909 24.053 3.99438 23.7142C3.79967 23.3755 3.69723 22.9916 3.69727 22.6008V10.3898C3.69627 9.99848 3.79828 9.61378 3.99306 9.27437C4.18784 8.93495 4.46852 8.65278 4.8069 8.45621L15.3886 2.34709C15.7294 2.16061 16.1117 2.06287 16.5002 2.06287C16.8888 2.06287 17.2711 2.16061 17.6119 2.34709L28.1926 8.45621C28.5302 8.65245 28.8104 8.93381 29.0053 9.27219C29.2002 9.61058 29.3029 9.99416 29.3032 10.3847V22.6008C29.3026 22.9916 29.1998 23.3753 29.005 23.714C28.8101 24.0527 28.53 24.3345 28.1926 24.5313L17.6119 30.6405C17.2739 30.8355 16.8905 30.9379 16.5002 30.9375Z" fill="#83CD29"/>
<path d="M14.4932 18.5141C14.4932 18.432 14.5258 18.3533 14.5838 18.2953C14.6418 18.2373 14.7205 18.2047 14.8025 18.2047H16.171C16.2441 18.2049 16.3148 18.231 16.3705 18.2784C16.4262 18.3258 16.4633 18.3914 16.4752 18.4635C16.6815 19.8567 17.3002 20.559 20.098 20.559C22.3265 20.559 23.2763 20.0547 23.2763 18.8719C23.2763 18.1902 23.0072 17.6839 19.5432 17.3446C16.6474 17.0579 14.8572 16.4165 14.8572 14.1024C14.8572 11.9677 16.6567 10.6941 19.6731 10.6941C23.0629 10.6941 24.7407 11.8707 24.9531 14.3952C24.9564 14.4374 24.951 14.4798 24.9372 14.5197C24.9234 14.5597 24.9016 14.5964 24.8731 14.6276C24.8446 14.6588 24.81 14.6839 24.7714 14.7012C24.7329 14.7185 24.6912 14.7278 24.6489 14.7283H23.2712C23.202 14.7274 23.1352 14.7033 23.0814 14.6599C23.0276 14.6166 22.9898 14.5564 22.9742 14.4891C22.6452 13.0237 21.8398 12.5555 19.6742 12.5555C17.2404 12.5555 16.9579 13.4032 16.9579 14.0384C16.9579 14.8077 17.292 15.0326 20.5775 15.4667C23.8291 15.8967 25.3739 16.5052 25.3739 18.7904C25.3739 21.0963 23.4516 22.4163 20.099 22.4163C15.4636 22.4225 14.4932 20.2971 14.4932 18.5141Z" fill="#83CD29"/>
</svg>
