<svg width="25" height="25" viewBox="0 0 25 25" fill="none" xmlns="http://www.w3.org/2000/svg">
<path d="M22.9135 12.1318C22.9135 6.16711 18.0782 1.33179 12.1135 1.33179V3.13179C17.084 3.13179 21.1135 7.16122 21.1135 12.1318H22.9135Z" fill="#599D2E"/>
<path fill-rule="evenodd" clip-rule="evenodd" d="M1.32907 6.57403C1.24187 7.74395 1.53101 8.84506 1.93028 9.92322C2.75637 12.153 4.01387 14.1258 5.53755 15.9426C7.59819 18.3925 10.0581 20.3332 12.9403 21.7325C14.2391 22.3611 15.5837 22.8474 17.0432 22.9254C18.0437 22.9805 18.8623 22.6627 19.6224 21.9436C19.9537 21.6302 20.2937 21.2803 20.6343 20.9298C20.8051 20.7541 20.9761 20.5782 21.1461 20.4066C21.8988 19.6496 21.9034 18.7275 21.1553 17.975C20.2649 17.0758 19.37 16.1812 18.4705 15.2911C17.7362 14.5616 16.8183 14.5662 16.084 15.2911C15.8612 15.512 15.6841 15.682 15.5173 15.8422C15.265 16.0846 15.0361 16.3045 14.7073 16.6442C14.5558 16.8002 14.4789 16.8185 14.2438 16.7314C14.0086 16.6442 13.5003 16.3735 13.1515 16.1579C11.5314 15.1439 10.173 13.8318 8.97054 12.3545C8.37392 11.6204 7.84155 10.8359 7.4744 9.95499C7.39638 9.77606 7.41015 9.65678 7.55701 9.51455C7.74377 9.33397 7.89681 9.18763 8.0383 9.05235C8.32096 8.78207 8.55752 8.55587 8.92453 8.18898C9.69096 7.41821 9.68637 6.51439 8.91994 5.73903C8.62919 5.44531 8.33639 5.15363 8.04428 4.86263L8.04195 4.86032C7.89681 4.71573 7.75184 4.57131 7.60737 4.42688C7.15764 3.97271 6.70781 3.51844 6.2535 3.07344C5.51919 2.35314 4.59672 2.34855 3.86242 3.07344C3.86242 3.07344 2.74457 4.13838 2.1827 4.73427C1.62083 5.33016 1.38414 5.85373 1.32907 6.57403ZM5.34288 4.70633C5.18601 4.55253 5.1689 4.53575 5.05972 4.53575C4.94822 4.53575 4.89161 4.58843 4.78858 4.6843C4.77198 4.69975 4.75416 4.71633 4.73473 4.73398C4.59467 4.86118 3.50741 5.95084 3.50741 5.95084C3.50741 5.95084 3.23089 6.23161 3.14488 6.50337C3.05887 6.77513 3.11245 7.42868 3.18682 7.80121C3.79342 10.8397 5.9532 13.8334 7.86908 15.8564C9.81552 17.9117 12.5884 19.9355 15.8879 20.9542C16.3065 21.0834 17.4023 21.1906 17.7389 21.0627C18.0756 20.9349 18.4013 20.6286 18.4013 20.6286L19.3502 19.6612C19.3502 19.6612 19.6501 19.3907 19.6501 19.225C19.6501 19.0592 19.5667 18.9519 19.454 18.8386C18.3813 17.7608 17.7902 17.1646 17.6807 17.0499L17.6611 17.0294C17.4931 16.8534 17.4132 16.7696 17.2699 16.7696C17.1318 16.7696 16.995 16.9138 16.9075 17.006L16.8881 17.0264C15.7506 18.2124 15.3608 18.5224 14.6647 18.5776C13.5262 18.668 11.3154 17.436 8.97495 15.0624C6.63446 12.6887 5.5064 10.4101 5.62768 9.56776C5.742 8.77367 6.17738 8.35029 6.29832 8.23269L6.31674 8.21461C6.40198 8.12905 7.31631 7.2541 7.31631 7.2541C7.31631 7.2541 7.51497 7.07571 7.51497 6.97255C7.51497 6.87659 7.47222 6.83396 7.41275 6.77466L7.39913 6.76104C6.25927 5.61447 5.60834 4.96316 5.44635 4.80709C5.40611 4.76833 5.372 4.73489 5.34288 4.70633Z" fill="#599D2E"/>
<path d="M12.1135 4.93179C16.0899 4.93179 19.3135 8.15534 19.3135 12.1318H17.5135C17.5135 9.14945 15.0958 6.73179 12.1135 6.73179V4.93179Z" fill="#599D2E"/>
</svg>
