<svg width="34" height="33" viewBox="0 0 34 33" fill="none" xmlns="http://www.w3.org/2000/svg">
<g clip-path="url(#clip0_329_244)">
<path d="M28.1859 0H5.61391C2.51559 0 0.00390625 2.51168 0.00390625 5.61V27.3372C0.00390625 30.4355 2.51559 32.9472 5.61391 32.9472H28.1859C31.2842 32.9472 33.7959 30.4355 33.7959 27.3372V5.61C33.7959 2.51168 31.2842 0 28.1859 0Z" fill="#001E36"/>
<path d="M7.61328 23.1046V8.61922C7.61328 8.51362 7.65869 8.46056 7.74937 8.46056L7.89286 8.46016L8.13811 8.45752L8.47894 8.45079L9.62074 8.42663L10.845 8.40393C11.2756 8.39654 11.7025 8.39258 12.1257 8.39258C13.2741 8.39258 14.2413 8.53619 15.0273 8.82329C15.7364 9.06313 16.383 9.45807 16.9202 9.97935C17.3756 10.4312 17.7275 10.9765 17.9517 11.5776C18.1637 12.1625 18.2712 12.7802 18.2691 13.4024C18.2691 14.6116 17.9894 15.609 17.4303 16.3947C16.8833 17.1612 16.1205 17.7474 15.2391 18.0785L15.1634 18.1062C14.243 18.4495 13.2237 18.5736 12.1058 18.5814L11.9321 18.5819L11.6743 18.5806L11.5442 18.5788L11.3993 18.5753L11.3119 18.5719L11.2589 18.5691L11.1283 18.5644L10.9687 18.5611L10.7285 18.5593L10.675 18.5592V23.0819C10.679 23.1097 10.6765 23.1379 10.6676 23.1645C10.6588 23.1911 10.6438 23.2152 10.624 23.235C10.6042 23.2548 10.5801 23.2697 10.5535 23.2786C10.5269 23.2874 10.4987 23.29 10.4709 23.286H7.77208C7.66608 23.286 7.61328 23.2258 7.61328 23.1046ZM10.6752 11.1808V15.9054C10.8561 15.92 11.0375 15.9275 11.219 15.9281H11.9672C12.483 15.9263 12.9958 15.8495 13.4895 15.7001L13.588 15.6693C14.0371 15.5359 14.4385 15.2762 14.7442 14.9212C15.0282 14.5862 15.1754 14.1245 15.1856 13.5362L15.1863 13.4704C15.1981 13.0318 15.0841 12.5992 14.8574 12.2236C14.6192 11.8604 14.275 11.5794 13.8714 11.4188C13.3445 11.214 12.7816 11.1177 12.2165 11.1355L11.929 11.1363L11.7477 11.1379L11.5746 11.1402L11.3304 11.1449L11.1522 11.1499L11.0597 11.1534L10.936 11.1592L10.8306 11.1656L10.7706 11.1704L10.7187 11.1754L10.6959 11.178L10.6752 11.1808ZM27.0339 15.0463C26.6385 14.8431 26.219 14.6904 25.7855 14.592L25.6851 14.5703C25.2082 14.4609 24.7212 14.4006 24.2319 14.3904L24.1097 14.3889C23.8229 14.3812 23.5365 14.4155 23.2596 14.491C23.0834 14.5302 22.9267 14.6305 22.8174 14.7743C22.7436 14.8892 22.7043 15.023 22.7042 15.1597C22.7083 15.2922 22.7561 15.4197 22.8401 15.5223C22.9604 15.663 23.1051 15.7809 23.2672 15.8704L23.3163 15.8964C23.6395 16.0704 23.9725 16.2255 24.3137 16.361C25.0744 16.6157 25.8014 16.9621 26.4785 17.3925C26.9398 17.6836 27.3215 18.0848 27.5894 18.56C27.8146 19.0099 27.9273 19.5077 27.918 20.0107C27.9316 20.675 27.7418 21.3276 27.3739 21.881C26.9802 22.4427 26.4333 22.8793 25.7984 23.139C25.1335 23.4312 24.317 23.5821 23.3489 23.592L23.2483 23.5925C22.6481 23.5986 22.0488 23.5461 21.4589 23.4357L21.3327 23.4111C20.836 23.32 20.3525 23.1677 19.8932 22.9577C19.8471 22.9339 19.8081 22.8982 19.7802 22.8544C19.7523 22.8106 19.7366 22.7601 19.7346 22.7082V20.2375C19.7319 20.2135 19.7357 20.1892 19.7457 20.1672C19.7557 20.1453 19.7715 20.1264 19.7913 20.1127C19.8108 20.1017 19.8332 20.0969 19.8554 20.0989C19.8777 20.101 19.8988 20.1097 19.9159 20.1241C20.4583 20.4439 21.0472 20.6772 21.6614 20.8155C22.2028 20.9512 22.7582 21.0235 23.3163 21.0309C23.8451 21.0309 24.2342 20.9628 24.4837 20.8268C24.5963 20.7753 24.6916 20.6922 24.758 20.5876C24.8244 20.483 24.8591 20.3614 24.8578 20.2375C24.8578 20.0413 24.7444 19.8523 24.5177 19.6708C24.4227 19.5948 24.2863 19.512 24.1089 19.4226L24.024 19.3809L23.9335 19.3383L23.886 19.3166L23.7864 19.2725C23.7692 19.265 23.7519 19.2575 23.7346 19.2501L23.6263 19.2047L23.57 19.1816L23.453 19.1347L23.3923 19.111L23.2665 19.0625L23.1349 19.0133C22.4231 18.7656 21.7482 18.4224 21.1286 17.9932C20.6855 17.685 20.3207 17.2775 20.0633 16.8031C19.8403 16.3564 19.7276 15.8628 19.7346 15.3636C19.7333 14.7638 19.8981 14.1754 20.2106 13.6635C20.567 13.0998 21.0786 12.651 21.6841 12.3715C22.349 12.0392 23.18 11.8729 24.1776 11.8726C24.7618 11.8679 25.3455 11.9096 25.9231 11.9974C26.3414 12.0504 26.7503 12.161 27.1383 12.326C27.2008 12.344 27.2511 12.3901 27.2743 12.4508C27.2897 12.5061 27.2973 12.5632 27.297 12.6208V14.9103C27.3003 14.9645 27.2743 15.0163 27.229 15.0463C27.1987 15.0614 27.1653 15.0692 27.1315 15.0692C27.0976 15.0692 27.0642 15.0614 27.0339 15.0463Z" fill="#31A8FF"/>
</g>
<defs>
<clipPath id="clip0_329_244">
<rect width="33.8" height="33" fill="white"/>
</clipPath>
</defs>
</svg>
