<svg width="76" height="76" viewBox="0 0 76 76" fill="none" xmlns="http://www.w3.org/2000/svg">
<path d="M38.4219 2.04224C31.2369 2.04224 24.2132 4.17284 18.2391 8.16463C12.2649 12.1564 7.60867 17.8301 4.85908 24.4682C2.10949 31.1063 1.39007 38.4107 2.7918 45.4576C4.19353 52.5046 7.65345 58.9776 12.734 64.0582C17.8146 69.1388 24.2877 72.5987 31.3346 74.0005C38.3816 75.4022 45.686 74.6828 52.3241 71.9332C58.9622 69.1836 64.6358 64.5273 68.6276 58.5532C72.6194 52.5791 74.75 45.5554 74.75 38.3704C74.75 28.7355 70.9226 19.4953 64.1098 12.6825C57.2969 5.86965 48.0567 2.04224 38.4219 2.04224ZM61.8594 13.761H55.6485C53.9778 10.8738 51.812 8.30335 49.25 6.16724C53.9574 7.74693 58.2615 10.339 61.8594 13.761ZM52.9766 13.761H47.1758C46.4228 10.8079 45.2086 7.99202 43.5781 5.41724C47.473 7.18487 50.7384 10.0948 52.9414 13.761H52.9766ZM39.5938 4.72583C41.3399 5.67505 43.2149 8.73364 44.7383 13.761H39.5938V4.72583ZM39.5938 16.1047H45.3828C46.2356 19.6168 46.8426 23.184 47.1992 26.7805L49.543 26.5227C49.183 23.0165 48.5998 19.5367 47.7969 16.1047H54.3477C55.9271 19.0702 57.1354 22.2189 57.9453 25.4797H51.3125V27.8235H58.4727C59.1019 30.9107 59.451 34.0485 59.5156 37.1985H53.6563V39.5422H59.5156C59.4587 42.6916 59.1175 45.8293 58.4961 48.9172H51.3125V51.261H57.9336C57.1237 54.5218 55.9154 57.6705 54.336 60.636H47.7969C48.5998 57.204 49.183 53.7243 49.543 50.218L47.1992 49.9602C46.8426 53.5567 46.2356 57.1239 45.3828 60.636H39.5938V48.9172H41.9375V51.261H44.2813V48.9172H45.4531C46.3855 48.9172 47.2798 48.5468 47.9391 47.8875C48.5984 47.2282 48.9688 46.334 48.9688 45.4016V44.2297H51.3125V41.886H48.9688V39.5422H51.3125V37.1985H48.9688V34.8547H51.3125V32.511H48.9688V31.3391C48.9688 30.4067 48.5984 29.5125 47.9391 28.8532C47.2798 28.1939 46.3855 27.8235 45.4531 27.8235H44.2813V25.4797H41.9375V27.8235H39.5938V16.1047ZM31.3906 13.761C31.6224 13.761 31.849 13.8297 32.0417 13.9585C32.2344 14.0873 32.3846 14.2703 32.4733 14.4844C32.562 14.6985 32.5852 14.9342 32.54 15.1615C32.4948 15.3888 32.3832 15.5976 32.2193 15.7615C32.0554 15.9254 31.8466 16.037 31.6193 16.0822C31.3919 16.1274 31.1563 16.1042 30.9422 16.0155C30.7281 15.9268 30.545 15.7766 30.4163 15.5839C30.2875 15.3912 30.2188 15.1646 30.2188 14.9329C30.2188 14.6221 30.3422 14.324 30.562 14.1042C30.7818 13.8845 31.0798 13.761 31.3906 13.761ZM37.25 72.3547C35.678 72.3079 34.1114 72.1474 32.5625 71.8743V57.1204C32.5634 56.9661 32.5338 56.8132 32.4755 56.6705C32.4172 56.5277 32.3313 56.3978 32.2227 56.2883L23.1875 47.2649V24.0969C23.9694 23.8205 24.6284 23.2765 25.048 22.5612C25.4676 21.8459 25.6209 21.0052 25.4806 20.1879C25.3404 19.3705 24.9157 18.629 24.2816 18.0945C23.6476 17.5599 22.845 17.2667 22.0156 17.2667C21.1863 17.2667 20.3837 17.5599 19.7496 18.0945C19.1156 18.629 18.6909 19.3705 18.5506 20.1879C18.4104 21.0052 18.5636 21.8459 18.9833 22.5612C19.4029 23.2765 20.0619 23.8205 20.8438 24.0969V47.7454C20.8429 47.8996 20.8724 48.0525 20.9308 48.1953C20.9891 48.338 21.075 48.4679 21.1836 48.5774L30.2188 57.6008V71.3469C23.0486 69.5682 16.6533 65.5015 12.0013 59.7626C7.34928 54.0237 4.694 46.9253 4.43752 39.5422H6.9922C7.26864 40.3241 7.8126 40.9831 8.52792 41.4027C9.24325 41.8224 10.0839 41.9756 10.9013 41.8354C11.7186 41.6951 12.4601 41.2704 12.9947 40.6364C13.5292 40.0023 13.8224 39.1997 13.8224 38.3704C13.8224 37.541 13.5292 36.7384 12.9947 36.1044C12.4601 35.4703 11.7186 35.0456 10.9013 34.9054C10.0839 34.7651 9.24325 34.9184 8.52792 35.338C7.8126 35.7576 7.26864 36.4166 6.9922 37.1985H4.43752C4.73579 28.3034 8.52474 19.8835 14.9844 13.761V51.261C14.9835 51.4152 15.0131 51.5681 15.0714 51.7109C15.1297 51.8537 15.2156 51.9835 15.3242 52.093L22.3555 59.1243C21.9972 59.8725 21.915 60.7234 22.1235 61.5264C22.3321 62.3294 22.8179 63.0328 23.495 63.5121C24.1722 63.9915 24.997 64.2159 25.8237 64.1457C26.6503 64.0756 27.4256 63.7153 28.0122 63.1286C28.5988 62.542 28.9591 61.7668 29.0293 60.9401C29.0995 60.1135 28.8751 59.2886 28.3957 58.6115C27.9164 57.9343 27.213 57.4485 26.41 57.24C25.607 57.0314 24.7561 57.1136 24.0078 57.4719L17.3281 50.7805V11.7571C21.1184 8.73517 25.5149 6.56489 30.2188 5.3938V11.6282C29.4369 11.9046 28.7779 12.4486 28.3583 13.1639C27.9386 13.8792 27.7854 14.7199 27.9256 15.5372C28.0659 16.3546 28.4906 17.0961 29.1246 17.6306C29.7587 18.1652 30.5613 18.4584 31.3906 18.4584C32.22 18.4584 33.0226 18.1652 33.6566 17.6306C34.2907 17.0961 34.7154 16.3546 34.8556 15.5372C34.9959 14.7199 34.8426 13.8792 34.423 13.1639C34.0034 12.4486 33.3444 11.9046 32.5625 11.6282V4.90161C34.1105 4.61673 35.6771 4.4444 37.25 4.38599V27.8235H34.9063V25.4797H32.5625V27.8235H31.3906C30.4582 27.8235 29.564 28.1939 28.9047 28.8532C28.2454 29.5125 27.875 30.4067 27.875 31.3391V32.511H25.5313V34.8547H27.875V37.1985H25.5313V39.5422H27.875V41.886H25.5313V44.2297H27.875V45.4016C27.875 46.334 28.2454 47.2282 28.9047 47.8875C29.564 48.5468 30.4582 48.9172 31.3906 48.9172H32.5625V51.261H34.9063V48.9172H37.25V72.3547ZM22.0156 21.9641C21.7839 21.9641 21.5573 21.8954 21.3646 21.7666C21.1719 21.6378 21.0217 21.4548 20.933 21.2407C20.8443 21.0266 20.8211 20.7909 20.8663 20.5636C20.9115 20.3363 21.0231 20.1275 21.187 19.9636C21.3509 19.7997 21.5597 19.6881 21.787 19.6429C22.0143 19.5977 22.25 19.6209 22.4641 19.7096C22.6782 19.7983 22.8613 19.9485 22.99 20.1412C23.1188 20.3339 23.1875 20.5605 23.1875 20.7922C23.1875 21.103 23.0641 21.4011 22.8443 21.6209C22.6245 21.8406 22.3264 21.9641 22.0156 21.9641ZM9.12502 38.3704C9.12502 38.1386 9.19375 37.912 9.32251 37.7193C9.45128 37.5266 9.6343 37.3764 9.84843 37.2877C10.0626 37.199 10.2982 37.1758 10.5255 37.221C10.7528 37.2662 10.9616 37.3778 11.1255 37.5417C11.2894 37.7056 11.401 37.9144 11.4462 38.1417C11.4915 38.3691 11.4683 38.6047 11.3796 38.8188C11.2909 39.033 11.1407 39.216 10.948 39.3447C10.7552 39.4735 10.5287 39.5422 10.2969 39.5422C9.98609 39.5422 9.68802 39.4188 9.46825 39.199C9.24848 38.9792 9.12502 38.6812 9.12502 38.3704ZM24.3594 60.636C24.3594 60.4042 24.4281 60.1776 24.5569 59.9849C24.6857 59.7922 24.8687 59.642 25.0828 59.5533C25.2969 59.4646 25.5326 59.4414 25.7599 59.4866C25.9872 59.5318 26.196 59.6435 26.3599 59.8073C26.5238 59.9712 26.6354 60.18 26.6806 60.4074C26.7258 60.6347 26.7026 60.8703 26.6139 61.0844C26.5252 61.2986 26.375 61.4816 26.1823 61.6104C25.9896 61.7391 25.763 61.8079 25.5313 61.8079C25.2205 61.8079 24.9224 61.6844 24.7026 61.4646C24.4829 61.2449 24.3594 60.9468 24.3594 60.636ZM31.3906 46.5735C31.0798 46.5735 30.7818 46.45 30.562 46.2303C30.3422 46.0105 30.2188 45.7124 30.2188 45.4016V31.3391C30.2188 31.0283 30.3422 30.7302 30.562 30.5105C30.7818 30.2907 31.0798 30.1672 31.3906 30.1672H45.4531C45.7639 30.1672 46.062 30.2907 46.2818 30.5105C46.5016 30.7302 46.625 31.0283 46.625 31.3391V45.4016C46.625 45.7124 46.5016 46.0105 46.2818 46.2303C46.062 46.45 45.7639 46.5735 45.4531 46.5735H31.3906ZM39.5938 72.0149V62.9797H44.7383C43.2149 68.0071 41.3399 71.0657 39.5938 72.0149ZM47.1758 62.9797H52.9414C50.7354 66.6478 47.4656 69.5578 43.5664 71.3235C45.201 68.7494 46.4191 65.9335 47.1758 62.9797ZM49.25 70.5735C51.812 68.4374 53.9778 65.8669 55.6485 62.9797H61.8594C58.2615 66.4018 53.9574 68.9938 49.25 70.5735ZM64.0625 60.636H56.9258C58.406 57.6481 59.546 54.5034 60.3242 51.261H69.8633C68.4549 54.6819 66.4953 57.8489 64.0625 60.636ZM70.7188 48.9172H60.8516C61.4618 45.8278 61.7991 42.6907 61.8594 39.5422H72.4063C72.2925 42.7316 71.7243 45.8884 70.7188 48.9172ZM72.4063 37.1985H61.8594C61.8068 34.0507 61.4774 30.9136 60.875 27.8235H70.7422C71.7398 30.8535 72.3001 34.0103 72.4063 37.1985ZM60.3242 25.4797C59.546 22.2374 58.406 19.0926 56.9258 16.1047H64.0625C66.4953 18.8918 68.4549 22.0588 69.8633 25.4797H60.3242Z" fill="#599D2E"/>
<path d="M38.4219 34.8547C38.7327 34.8547 39.0307 34.9782 39.2505 35.198C39.4703 35.4177 39.5938 35.7158 39.5938 36.0266H41.9375C41.9355 35.3013 41.7091 34.5943 41.2895 34.0027C40.8699 33.4111 40.2776 32.9637 39.5938 32.7219V31.3391H37.25V32.7219C36.475 33.0031 35.8234 33.5478 35.4093 34.2608C34.9951 34.9737 34.8447 35.8095 34.9843 36.6221C35.1239 37.4346 35.5447 38.1723 36.1731 38.7061C36.8014 39.2399 37.5974 39.5358 38.4219 39.5422C38.6537 39.5422 38.8802 39.611 39.0729 39.7397C39.2656 39.8685 39.4158 40.0515 39.5045 40.2657C39.5932 40.4798 39.6164 40.7154 39.5712 40.9427C39.526 41.1701 39.4144 41.3789 39.2505 41.5428C39.0866 41.7066 38.8778 41.8183 38.6505 41.8635C38.4232 41.9087 38.1876 41.8855 37.9734 41.7968C37.7593 41.7081 37.5763 41.5579 37.4475 41.3652C37.3187 41.1725 37.25 40.9459 37.25 40.7141H34.9062C34.9083 41.4394 35.1346 42.1464 35.5542 42.738C35.9738 43.3297 36.5662 43.777 37.25 44.0188V45.4016H39.5938V44.0188C40.3688 43.7376 41.0203 43.1929 41.4345 42.48C41.8487 41.7671 41.9991 40.9313 41.8595 40.1187C41.7198 39.3061 41.2991 38.5684 40.6707 38.0346C40.0423 37.5008 39.2463 37.2049 38.4219 37.1985C38.1111 37.1985 37.813 37.075 37.5932 36.8553C37.3735 36.6355 37.25 36.3374 37.25 36.0266C37.25 35.7158 37.3735 35.4177 37.5932 35.198C37.813 34.9782 38.1111 34.8547 38.4219 34.8547Z" fill="#599D2E"/>
</svg>
