<svg width="76" height="76" viewBox="0 0 76 76" fill="none" xmlns="http://www.w3.org/2000/svg">
<g clip-path="url(#clip0_1_186)">
<path d="M20.6142 50.8665C18.7069 50.8665 17.1542 52.4192 17.1542 54.3279C17.1542 56.2336 18.7069 57.7849 20.6142 57.7849C22.5214 57.7849 24.0741 56.2336 24.0741 54.3279C24.0741 52.4192 22.5214 50.8665 20.6142 50.8665ZM20.6142 55.4412C19.9989 55.4412 19.4979 54.9417 19.4979 54.3279C19.4979 53.7112 19.9989 53.2102 20.6142 53.2102C21.2294 53.2102 21.7304 53.7112 21.7304 54.3279C21.7304 54.9417 21.2294 55.4412 20.6142 55.4412ZM26.4809 26.4036H34.0292C34.6767 26.4036 35.2011 25.8792 35.2011 25.2317V17.6921C35.2011 17.0447 34.6767 16.5203 34.0292 16.5203H26.4809C25.8334 16.5203 25.309 17.0447 25.309 17.6921V25.2317C25.309 25.8792 25.8349 26.4036 26.4809 26.4036ZM27.6527 18.8655H32.8573V24.0613H27.6527V18.8655ZM38.5145 26.4036H46.06C46.7074 26.4036 47.2318 25.8792 47.2318 25.2317V17.6921C47.2318 17.0447 46.7074 16.5203 46.06 16.5203H38.516C37.8685 16.5203 37.3441 17.0447 37.3441 17.6921V25.2317C37.3427 25.8792 37.8671 26.4036 38.5145 26.4036ZM39.6864 18.8655H44.8881V24.0613H39.6879V18.8655H39.6864ZM26.4809 38.4182H34.0292C34.6767 38.4182 35.2011 37.8938 35.2011 37.2463V29.7112C35.2011 29.0637 34.6767 28.5393 34.0292 28.5393H26.4809C25.8334 28.5393 25.309 29.0637 25.309 29.7112V37.2463C25.309 37.8938 25.8349 38.4182 26.4809 38.4182ZM27.6527 30.8831H32.8573V36.0745H27.6527V30.8831ZM38.5145 38.4182H46.06C46.7074 38.4182 47.2318 37.8938 47.2318 37.2463V29.7112C47.2318 29.0637 46.7074 28.5393 46.06 28.5393H38.516C37.8685 28.5393 37.3441 29.0637 37.3441 29.7112V37.2463C37.3427 37.8938 37.8671 38.4182 38.5145 38.4182ZM39.6864 30.8831H44.8881V36.0745H39.6879V30.8831H39.6864ZM65.015 40.5525H57.4667C56.8192 40.5525 56.2948 41.0769 56.2948 41.7244V49.2639C56.2948 49.9114 56.8192 50.4358 57.4667 50.4358H65.015C65.6625 50.4358 66.1869 49.9114 66.1869 49.2639V41.7244C66.1869 41.0769 65.661 40.5525 65.015 40.5525ZM63.8432 48.092H58.6386V42.8962H63.8432V48.092ZM73.892 72.0041H71.7255V38.3083C71.7255 37.8674 71.4779 37.4646 71.0854 37.2639L53.0985 28.1101V10.7927C53.0985 10.1453 52.5741 9.62085 51.9267 9.62085H49.7265V3.56372C49.7265 2.91626 49.202 2.39185 48.5546 2.39185H23.9862C23.3388 2.39185 22.8144 2.91626 22.8144 3.56372V9.61938H20.6142C19.9667 9.61938 19.4423 10.1438 19.4423 10.7913V23.8723H7.26943C6.62197 23.8723 6.09756 24.3967 6.09756 25.0442V51.2517L0.545798 55.2991C0.293845 55.4822 0.125388 55.759 0.0785132 56.0652C0.0301734 56.3728 0.10781 56.6863 0.290916 56.9382L2.64492 60.1521C2.8749 60.4656 3.23086 60.6311 3.59121 60.6311C3.83144 60.6311 4.07314 60.5579 4.28115 60.4055L6.09756 59.0813V72.0012H3.93105C3.28359 72.0012 2.75918 72.5256 2.75918 73.1731C2.75918 73.8206 3.28359 74.345 3.93105 74.345H73.892C74.5395 74.345 75.0639 73.8206 75.0639 73.1731C75.0639 72.5256 74.5395 72.0041 73.892 72.0041ZM58.6371 57.3059L58.9052 56.9397C59.0883 56.6892 59.1645 56.3743 59.1176 56.0681C59.0707 55.762 58.9022 55.4851 58.6503 55.302L58.6371 55.2932V54.9167H63.8417V60.1082H58.6371V57.3059ZM56.3212 56.5032L55.3544 57.8245L39.2763 46.0984C39.0712 45.949 38.828 45.8728 38.5863 45.8728C38.3446 45.8728 38.1015 45.9475 37.8964 46.0984L32.9818 49.6829L31.5902 48.6663L38.5863 43.5671L56.3212 56.5032ZM25.1581 4.7356H47.3827V9.61938H25.1581V4.7356ZM21.786 11.9646H50.7548V49.5437L39.2763 41.1721C38.8646 40.8718 38.3065 40.8718 37.8949 41.1721L29.598 47.219L21.786 41.5237V11.9646ZM19.4423 36.0745H13.6181V30.8831H19.4423V36.0745ZM8.44131 26.2175H19.4423V28.5393H12.4462C11.7987 28.5393 11.2743 29.0637 11.2743 29.7112V37.2463C11.2743 37.8938 11.7987 38.4182 12.4462 38.4182H19.4423V41.5237L8.44131 49.5452V26.2175ZM3.84463 57.8259L2.8749 56.5032L20.6142 43.5701L38.3534 56.5046L37.3866 57.8259L21.3041 46.0984C20.8925 45.7981 20.3344 45.7981 19.9228 46.0984L3.84463 57.8259ZM17.1601 72.0041V63.905H24.0683V72.0041H17.1601ZM26.412 72.0041V62.7332C26.412 62.0857 25.8876 61.5613 25.2401 61.5613H15.9882C15.3407 61.5613 14.8163 62.0857 14.8163 62.7332V72.0041H8.44131V57.3748L20.6142 48.4963L32.787 57.3718V72.0041H26.412ZM35.1322 72.0041V59.0813L36.953 60.4084C37.476 60.7893 38.2084 60.675 38.5893 60.1536L40.9389 56.9397C41.122 56.6892 41.1981 56.3743 41.1513 56.0666C41.1029 55.759 40.9345 55.4836 40.684 55.3005L34.9696 51.1345L38.5863 48.4963L50.7562 57.3718V72.0041H35.1322ZM53.0985 72.0041V59.0813L54.9193 60.4084C55.1273 60.5608 55.369 60.634 55.6093 60.634C55.8524 60.634 56.0927 60.5564 56.2948 60.4114V61.2786C56.2948 61.926 56.8192 62.4504 57.4667 62.4504H65.015C65.6625 62.4504 66.1869 61.926 66.1869 61.2786V53.7434C66.1869 53.0959 65.6625 52.5715 65.015 52.5715H57.4667C56.872 52.5715 56.3812 53.0154 56.3065 53.5911L53.1 51.2532V30.7395L69.3832 39.0261V72.0041H53.0985Z" fill="#599D2E"/>
</g>
<defs>
<clipPath id="clip0_1_186">
<rect width="75" height="75" fill="white" transform="translate(0.0644531 0.870361)"/>
</clipPath>
</defs>
</svg>
