<svg width="33" height="33" viewBox="0 0 33 33" fill="none" xmlns="http://www.w3.org/2000/svg">
<g clip-path="url(#clip0_329_262)">
<path d="M25.2656 0H7.73438C3.4628 0 0 3.4628 0 7.73438V25.2656C0 29.5372 3.4628 33 7.73438 33H25.2656C29.5372 33 33 29.5372 33 25.2656V7.73438C33 3.4628 29.5372 0 25.2656 0Z" fill="#470137"/>
<path d="M17.3043 10.3402L13.4371 16.721L17.5621 23.4886C17.5879 23.5402 17.6008 23.5917 17.5879 23.6433C17.575 23.6948 17.5234 23.6562 17.4461 23.6691H14.4941C14.2879 23.6691 14.1461 23.6562 14.0558 23.5273C13.7851 22.9859 13.5015 22.4573 13.2308 21.9159C12.9601 21.3874 12.6637 20.846 12.3543 20.2917C12.0449 19.7374 11.7355 19.1831 11.4262 18.6159H11.4004C11.1297 19.1702 10.8332 19.7245 10.5367 20.2788C10.2402 20.8331 9.94373 21.3874 9.66014 21.9288C9.36365 22.4702 9.06717 23.0245 8.77068 23.553C8.71912 23.682 8.61599 23.6948 8.4742 23.6948H5.63826C5.5867 23.6948 5.54803 23.7206 5.54803 23.6562C5.53514 23.6046 5.54803 23.553 5.57381 23.5144L9.58279 16.9402L5.67693 10.3273C5.63826 10.2757 5.62537 10.2241 5.65115 10.1984C5.67693 10.1597 5.72849 10.1468 5.78006 10.1468H8.70623C8.77068 10.1468 8.83514 10.1597 8.8867 10.1726C8.93826 10.1984 8.97693 10.237 9.0156 10.2886C9.26053 10.8429 9.54412 11.3972 9.8406 11.9515C10.15 12.5058 10.4465 13.0472 10.7687 13.5886C11.0781 14.13 11.3617 14.6714 11.6324 15.2257H11.6582C11.9289 14.6585 12.2125 14.1042 12.4961 13.5628C12.7797 13.0214 13.0762 12.48 13.3726 11.9386C13.6691 11.3972 13.9527 10.8429 14.2363 10.3144C14.2492 10.2628 14.275 10.2112 14.3137 10.1855C14.3652 10.1597 14.4168 10.1468 14.4812 10.1597H17.2012C17.2656 10.1468 17.3301 10.1855 17.3429 10.2499C17.3558 10.2628 17.3301 10.3144 17.3043 10.3402ZM23.2597 23.9399C22.3058 23.9528 21.3519 23.7594 20.4883 23.3598C19.6761 22.986 19.0058 22.3672 18.5418 21.6067C18.0648 20.8204 17.8328 19.8407 17.8328 18.6676C17.8199 17.7137 18.0648 16.7727 18.5418 15.9477C19.0316 15.1098 19.7406 14.4137 20.5914 13.9497C21.4937 13.4469 22.5765 13.202 23.8527 13.202C23.9172 13.202 24.0074 13.202 24.1234 13.2149C24.2394 13.2278 24.3683 13.2278 24.523 13.2407V9.16724C24.523 9.077 24.5617 9.02544 24.6519 9.02544H27.2687C27.3332 9.01255 27.3847 9.06411 27.3976 9.11568V21.4133C27.3976 21.6454 27.4105 21.9032 27.4234 22.1868C27.4492 22.4575 27.4621 22.7153 27.475 22.9344C27.475 23.0247 27.4363 23.102 27.3461 23.1407C26.6758 23.4243 25.9668 23.6305 25.2449 23.7594C24.5875 23.8754 23.9301 23.9399 23.2597 23.9399ZM24.523 21.3618V15.6899C24.407 15.6641 24.291 15.6383 24.175 15.6254C24.0332 15.6126 23.8914 15.5997 23.7496 15.5997C23.2469 15.5997 22.7441 15.7028 22.2929 15.9348C21.8547 16.154 21.4808 16.4762 21.1972 16.8887C20.9136 17.3012 20.7719 17.8555 20.7719 18.5258C20.759 18.977 20.8363 19.4282 20.991 19.8536C21.1199 20.2016 21.3133 20.511 21.5711 20.7688C21.816 21.0008 22.1125 21.1813 22.4476 21.2844C22.7957 21.4004 23.1566 21.452 23.5176 21.452C23.7109 21.452 23.8914 21.4391 24.059 21.4262C24.2265 21.4391 24.3683 21.4133 24.523 21.3618Z" fill="#FF61F6"/>
</g>
<defs>
<clipPath id="clip0_329_262">
<rect width="33" height="33" fill="white"/>
</clipPath>
</defs>
</svg>
